<svg xmlns="http://www.w3.org/2000/svg" viewBox="0 0 540 540"><defs><style>.cls-1{fill:none;stroke:#000;stroke-miterlimit:10;}</style></defs><g id="Calque_6" data-name="Calque 6"><path class="cls-1" d="M314.48,293.85c5.8,23,24.36,40.2,46.66,43.43,26,3.78,53.65-12,61.13-38.61,6.35-22.61-3.33-47.62-24.13-61.13"/><path class="cls-1" d="M390.1,253.63c1.06-1.49,22.62-32.7,8-66-11.65-26.57-41.24-42.76-72.39-38.61,0,0-24.94-52.29-82.86-44.24s-64.35,82-64.35,82"/><path class="cls-1" d="M223.59,257.65s-49.87-3.22-51.48,43.44c0,0-67.71-3.22-70.05-63.55s67.34-72.6,79.95-68.88"/><path class="cls-1" d="M172.11,301.09c-1.53,30.57,33.78,43.43,43.11,43.35,16.41.08,45.81-5.92,63.07,11.34,4.82,4.83,12.28,15.54,12.57,34.31s0,76.13,0,76.13"/><path class="cls-1" d="M217.78,201.21a46.48,46.48,0,0,1,87,32.83"/><path class="cls-1" d="M348.18,237A46.47,46.47,0,0,1,258,259.7"/></g></svg>