<svg xmlns="http://www.w3.org/2000/svg" viewBox="0 0 540 540"><defs><style>.cls-1{fill:none;stroke:#000;stroke-miterlimit:10;}</style></defs><g id="Calque_3" data-name="Calque 3"><path d="M303.73,144.58a67.54,67.54,0,0,1,13.2,1.32c28.4,5.72,50.18,29.24,54.21,58.53l.12.93.93-.06c.88-.06,1.76-.11,2.63-.13s1.64,0,2.46,0a78,78,0,0,1,66.14,36.75,81.53,81.53,0,0,1-18,107.48,78.29,78.29,0,0,1-48.12,16.83,76.77,76.77,0,0,1-12.38-1,78.1,78.1,0,0,1-51.38-32.3l-1.07-1.52-.67,1.74a68.94,68.94,0,0,1-25,31.87,66.54,66.54,0,0,1-38.13,12,67.17,67.17,0,0,1-44.87-17.23,70.14,70.14,0,0,1-19.25-29l-.37-1.08-1,.52a66.33,66.33,0,0,1-45.82,5.52,67.67,67.67,0,0,1-41.15-29.32,70.4,70.4,0,0,1,13.09-91.8,66.8,66.8,0,0,1,77.19-7l.87.51.5-.89a53.29,53.29,0,0,1,55.72-26.84l.7.12.34-.62a67.81,67.81,0,0,1,59.17-35.39m0-1a68.88,68.88,0,0,0-60,35.91,54.12,54.12,0,0,0-9.18-.79,54.87,54.87,0,0,0-47.58,28.12,68,68,0,0,0-34.26-9.27c-32.82,0-62.09,24.06-67.92,58.56-6.19,36.59,16.92,72.22,52.31,80.64a67.44,67.44,0,0,0,46.52-5.61c7.91,22.62,26.93,40.54,51.66,45.52a68.27,68.27,0,0,0,13.4,1.34c28.16,0,53.69-17.72,64.07-44.54a79.29,79.29,0,0,0,52,32.71,77.51,77.51,0,0,0,12.55,1c35.84,0,68.34-25,77.35-61.45,11.28-45.67-17.27-91.09-61.91-100.07a78.41,78.41,0,0,0-15.44-1.54c-.83,0-1.66,0-2.49,0s-1.78.07-2.66.13c-4-28.92-25.39-53.42-55-59.38a68.27,68.27,0,0,0-13.4-1.34Z"/><path class="cls-1" d="M372.14,204.55a81.56,81.56,0,0,0-57.3,25.95"/></g></svg>