<svg xmlns="http://www.w3.org/2000/svg" viewBox="0 0 540 540"><defs><style>.cls-1{fill:none;stroke:#000;stroke-miterlimit:10;}</style></defs><g id="Calque_6" data-name="Calque 6"><path class="cls-1" d="M404.06,244a51.11,51.11,0,0,1-40.16-19.44,15.36,15.36,0,0,0-19.71-3.77A77.85,77.85,0,0,1,231.5,129.48a10.71,10.71,0,0,0-12.81-13.6A160.06,160.06,0,0,0,98,271.25c.13,87.44,71.34,159.09,158.78,159.75A160,160,0,0,0,418,271a163.63,163.63,0,0,0-.93-17.39A10.92,10.92,0,0,0,405.74,244Z"/><circle class="cls-1" cx="176" cy="249" r="22.5"/><circle class="cls-1" cx="293" cy="286" r="22.5"/><circle class="cls-1" cx="360" cy="276" r="6.5"/><circle class="cls-1" cx="164" cy="326" r="6.5"/><circle class="cls-1" cx="195" cy="193" r="6.5"/><circle class="cls-1" cx="245" cy="286" r="6.5"/><circle class="cls-1" cx="231" cy="348" r="22.5"/><path class="cls-1" d="M306.52,121.86a49.72,49.72,0,0,0-11.18-2.16,18.45,18.45,0,0,0-19.84,18.1v.2c0,16.84,14.77,30.5,33,30.5a35.21,35.21,0,0,0,13.43-2.63,18.59,18.59,0,0,0,6.21-30.12A51.2,51.2,0,0,0,306.52,121.86Z"/><path class="cls-1" d="M374.28,206.44a31.68,31.68,0,0,0,6.91,2.53A12.15,12.15,0,0,0,396,199.31l0-.12c1.73-10.92-6.43-21.28-18.24-23.16l-.27,0c-13-1.92-21.34,13.8-12.43,23.49A31.78,31.78,0,0,0,374.28,206.44Z"/></g></svg>