<?xml version="1.0" encoding="utf-8"?>
<!-- Generator: Adobe Illustrator 26.0.2, SVG Export Plug-In . SVG Version: 6.00 Build 0)  -->
<svg version="1.1" id="Calque_1" xmlns="http://www.w3.org/2000/svg" xmlns:xlink="http://www.w3.org/1999/xlink" x="0px" y="0px"
	 viewBox="0 0 540 540" style="enable-background:new 0 0 540 540;" xml:space="preserve">
<style type="text/css">
	.st0{fill:none;stroke:#000000;stroke-miterlimit:10;}
</style>
<path class="st0" d="M161.6,363.9c0,0-21.2-54.1,38.2-49.8s25-80.9-20.9-78.6s-43.8-25.3-17.2-35.9s39.2-24.4,40.3-41.4
	c1.1-17,6.9-32.3,29.5-31.5c22.5,0.8,64.9-1.4,75.5,24.1c9.3,22.3-24.5,55.9-33,64c-2.3,2.1-4.2,4.5-5.6,7.2
	c-3.5,6.4-5.4,16.1,15.3,14.7c19.2-1.3,30.2-13.8,35.7-23c6.1-10.5,15.5-18.7,26.7-23.5c18-7.4,42.2-7.8,52.2,34.8
	c17,72.1-17.4,62-33.1,67l-1.3,0.5c-14.8,5.7-20.2,24-11.6,37.4c5.9,9.2,10.6,22.9,3.6,39.3C342.9,398.9,179.6,427.5,161.6,363.9z"
	/>
</svg>
