<?xml version="1.0" encoding="utf-8"?>
<!-- Generator: Adobe Illustrator 26.0.2, SVG Export Plug-In . SVG Version: 6.00 Build 0)  -->
<svg version="1.1" id="Calque_1" xmlns="http://www.w3.org/2000/svg" xmlns:xlink="http://www.w3.org/1999/xlink" x="0px" y="0px"
	 viewBox="0 0 540 540" style="enable-background:new 0 0 540 540;" xml:space="preserve">
<style type="text/css">
	.st0{fill:none;stroke:#000000;stroke-miterlimit:10;}
</style>
<path class="st0" d="M149.6,379.9c0,0-23.9-60.9,43-56.2c66.9,4.8,28.1-91.1-23.6-88.6c-51.7,2.5-49.3-28.5-19.4-40.5
	c29.9-11.9,44.2-27.5,45.4-46.6c1.2-19.1,7.8-36.4,33.2-35.5c25.4,0.9,73.1-1.5,85.1,27.1c10.5,25.1-27.5,63-37.2,72.1
	c-2.5,2.4-4.7,5.1-6.3,8.2c-3.9,7.3-6.1,18.2,17.3,16.6c21.6-1.5,34-15.6,40.2-25.9c6.9-11.8,17.4-21.1,30-26.4
	c20.3-8.4,47.5-8.8,58.8,39.2c19.1,81.2-19.6,69.8-37.3,75.5l-1.5,0.5c-16.7,6.5-22.8,27.1-13.1,42.2c6.7,10.3,11.9,25.8,4,44.3
	C353.8,419.3,169.9,451.6,149.6,379.9z"/>
</svg>
