<svg xmlns="http://www.w3.org/2000/svg" xmlns:xlink="http://www.w3.org/1999/xlink" viewBox="0 0 540 540"><defs><style>.cls-1,.cls-4{fill:none;}.cls-2{isolation:isolate;}.cls-3{clip-path:url(#clip-path);}.cls-4{stroke:#000;stroke-miterlimit:10;stroke-width:0.25px;}.cls-5{clip-path:url(#clip-path-2);}.cls-6{clip-path:url(#clip-path-3);}.cls-7{clip-path:url(#clip-path-4);}.cls-8{clip-path:url(#clip-path-5);}.cls-9{clip-path:url(#clip-path-6);}</style><clipPath id="clip-path"><path class="cls-1" d="M220.59,425.65c2.48.76,7.65-7.24,15.35-24.8-7.7,17.56-12.87,25.56-15.35,24.8-3.54-1.14-8.22-2.77-11.7-4.09-2.11-.8-4.89-2-6.94-3-4.06-1.91-9.34-4.7-13.26-6.88-2.26-1.26-5.14-3.18-7.32-4.58a150.65,150.65,0,0,1-14.4-10.9c-2.63-2.3-6.05-5.46-8.53-7.92-2-2-4.58-4.64-6.37-6.78-2.85-3.41-6.59-8-9.24-11.59-1.81-2.44-4-5.87-5.64-8.42a139.45,139.45,0,0,1-9.05-16.87,149.92,149.92,0,0,1-8-22.09,136.31,136.31,0,0,1-4.38-22.37c-.4-4.76-.88-11.11-1-15.89-.07-3.56.17-8.3.38-11.86.43-7.23,2.23-16.77,3.68-23.88A136.22,136.22,0,0,1,123,234.24c1.15-3.44,3.09-7.89,4.41-11.27a142.19,142.19,0,0,1,6.8-13.58A150.81,150.81,0,0,1,147.22,190a170.93,170.93,0,0,1,15-16.23A129,129,0,0,1,176,162.51c2.59-1.8,6-4.25,8.72-5.89,3.59-2.19,8.45-5,12.24-6.88a176.64,176.64,0,0,1,17.66-7.48c3.06-1.06,7.19-2.34,10.31-3.2,2.78-.76,6.51-1.7,9.34-2.21,2.39-.44,5.58-1.11,8-1.41s5.52-.73,7.89-.95,5.55-.42,7.93-.53a149.82,149.82,0,0,1,21.78.71c2.07.25,4.84.58,6.9.9s4.81.86,6.87,1.23,4.82,1,6.85,1.57c3.56,1,8.31,2.28,11.79,3.5,4.09,1.43,9.45,3.61,13.43,5.33,2.14.92,4.92,2.32,7,3.39s4.61,2.54,6.58,3.63c2.26,1.26,5.13,3.18,7.32,4.58A149,149,0,0,1,361,169.7c2.63,2.3,6.05,5.46,8.54,7.91,2,2,4.55,4.67,6.37,6.79a148.62,148.62,0,0,1,14.87,20,137.44,137.44,0,0,1,9,16.87,152.1,152.1,0,0,1,8.05,22.08,153.64,153.64,0,0,1,4.37,22.38c.47,4.75.89,11.11,1,15.89.08,3.56-.26,8.3-.37,11.85-.24,7.25-2.22,16.78-3.68,23.89A126,126,0,0,1,405,331.69c-1.18,3.44-2.91,8-4.41,11.28a145.79,145.79,0,0,1-6.8,13.58c-8.52,14.25-10.87,17-20.18,27.65a100.32,100.32,0,0,1-7.91,7.93c-4,3.54-9.45,8.09-13.71,11.3-2.52,1.89-6,4.24-8.72,5.89-3.6,2.19-8.49,5-12.24,6.87-5.13,2.62-12.29,5.44-17.67,7.49-3,1.15-7.19,2.31-10.31,3.2-2.76.79-6.5,1.7-9.33,2.21-2.4.43-5.59,1.05-8,1.41s-5.8.77-8.3,1a147.53,147.53,0,0,1-29.26-.22c-2-.21-7.4-.83-13.8-2.14-2.07-.42-4.81-1-6.85-1.56S222.66,426.23,220.59,425.65Z"/></clipPath><clipPath id="clip-path-2"><path class="cls-1" d="M400.56,343a173.37,173.37,0,0,1-11.25,20.94c-1.92,2.92-4.55,6.77-6.69,9.53a137.17,137.17,0,0,1-9.33,11.07c-2.37,2.39-5.39,5.71-7.93,7.91-4.82,4.16-11.4,9.54-16.57,13.25-2.55,1.83-6.08,4.08-8.8,5.63-4.26,2.4-10,5.46-14.46,7.5-3.58,1.64-8.46,3.63-12.2,4.88-5,1.67-11.79,3.61-16.93,4.83-2.91.7-6.83,1.46-9.8,1.85-2.37.31-5.52.77-7.9,1s-5.88.44-8.41.6a150.6,150.6,0,0,1-22.16-.69c-7.31-.93-8.83-1.12-13.8-2.14-1.72-.35-7-1.41-13.74-3.48-3.8-1.15-1.31-22.81,8-62.12,15.45-65,43.87-154,63.35-198.44-19.48,44.42-47.9,133.44-63.35,198.44-9.35,39.31-11.84,61-8,62.12h0c-2.06-.68-4.85-1.51-6.89-2.27-3.46-1.31-8.09-3.06-11.44-4.64-4.06-1.9-9.35-4.68-13.27-6.85-2.16-1.19-4.93-2.94-7-4.32-2.19-1.47-5.13-3.41-7.2-5.05-4-3.19-9.31-7.57-13.12-11-2.41-2.19-5.4-5.34-7.61-7.72-1.93-2.08-4.34-5-6.17-7.16-2.53-3-5.55-7.29-7.78-10.53-1.73-2.53-3.82-6.06-5.42-8.68a125.51,125.51,0,0,1-7.36-14.49,168.33,168.33,0,0,1-6.83-18.81,146.64,146.64,0,0,1-4.61-22.28c-.39-4-.92-9.25-1.09-13.23-.15-3.54-.11-8.27,0-11.81a184.26,184.26,0,0,1,3-23.86,111.75,111.75,0,0,1,4.27-16.11c1.24-3.42,2.78-8,4.21-11.37,1.73-4,4.29-9.34,6.31-13.25a143.13,143.13,0,0,1,12.7-19.7c2.66-3.44,6.41-7.86,9.33-11.08,2.26-2.48,5.55-5.53,7.93-7.9C167.08,169,174,164,179.14,160.27a140.27,140.27,0,0,1,14.47-8.81c2.59-1.37,6.09-3.14,8.78-4.32,3.61-1.58,8.5-3.54,12.2-4.88A153.3,153.3,0,0,1,233.32,137c4.74-.93,11.11-1.86,15.9-2.46,2.51-.32,5.89-.48,8.41-.61,2.35-.12,5.48-.2,7.83-.13,4.26.13,9.94.37,14.18.81a145.35,145.35,0,0,1,20.81,3.72c2.08.53,4.83,1.29,6.88,1.91s4.83,1.6,6.89,2.28,4.76,1.75,6.75,2.6c3.47,1.47,8,3.6,11.38,5.28,2.11,1,4.87,2.56,6.89,3.78,4.06,2.47,9.34,6,13.23,8.73,2.27,1.6,5.15,4,7.28,5.73a146.14,146.14,0,0,1,14.09,13.48c2.51,2.79,5.75,6.62,8.07,9.57,1.86,2.36,4.23,5.6,5.87,8.12A147,147,0,0,1,400.56,223a142.22,142.22,0,0,1,6.83,18.81A156.76,156.76,0,0,1,412,264.11c.48,3.95.92,9.25,1.09,13.23.15,3.54,0,8.26,0,11.8-.12,7.22-1.67,16.77-2.95,23.87a138.46,138.46,0,0,1-4.27,16.11A144.58,144.58,0,0,1,400.56,343Z"/></clipPath><clipPath id="clip-path-3"><path class="cls-1" d="M409.14,317.37a150.81,150.81,0,0,1-9.92,28.56,144.83,144.83,0,0,1-18.51,30c-4.06,5.26-10.35,11.54-15,16.24-2.33,2.34-5.8,5.08-8.34,7.19a170,170,0,0,1-14.09,10c-2.58,1.7-6.24,3.62-8.92,5.16a103,103,0,0,1-12.14,5.78c-2.64,1.05-6.16,2.49-8.85,3.42-3.06,1.06-7.2,2.27-10.31,3.2a95.8,95.8,0,0,1-9.33,2.21c-4.74.86-11.09,1.89-15.88,2.36a150.77,150.77,0,0,1-15.34.65c-6.55,0-12.21-.61-14.34-.83-1.55-.16-7.13-.78-13.81-2.14-4.16-.85-9.63-2.34-13.73-3.48-3.8-1.15-1.31-22.81,8-62.12,15.45-65,43.87-154,63.35-198.44-19.48,44.42-47.9,133.44-63.35,198.44-9.35,39.31-11.84,61-8,62.12-3.54-1.14-8.22-2.77-11.7-4.09-2.11-.8-4.89-2-6.94-3-4.06-1.91-9.34-4.7-13.26-6.88-2.26-1.26-5.14-3.18-7.32-4.58a150.65,150.65,0,0,1-14.4-10.9c-2.63-2.3-6.05-5.46-8.53-7.92-2-2-4.58-4.64-6.37-6.78-2.85-3.41-6.59-8-9.24-11.59-1.81-2.44-4-5.87-5.64-8.42a139.45,139.45,0,0,1-9.05-16.87,149.92,149.92,0,0,1-8-22.09,136.31,136.31,0,0,1-4.38-22.37c-.4-4.76-.88-11.11-1-15.89-.07-3.56.17-8.3.38-11.86.43-7.23,2.23-16.77,3.68-23.88A136.22,136.22,0,0,1,123,234.24c1.15-3.44,3.09-7.89,4.41-11.27a142.19,142.19,0,0,1,6.8-13.58A150.81,150.81,0,0,1,147.22,190a170.93,170.93,0,0,1,15-16.23A129,129,0,0,1,176,162.51c2.59-1.8,6-4.25,8.72-5.89,3.59-2.19,8.45-5,12.24-6.88a176.64,176.64,0,0,1,17.66-7.48c3.06-1.06,7.19-2.34,10.31-3.2,2.78-.76,6.51-1.7,9.34-2.21,2.39-.44,5.58-1.11,8-1.41s5.52-.73,7.89-.95,5.55-.42,7.93-.53,5.3-.19,7.56-.12c4.26.14,9.94.43,14.19.83,2.09.19,4.86.58,6.93.9s4.81.86,6.87,1.23,4.8,1.06,6.85,1.57a146.62,146.62,0,0,1,18.58,6c2.11.84,4.91,2,7,3,4,2,9.35,4.67,13.26,6.88,2.25,1.28,5.16,3.13,7.32,4.58,2.38,1.59,5.52,3.77,7.77,5.54,2,1.59,4.7,3.68,6.62,5.36,2.63,2.3,6.11,5.41,8.54,7.91,1.95,2,4.56,4.66,6.37,6.79,2.87,3.39,6.59,8,9.24,11.59a153.7,153.7,0,0,1,10.78,17.37,151.54,151.54,0,0,1,8.06,18c1.28,3.57,2.86,8.37,3.89,12,.92,3.28,1.94,7.7,2.6,11a189.94,189.94,0,0,1,2.66,22.95,112.94,112.94,0,0,1-.27,16.14A226.25,226.25,0,0,1,409.14,317.37Z"/></clipPath><clipPath id="clip-path-4"><path class="cls-1" d="M307.33,140.28c2.08.66,4.85,1.51,6.89,2.28,3.47,1.31,8.09,3.06,11.45,4.64,4.06,1.9,9.34,4.68,13.27,6.85,2.15,1.19,4.93,2.94,7,4.32s5.12,3.41,7.19,5c4,3.19,9.32,7.57,13.13,11,2.4,2.19,5.4,5.33,7.61,7.72,1.93,2.08,4.33,5,6.16,7.15,2.54,3,5.56,7.3,7.78,10.54,1.74,2.53,3.82,6.05,5.42,8.67a126.46,126.46,0,0,1,7.36,14.5,168.33,168.33,0,0,1,6.83,18.81A146.64,146.64,0,0,1,412,264.11c.39,4,.92,9.25,1.09,13.23.15,3.54.11,8.26,0,11.8A184.39,184.39,0,0,1,410.11,313a114.41,114.41,0,0,1-4.27,16.11c-1.24,3.42-2.79,8-4.22,11.37-1.73,4.05-4.29,9.34-6.31,13.25a143.06,143.06,0,0,1-12.69,19.7c-2.66,3.43-6.41,7.86-9.33,11.07-2.26,2.49-5.55,5.54-7.93,7.91-4.51,4.49-11.38,9.56-16.57,13.25a140.27,140.27,0,0,1-14.47,8.81c-5.14,2.7-12.25,5.81-17.63,8-3.47,1.4-8.27,2.82-11.85,3.91-3,.92-7.13,1.94-10.23,2.53-4.75.91-11.1,2-15.91,2.46a147.91,147.91,0,0,1-30.42-.07c-1.53-.15-7.06-.75-13.95-2.16-4.59-.93-9.22-2.1-13.74-3.48,2.48.76,7.65-7.24,15.35-24.8-7.7,17.56-12.87,25.56-15.35,24.8-2.06-.68-4.85-1.51-6.89-2.27-3.46-1.31-8.09-3.06-11.44-4.64-4.06-1.9-9.35-4.68-13.27-6.85-2.16-1.19-4.93-2.94-7-4.32-2.19-1.47-5.13-3.41-7.2-5.05-4-3.19-9.31-7.57-13.12-11-2.41-2.19-5.4-5.34-7.61-7.72-1.93-2.08-4.34-5-6.17-7.16-2.53-3-5.55-7.29-7.78-10.53-1.73-2.53-3.82-6.06-5.42-8.68a125.51,125.51,0,0,1-7.36-14.49,168.33,168.33,0,0,1-6.83-18.81,146.64,146.64,0,0,1-4.61-22.28c-.39-4-.92-9.25-1.09-13.23-.15-3.54-.11-8.27,0-11.81a184.26,184.26,0,0,1,3-23.86,111.75,111.75,0,0,1,4.27-16.11c1.24-3.42,2.78-8,4.21-11.37,1.73-4,4.29-9.34,6.31-13.25a143.13,143.13,0,0,1,12.7-19.7c2.66-3.44,6.41-7.86,9.33-11.08,2.26-2.48,5.55-5.53,7.93-7.9C167.08,169,174,164,179.14,160.27a140.27,140.27,0,0,1,14.47-8.81c5.13-2.7,12.24-5.81,17.63-8,3.47-1.4,8.27-2.83,11.85-3.91,3-.92,7.12-1.94,10.23-2.53,4.74-.91,11.1-2,15.9-2.46a147.37,147.37,0,0,1,30.42.07c1.53.15,7.07.75,14,2.15C301.22,138.35,307.09,140.21,307.33,140.28Z"/></clipPath><clipPath id="clip-path-5"><path class="cls-1" d="M220.3,426.61c2.5.76,7.7-7.3,15.46-25-7.76,17.67-13,25.73-15.46,25-3.56-1.15-8.27-2.79-11.77-4.12-2.14-.81-4.93-2-7-3-4.08-1.93-9.4-4.74-13.34-6.93-2.28-1.27-5.18-3.2-7.37-4.61a149.51,149.51,0,0,1-14.5-11c-2.64-2.31-6.09-5.49-8.59-8-2-2-4.61-4.68-6.41-6.83-2.87-3.44-6.63-8.08-9.3-11.67-1.83-2.46-4-5.91-5.68-8.48a139.14,139.14,0,0,1-9.11-17,150.57,150.57,0,0,1-8.09-22.23,136.46,136.46,0,0,1-4.41-22.52c-.41-4.8-.89-11.19-1-16-.08-3.58.16-8.36.37-11.94.44-7.28,2.25-16.89,3.7-24a137.31,137.31,0,0,1,4.2-14.42c1.16-3.47,3.1-7.95,4.44-11.35a138.33,138.33,0,0,1,6.84-13.67,150.43,150.43,0,0,1,13.15-19.48,173.24,173.24,0,0,1,15.14-16.34,128.41,128.41,0,0,1,13.8-11.37c2.61-1.82,6.06-4.28,8.77-5.93,3.63-2.21,8.52-5.06,12.33-6.93a176.7,176.7,0,0,1,17.78-7.53c3.08-1.07,7.24-2.36,10.38-3.22,2.79-.77,6.55-1.71,9.4-2.23,2.41-.44,5.61-1.12,8.05-1.41s5.55-.74,7.94-1,5.58-.43,8-.54a149.94,149.94,0,0,1,21.93.72c4.17.51,9.72,1.4,13.86,2.15,2.09.37,4.85,1,6.89,1.57,3.59,1,8.37,2.3,11.87,3.52,4.12,1.44,9.52,3.64,13.52,5.37,2.16.93,4.95,2.34,7,3.42s4.64,2.55,6.62,3.65c2.28,1.27,5.17,3.2,7.37,4.61a150.56,150.56,0,0,1,14.49,11c2.65,2.32,6.09,5.5,8.6,8,2,2,4.57,4.7,6.4,6.83a149.21,149.21,0,0,1,15,20.15,138.51,138.51,0,0,1,9.11,17,149.08,149.08,0,0,1,12.5,44.75c.48,4.79.89,11.19,1,16,.08,3.58-.26,8.35-.38,11.93-.23,7.3-2.23,16.9-3.7,24.05A127.68,127.68,0,0,1,405.92,332c-1.19,3.46-2.94,8-4.44,11.35A147.77,147.77,0,0,1,394.63,357c-8.57,14.34-10.94,17.12-20.32,27.83a100,100,0,0,1-8,8c-4,3.56-9.51,8.15-13.8,11.37-2.54,1.91-6.07,4.28-8.78,5.93-3.62,2.21-8.54,5-12.32,6.92-5.16,2.64-12.37,5.47-17.79,7.54-3,1.16-7.24,2.32-10.37,3.22-2.79.79-6.55,1.72-9.4,2.23-2.42.43-5.63,1.06-8.05,1.41s-5.85.79-8.36,1a148,148,0,0,1-29.46-.22c-2-.21-7.45-.83-13.89-2.15C229.93,429.26,224.42,427.76,220.3,426.61Z"/></clipPath><clipPath id="clip-path-6"><path class="cls-1" d="M401.48,343.37a175.72,175.72,0,0,1-11.33,21.08c-1.93,2.94-4.58,6.82-6.74,9.59A135.33,135.33,0,0,1,374,385.19c-2.38,2.4-5.42,5.75-8,8-4.85,4.19-11.48,9.61-16.68,13.34-2.57,1.84-6.12,4.11-8.87,5.66-4.28,2.42-10.07,5.5-14.54,7.56-3.61,1.65-8.52,3.65-12.29,4.91-5,1.68-11.87,3.63-17,4.87-2.93.69-6.88,1.46-9.87,1.85-2.38.32-5.56.78-7.95,1s-5.93.45-8.47.61a152.73,152.73,0,0,1-22.31-.7c-7.35-.93-8.88-1.13-13.89-2.15-1.73-.35-7-1.43-13.83-3.5-3.82-1.16-1.32-23,8.09-62.54,15.55-65.43,44.16-155,63.78-199.77C272.55,209,243.94,298.64,228.39,364.07c-9.41,39.57-11.91,61.38-8.09,62.54-2.08-.69-4.88-1.52-6.93-2.29-3.49-1.32-8.15-3.09-11.53-4.67-4.08-1.91-9.4-4.72-13.35-6.9-2.17-1.19-5-3-7-4.35s-5.16-3.43-7.24-5.08c-4.06-3.21-9.38-7.62-13.21-11.1-2.43-2.2-5.44-5.37-7.67-7.77-1.94-2.09-4.36-5-6.2-7.2-2.56-3-5.6-7.35-7.84-10.61-1.74-2.54-3.84-6.09-5.45-8.73a125.65,125.65,0,0,1-7.41-14.59,168.69,168.69,0,0,1-6.88-18.94A147.14,147.14,0,0,1,114.93,302c-.39-4-.93-9.31-1.1-13.31-.15-3.57-.1-8.33,0-11.89a186.89,186.89,0,0,1,3-24,113.5,113.5,0,0,1,4.3-16.21c1.25-3.44,2.8-8.08,4.24-11.45,1.74-4.07,4.32-9.4,6.35-13.34a145.61,145.61,0,0,1,12.78-19.83c2.68-3.45,6.45-7.91,9.4-11.14,2.27-2.51,5.58-5.58,8-8,4.54-4.52,11.45-9.63,16.68-13.34a141.38,141.38,0,0,1,14.56-8.87c2.62-1.37,6.14-3.16,8.85-4.35,3.63-1.59,8.55-3.56,12.28-4.91a155.11,155.11,0,0,1,18.85-5.26c4.77-.93,11.19-1.87,16-2.48,2.53-.32,5.93-.47,8.47-.6,2.36-.13,5.51-.21,7.88-.14,4.29.13,10,.38,14.28.82a145.76,145.76,0,0,1,20.94,3.74c2.09.53,4.87,1.3,6.93,1.93s4.86,1.6,6.94,2.29,4.78,1.76,6.79,2.62c3.49,1.48,8.07,3.62,11.46,5.31,2.13,1,4.9,2.58,6.93,3.81,4.09,2.48,9.41,6,13.32,8.78,2.29,1.61,5.18,4,7.33,5.78a145.48,145.48,0,0,1,14.18,13.57c2.53,2.81,5.79,6.66,8.13,9.63,1.87,2.37,4.26,5.64,5.91,8.17a149,149,0,0,1,12.87,23.33,143.63,143.63,0,0,1,6.87,18.94A157.19,157.19,0,0,1,413,264c.48,4,.93,9.31,1.1,13.31.15,3.56,0,8.32,0,11.89-.13,7.26-1.68,16.88-3,24a139.83,139.83,0,0,1-4.3,16.22A147.47,147.47,0,0,1,401.48,343.37Z"/></clipPath></defs><g id="Calque_2" data-name="Calque 2"><g class="cls-2"><g class="cls-2"><g class="cls-3"><g class="cls-2"><path class="cls-4" d="M235.94,400.85c-19.48,44.42-22.76,27.68-7.31-37.32,78.53,23.88,158,7.17,177.54-37.32C390.72,391.21,314.36,424.69,235.94,400.85Z"/><path class="cls-4" d="M222,425.36c39.61,12.05,79.7,3.62,89.54-18.82"/><path class="cls-4" d="M219.33,412c67.8,20.62,136.42,6.2,153.26-32.21"/><path class="cls-4" d="M235.94,400.85c22.76,50.39,53.84,38.51,69.28-26.49"/><path class="cls-4" d="M235.94,400.85c57.88,43,117.53,25.12,133-39.88"/><path class="cls-4" d="M235.94,400.85c78.42,23.84,154.78-9.64,170.23-74.64,19.51-44.49-28.33-99.92-106.87-123.8C283.85,267.41,255.43,356.43,235.94,400.85Z"/><path class="cls-4" d="M311.49,406.54c9.85-22.44-14.29-50.39-53.89-62.44"/><path class="cls-4" d="M372.59,379.75c16.85-38.41-24.45-86.26-92.25-106.88"/><path class="cls-4" d="M235.94,400.85c77.54-1.83,153.2-56.2,168.65-121.2"/><path class="cls-4" d="M235.94,400.85c56.4-26.32,114.86-100.62,130.31-165.62"/><path class="cls-4" d="M235.94,400.85c19.49-44.42,47.91-133.44,63.36-198.44-78.54-23.88-158-7.18-177.54,37.32C106.31,304.72,157.53,377,235.94,400.85Z"/><path class="cls-4" d="M257.6,344.1c-39.61-12-79.7-3.62-89.54,18.82"/><path class="cls-4" d="M280.34,272.87c-67.8-20.61-136.42-6.19-153.27,32.22"/><path class="cls-4" d="M235.94,400.85c-22.75-50.39-28.69-144.27-13.24-209.27"/><path class="cls-4" d="M235.94,400.85C178.07,357.84,143.56,270,159,205"/><path class="cls-4" d="M235.94,400.85C157.53,377,106.31,304.72,121.76,239.73c-19.52,44.49,28.33,99.92,106.87,123.8C213.18,428.53,216.46,445.27,235.94,400.85Z"/><path class="cls-4" d="M168.06,362.92c-9.84,22.44,14.29,50.4,53.89,62.44"/><path class="cls-4" d="M127.07,305.09C110.22,343.5,151.53,391.35,219.33,412"/><path class="cls-4" d="M235.94,400.85c-77.54,1.83-128-49.56-112.6-114.56"/><path class="cls-4" d="M235.94,400.85c-56.4,26.32-89.71-5.15-74.26-70.15"/><path class="cls-4" d="M228.63,363.53c15.45-65,43.87-154,63.35-198.44,78.41,23.84,129.64,96.12,114.19,161.12C386.65,370.7,307.16,387.41,228.63,363.53Z"/><path class="cls-4" d="M247.59,293.06c67.8,20.62,136.42,6.2,153.26-32.21"/><path class="cls-4" d="M305.22,374.36c15.45-65,9.51-158.88-13.24-209.27"/><path class="cls-4" d="M368.92,361C384.37,296,349.85,208.1,292,165.09"/><path class="cls-4" d="M406.17,326.21c15.45-65-35.78-137.28-114.19-161.12,19.48-44.42,22.77-27.68,7.32,37.32C377.84,226.29,425.68,281.72,406.17,326.21Z"/><path class="cls-4" d="M400.85,260.85C417.7,222.44,376.4,174.59,308.6,154"/><path class="cls-4" d="M404.59,279.65C420,214.65,369.52,163.26,292,165.09"/><path class="cls-4" d="M366.25,235.23c15.45-65-17.87-96.46-74.27-70.14"/><path class="cls-4" d="M299.3,202.41c15.45-65,12.16-81.74-7.32-37.32-78.41-23.85-154.77,9.64-170.22,74.64C141.27,195.23,220.76,178.53,299.3,202.41Z"/><path class="cls-4" d="M308.6,154c-67.8-20.61-136.42-6.19-153.27,32.22"/><path class="cls-4" d="M222.7,191.58c15.45-65,46.53-76.88,69.28-26.49"/><path class="cls-4" d="M159,205c15.45-65,75.1-82.89,133-39.88"/><path class="cls-4" d="M121.76,239.73c15.45-65,91.81-98.49,170.22-74.64-19.48,44.42-47.9,133.44-63.35,198.44C150.09,339.65,102.24,284.22,121.76,239.73Z"/><path class="cls-4" d="M155.33,186.19c-16.85,38.41,24.46,86.26,92.26,106.87"/><path class="cls-4" d="M123.34,286.29c15.45-65,91.1-119.37,168.64-121.2"/><path class="cls-4" d="M161.68,330.7c15.45-65,73.9-139.29,130.3-165.61"/></g><path class="cls-4" d="M220.59,425.65c2.48.76,7.65-7.24,15.35-24.8-7.7,17.56-12.87,25.56-15.35,24.8-3.54-1.14-8.22-2.77-11.7-4.09-2.11-.8-4.89-2-6.94-3-4.06-1.91-9.34-4.7-13.26-6.88-2.26-1.26-5.14-3.18-7.32-4.58a150.65,150.65,0,0,1-14.4-10.9c-2.63-2.3-6.05-5.46-8.53-7.92-2-2-4.58-4.64-6.37-6.78-2.85-3.41-6.59-8-9.24-11.59-1.81-2.44-4-5.87-5.64-8.42a139.45,139.45,0,0,1-9.05-16.87,149.92,149.92,0,0,1-8-22.09,136.31,136.31,0,0,1-4.38-22.37c-.4-4.76-.88-11.11-1-15.89-.07-3.56.17-8.3.38-11.86.43-7.23,2.23-16.77,3.68-23.88A136.22,136.22,0,0,1,123,234.24c1.15-3.44,3.09-7.89,4.41-11.27a142.19,142.19,0,0,1,6.8-13.58A150.81,150.81,0,0,1,147.22,190a170.93,170.93,0,0,1,15-16.23A129,129,0,0,1,176,162.51c2.59-1.8,6-4.25,8.72-5.89,3.59-2.19,8.45-5,12.24-6.88a176.64,176.64,0,0,1,17.66-7.48c3.06-1.06,7.19-2.34,10.31-3.2,2.78-.76,6.51-1.7,9.34-2.21,2.39-.44,5.58-1.11,8-1.41s5.52-.73,7.89-.95,5.55-.42,7.93-.53a149.82,149.82,0,0,1,21.78.71c2.07.25,4.84.58,6.9.9s4.81.86,6.87,1.23,4.82,1,6.85,1.57c3.56,1,8.31,2.28,11.79,3.5,4.09,1.43,9.45,3.61,13.43,5.33,2.14.92,4.92,2.32,7,3.39s4.61,2.54,6.58,3.63c2.26,1.26,5.13,3.18,7.32,4.58A149,149,0,0,1,361,169.7c2.63,2.3,6.05,5.46,8.54,7.91,2,2,4.55,4.67,6.37,6.79a148.62,148.62,0,0,1,14.87,20,137.44,137.44,0,0,1,9,16.87,152.1,152.1,0,0,1,8.05,22.08,153.64,153.64,0,0,1,4.37,22.38c.47,4.75.89,11.11,1,15.89.08,3.56-.26,8.3-.37,11.85-.24,7.25-2.22,16.78-3.68,23.89A126,126,0,0,1,405,331.69c-1.18,3.44-2.91,8-4.41,11.28a145.79,145.79,0,0,1-6.8,13.58c-8.52,14.25-10.87,17-20.18,27.65a100.32,100.32,0,0,1-7.91,7.93c-4,3.54-9.45,8.09-13.71,11.3-2.52,1.89-6,4.24-8.72,5.89-3.6,2.19-8.49,5-12.24,6.87-5.13,2.62-12.29,5.44-17.67,7.49-3,1.15-7.19,2.31-10.31,3.2-2.76.79-6.5,1.7-9.33,2.21-2.4.43-5.59,1.05-8,1.41s-5.8.77-8.3,1a147.53,147.53,0,0,1-29.26-.22c-2-.21-7.4-.83-13.8-2.14-2.07-.42-4.81-1-6.85-1.56S222.66,426.23,220.59,425.65Z"/></g></g><g class="cls-2"><g class="cls-5"><g class="cls-2"><path class="cls-4" d="M235.94,400.85c-19.48,44.42-22.76,27.68-7.31-37.32,78.53,23.88,158,7.17,177.54-37.32C390.72,391.21,314.36,424.69,235.94,400.85Z"/><path class="cls-4" d="M219.33,412c67.8,20.62,136.42,6.2,153.26-32.21"/><path class="cls-4" d="M235.94,400.85c22.76,50.39,53.84,38.51,69.28-26.49"/><path class="cls-4" d="M235.94,400.85c57.88,43,117.53,25.12,133-39.88"/><path class="cls-4" d="M235.94,400.85c78.42,23.84,154.78-9.64,170.23-74.64,19.51-44.49-28.33-99.92-106.87-123.8C283.85,267.41,255.43,356.43,235.94,400.85Z"/><path class="cls-4" d="M372.59,379.75c16.85-38.41-24.45-86.26-92.25-106.88"/><path class="cls-4" d="M235.94,400.85c77.54-1.83,153.2-56.2,168.65-121.2"/><path class="cls-4" d="M235.94,400.85c56.4-26.32,114.86-100.62,130.31-165.62"/><path class="cls-4" d="M235.94,400.85c19.49-44.42,47.91-133.44,63.36-198.44-78.54-23.88-158-7.18-177.54,37.32C106.31,304.72,157.53,377,235.94,400.85Z"/><path class="cls-4" d="M280.34,272.87c-67.8-20.61-136.42-6.19-153.27,32.22"/><path class="cls-4" d="M235.94,400.85c-22.75-50.39-28.69-144.27-13.24-209.27"/><path class="cls-4" d="M235.94,400.85C178.07,357.84,143.56,270,159,205"/><path class="cls-4" d="M235.94,400.85C157.53,377,106.31,304.72,121.76,239.73c-19.52,44.49,28.33,99.92,106.87,123.8C213.18,428.53,216.46,445.27,235.94,400.85Z"/><path class="cls-4" d="M127.07,305.09C110.22,343.5,151.53,391.35,219.33,412"/><path class="cls-4" d="M235.94,400.85c-77.54,1.83-128-49.56-112.6-114.56"/><path class="cls-4" d="M235.94,400.85c-56.4,26.32-89.71-5.15-74.26-70.15"/><path class="cls-4" d="M228.63,363.53c15.45-65,43.87-154,63.35-198.44,78.41,23.84,129.64,96.12,114.19,161.12C386.65,370.7,307.16,387.41,228.63,363.53Z"/><path class="cls-4" d="M247.59,293.06c67.8,20.62,136.42,6.2,153.26-32.21"/><path class="cls-4" d="M270.33,221.83c39.61,12,79.7,3.62,89.54-18.82"/><path class="cls-4" d="M305.22,374.36c15.45-65,9.51-158.88-13.24-209.27"/><path class="cls-4" d="M368.92,361C384.37,296,349.85,208.1,292,165.09"/><path class="cls-4" d="M406.17,326.21c15.45-65-35.78-137.28-114.19-161.12,19.48-44.42,22.77-27.68,7.32,37.32C377.84,226.29,425.68,281.72,406.17,326.21Z"/><path class="cls-4" d="M400.85,260.85C417.7,222.44,376.4,174.59,308.6,154"/><path class="cls-4" d="M359.87,203c9.84-22.43-14.29-50.39-53.9-62.43"/><path class="cls-4" d="M404.59,279.65C420,214.65,369.52,163.26,292,165.09"/><path class="cls-4" d="M366.25,235.23c15.45-65-17.87-96.46-74.27-70.14"/><path class="cls-4" d="M299.3,202.41c15.45-65,12.16-81.74-7.32-37.32-78.41-23.85-154.77,9.64-170.22,74.64C141.27,195.23,220.76,178.53,299.3,202.41Z"/><path class="cls-4" d="M308.6,154c-67.8-20.61-136.42-6.19-153.27,32.22"/><path class="cls-4" d="M306,140.58c-39.61-12.05-79.7-3.62-89.54,18.82"/><path class="cls-4" d="M222.7,191.58c15.45-65,46.53-76.88,69.28-26.49"/><path class="cls-4" d="M159,205c15.45-65,75.1-82.89,133-39.88"/><path class="cls-4" d="M121.76,239.73c15.45-65,91.81-98.49,170.22-74.64-19.48,44.42-47.9,133.44-63.35,198.44C150.09,339.65,102.24,284.22,121.76,239.73Z"/><path class="cls-4" d="M155.33,186.19c-16.85,38.41,24.46,86.26,92.26,106.87"/><path class="cls-4" d="M216.43,159.4c-9.84,22.44,14.29,50.39,53.9,62.43"/><path class="cls-4" d="M123.34,286.29c15.45-65,91.1-119.37,168.64-121.2"/><path class="cls-4" d="M161.68,330.7c15.45-65,73.9-139.29,130.3-165.61"/></g><path class="cls-4" d="M400.56,343a173.37,173.37,0,0,1-11.25,20.94c-1.92,2.92-4.55,6.77-6.69,9.53a137.17,137.17,0,0,1-9.33,11.07c-2.37,2.39-5.39,5.71-7.93,7.91-4.82,4.16-11.4,9.54-16.57,13.25-2.55,1.83-6.08,4.08-8.8,5.63-4.26,2.4-10,5.46-14.46,7.5-3.58,1.64-8.46,3.63-12.2,4.88-5,1.67-11.79,3.61-16.93,4.83-2.91.7-6.83,1.46-9.8,1.85-2.37.31-5.52.77-7.9,1s-5.88.44-8.41.6a150.6,150.6,0,0,1-22.16-.69c-7.31-.93-8.83-1.12-13.8-2.14-1.72-.35-7-1.41-13.74-3.48-3.8-1.15-1.31-22.81,8-62.12,15.45-65,43.87-154,63.35-198.44-19.48,44.42-47.9,133.44-63.35,198.44-9.35,39.31-11.84,61-8,62.12h0c-2.06-.68-4.85-1.51-6.89-2.27-3.46-1.31-8.09-3.06-11.44-4.64-4.06-1.9-9.35-4.68-13.27-6.85-2.16-1.19-4.93-2.94-7-4.32-2.19-1.47-5.13-3.41-7.2-5.05-4-3.19-9.31-7.57-13.12-11-2.41-2.19-5.4-5.34-7.61-7.72-1.93-2.08-4.34-5-6.17-7.16-2.53-3-5.55-7.29-7.78-10.53-1.73-2.53-3.82-6.06-5.42-8.68a125.51,125.51,0,0,1-7.36-14.49,168.33,168.33,0,0,1-6.83-18.81,146.64,146.64,0,0,1-4.61-22.28c-.39-4-.92-9.25-1.09-13.23-.15-3.54-.11-8.27,0-11.81a184.26,184.26,0,0,1,3-23.86,111.75,111.75,0,0,1,4.27-16.11c1.24-3.42,2.78-8,4.21-11.37,1.73-4,4.29-9.34,6.31-13.25a143.13,143.13,0,0,1,12.7-19.7c2.66-3.44,6.41-7.86,9.33-11.08,2.26-2.48,5.55-5.53,7.93-7.9C167.08,169,174,164,179.14,160.27a140.27,140.27,0,0,1,14.47-8.81c2.59-1.37,6.09-3.14,8.78-4.32,3.61-1.58,8.5-3.54,12.2-4.88A153.3,153.3,0,0,1,233.32,137c4.74-.93,11.11-1.86,15.9-2.46,2.51-.32,5.89-.48,8.41-.61,2.35-.12,5.48-.2,7.83-.13,4.26.13,9.94.37,14.18.81a145.35,145.35,0,0,1,20.81,3.72c2.08.53,4.83,1.29,6.88,1.91s4.83,1.6,6.89,2.28,4.76,1.75,6.75,2.6c3.47,1.47,8,3.6,11.38,5.28,2.11,1,4.87,2.56,6.89,3.78,4.06,2.47,9.34,6,13.23,8.73,2.27,1.6,5.15,4,7.28,5.73a146.14,146.14,0,0,1,14.09,13.48c2.51,2.79,5.75,6.62,8.07,9.57,1.86,2.36,4.23,5.6,5.87,8.12A147,147,0,0,1,400.56,223a142.22,142.22,0,0,1,6.83,18.81A156.76,156.76,0,0,1,412,264.11c.48,3.95.92,9.25,1.09,13.23.15,3.54,0,8.26,0,11.8-.12,7.22-1.67,16.77-2.95,23.87a138.46,138.46,0,0,1-4.27,16.11A144.58,144.58,0,0,1,400.56,343Z"/></g></g><g class="cls-2"><g class="cls-6"><g class="cls-2"><path class="cls-4" d="M292,165.09c-19.48,44.42-47.9,133.44-63.35,198.44,78.53,23.88,158,7.17,177.54-37.32C421.62,261.21,370.39,188.93,292,165.09Z"/><path class="cls-4" d="M270.33,221.83c39.61,12,79.7,3.62,89.54-18.82"/><path class="cls-4" d="M247.59,293.06c67.8,20.62,136.42,6.2,153.26-32.21"/><path class="cls-4" d="M292,165.09c22.75,50.39,28.69,144.27,13.24,209.27"/><path class="cls-4" d="M292,165.09C349.85,208.1,384.37,296,368.92,361"/><path class="cls-4" d="M292,165.09c78.41,23.84,129.64,96.12,114.19,161.12,19.51-44.49-28.33-99.92-106.87-123.8C314.75,137.41,311.46,120.67,292,165.09Z"/><path class="cls-4" d="M359.87,203c9.84-22.43-14.29-50.39-53.9-62.43"/><path class="cls-4" d="M400.85,260.85C417.7,222.44,376.4,174.59,308.6,154"/><path class="cls-4" d="M292,165.09c77.54-1.83,128.06,49.56,112.61,114.56"/><path class="cls-4" d="M292,165.09c56.4-26.32,89.72,5.14,74.27,70.14"/><path class="cls-4" d="M292,165.09c19.48-44.42,22.77-27.68,7.32,37.32-78.54-23.88-158-7.18-177.54,37.32C137.21,174.73,213.57,141.24,292,165.09Z"/><path class="cls-4" d="M306,140.58c-39.61-12.05-79.7-3.62-89.54,18.82"/><path class="cls-4" d="M308.6,154c-67.8-20.61-136.42-6.19-153.27,32.22"/><path class="cls-4" d="M292,165.09c-22.75-50.39-53.83-38.51-69.28,26.49"/><path class="cls-4" d="M292,165.09C234.11,122.08,174.46,140,159,205"/><path class="cls-4" d="M292,165.09c-78.41-23.85-154.77,9.64-170.22,74.64-19.52,44.49,28.33,99.92,106.87,123.8C244.08,298.53,272.5,209.51,292,165.09Z"/><path class="cls-4" d="M216.43,159.4c-9.84,22.44,14.29,50.39,53.9,62.43"/><path class="cls-4" d="M155.33,186.19c-16.85,38.41,24.46,86.26,92.26,106.87"/><path class="cls-4" d="M292,165.09c-77.54,1.83-153.19,56.2-168.64,121.2"/><path class="cls-4" d="M292,165.09c-56.4,26.32-114.85,100.62-130.3,165.61"/><path class="cls-4" d="M228.63,363.53c-15.45,65-12.17,81.74,7.31,37.32,78.42,23.84,154.78-9.64,170.23-74.64C386.65,370.7,307.16,387.41,228.63,363.53Z"/><path class="cls-4" d="M219.33,412c67.8,20.62,136.42,6.2,153.26-32.21"/><path class="cls-4" d="M305.22,374.36c-15.44,65-46.52,76.88-69.28,26.49"/><path class="cls-4" d="M368.92,361c-15.45,65-75.1,82.89-133,39.88"/><path class="cls-4" d="M406.17,326.21c-15.45,65-91.81,98.48-170.23,74.64,19.49-44.42,47.91-133.44,63.36-198.44C377.84,226.29,425.68,281.72,406.17,326.21Z"/><path class="cls-4" d="M372.59,379.75c16.85-38.41-24.45-86.26-92.25-106.88"/><path class="cls-4" d="M404.59,279.65c-15.45,65-91.11,119.37-168.65,121.2"/><path class="cls-4" d="M366.25,235.23c-15.45,65-73.91,139.3-130.31,165.62"/><path class="cls-4" d="M299.3,202.41c-15.45,65-43.87,154-63.36,198.44C157.53,377,106.31,304.72,121.76,239.73,141.27,195.23,220.76,178.53,299.3,202.41Z"/><path class="cls-4" d="M280.34,272.87c-67.8-20.61-136.42-6.19-153.27,32.22"/><path class="cls-4" d="M222.7,191.58c-15.45,65-9.51,158.88,13.24,209.27"/><path class="cls-4" d="M159,205c-15.45,65,19.06,152.87,76.93,195.88"/><path class="cls-4" d="M121.76,239.73c-15.45,65,35.77,137.27,114.18,161.12-19.48,44.42-22.76,27.68-7.31-37.32C150.09,339.65,102.24,284.22,121.76,239.73Z"/><path class="cls-4" d="M127.07,305.09C110.22,343.5,151.53,391.35,219.33,412"/><path class="cls-4" d="M123.34,286.29c-15.45,65,35.06,116.39,112.6,114.56"/><path class="cls-4" d="M161.68,330.7c-15.45,65,17.86,96.47,74.26,70.15"/></g><path class="cls-4" d="M409.14,317.37a150.81,150.81,0,0,1-9.92,28.56,144.83,144.83,0,0,1-18.51,30c-4.06,5.26-10.35,11.54-15,16.24-2.33,2.34-5.8,5.08-8.34,7.19a170,170,0,0,1-14.09,10c-2.58,1.7-6.24,3.62-8.92,5.16a103,103,0,0,1-12.14,5.78c-2.64,1.05-6.16,2.49-8.85,3.42-3.06,1.06-7.2,2.27-10.31,3.2a95.8,95.8,0,0,1-9.33,2.21c-4.74.86-11.09,1.89-15.88,2.36a150.77,150.77,0,0,1-15.34.65c-6.55,0-12.21-.61-14.34-.83-1.55-.16-7.13-.78-13.81-2.14-4.16-.85-9.63-2.34-13.73-3.48-3.8-1.15-1.31-22.81,8-62.12,15.45-65,43.87-154,63.35-198.44-19.48,44.42-47.9,133.44-63.35,198.44-9.35,39.31-11.84,61-8,62.12-3.54-1.14-8.22-2.77-11.7-4.09-2.11-.8-4.89-2-6.94-3-4.06-1.91-9.34-4.7-13.26-6.88-2.26-1.26-5.14-3.18-7.32-4.58a150.65,150.65,0,0,1-14.4-10.9c-2.63-2.3-6.05-5.46-8.53-7.92-2-2-4.58-4.64-6.37-6.78-2.85-3.41-6.59-8-9.24-11.59-1.81-2.44-4-5.87-5.64-8.42a139.45,139.45,0,0,1-9.05-16.87,149.92,149.92,0,0,1-8-22.09,136.31,136.31,0,0,1-4.38-22.37c-.4-4.76-.88-11.11-1-15.89-.07-3.56.17-8.3.38-11.86.43-7.23,2.23-16.77,3.68-23.88A136.22,136.22,0,0,1,123,234.24c1.15-3.44,3.09-7.89,4.41-11.27a142.19,142.19,0,0,1,6.8-13.58A150.81,150.81,0,0,1,147.22,190a170.93,170.93,0,0,1,15-16.23A129,129,0,0,1,176,162.51c2.59-1.8,6-4.25,8.72-5.89,3.59-2.19,8.45-5,12.24-6.88a176.64,176.64,0,0,1,17.66-7.48c3.06-1.06,7.19-2.34,10.31-3.2,2.78-.76,6.51-1.7,9.34-2.21,2.39-.44,5.58-1.11,8-1.41s5.52-.73,7.89-.95,5.55-.42,7.93-.53,5.3-.19,7.56-.12c4.26.14,9.94.43,14.19.83,2.09.19,4.86.58,6.93.9s4.81.86,6.87,1.23,4.8,1.06,6.85,1.57a146.62,146.62,0,0,1,18.58,6c2.11.84,4.91,2,7,3,4,2,9.35,4.67,13.26,6.88,2.25,1.28,5.16,3.13,7.32,4.58,2.38,1.59,5.52,3.77,7.77,5.54,2,1.59,4.7,3.68,6.62,5.36,2.63,2.3,6.11,5.41,8.54,7.91,1.95,2,4.56,4.66,6.37,6.79,2.87,3.39,6.59,8,9.24,11.59a153.7,153.7,0,0,1,10.78,17.37,151.54,151.54,0,0,1,8.06,18c1.28,3.57,2.86,8.37,3.89,12,.92,3.28,1.94,7.7,2.6,11a189.94,189.94,0,0,1,2.66,22.95,112.94,112.94,0,0,1-.27,16.14A226.25,226.25,0,0,1,409.14,317.37Z"/></g></g><g class="cls-2"><g class="cls-7"><g class="cls-2"><path class="cls-4" d="M292,165.09c-19.48,44.42-47.9,133.44-63.35,198.44,78.53,23.88,158,7.17,177.54-37.32C421.62,261.21,370.39,188.93,292,165.09Z"/><path class="cls-4" d="M247.59,293.06c67.8,20.62,136.42,6.2,153.26-32.21"/><path class="cls-4" d="M292,165.09c22.75,50.39,28.69,144.27,13.24,209.27"/><path class="cls-4" d="M292,165.09C349.85,208.1,384.37,296,368.92,361"/><path class="cls-4" d="M292,165.09c78.41,23.84,129.64,96.12,114.19,161.12,19.51-44.49-28.33-99.92-106.87-123.8C314.75,137.41,311.46,120.67,292,165.09Z"/><path class="cls-4" d="M400.85,260.85C417.7,222.44,376.4,174.59,308.6,154"/><path class="cls-4" d="M292,165.09c77.54-1.83,128.06,49.56,112.61,114.56"/><path class="cls-4" d="M292,165.09c56.4-26.32,89.72,5.14,74.27,70.14"/><path class="cls-4" d="M292,165.09c19.48-44.42,22.77-27.68,7.32,37.32-78.54-23.88-158-7.18-177.54,37.32C137.21,174.73,213.57,141.24,292,165.09Z"/><path class="cls-4" d="M308.6,154c-67.8-20.61-136.42-6.19-153.27,32.22"/><path class="cls-4" d="M292,165.09c-22.75-50.39-53.83-38.51-69.28,26.49"/><path class="cls-4" d="M292,165.09C234.11,122.08,174.46,140,159,205"/><path class="cls-4" d="M292,165.09c-78.41-23.85-154.77,9.64-170.22,74.64-19.52,44.49,28.33,99.92,106.87,123.8C244.08,298.53,272.5,209.51,292,165.09Z"/><path class="cls-4" d="M155.33,186.19c-16.85,38.41,24.46,86.26,92.26,106.87"/><path class="cls-4" d="M292,165.09c-77.54,1.83-153.19,56.2-168.64,121.2"/><path class="cls-4" d="M292,165.09c-56.4,26.32-114.85,100.62-130.3,165.61"/><path class="cls-4" d="M228.63,363.53c-15.45,65-12.17,81.74,7.31,37.32,78.42,23.84,154.78-9.64,170.23-74.64C386.65,370.7,307.16,387.41,228.63,363.53Z"/><path class="cls-4" d="M219.33,412c67.8,20.62,136.42,6.2,153.26-32.21"/><path class="cls-4" d="M222,425.36c39.61,12.05,79.7,3.62,89.54-18.82"/><path class="cls-4" d="M305.22,374.36c-15.44,65-46.52,76.88-69.28,26.49"/><path class="cls-4" d="M368.92,361c-15.45,65-75.1,82.89-133,39.88"/><path class="cls-4" d="M406.17,326.21c-15.45,65-91.81,98.48-170.23,74.64,19.49-44.42,47.91-133.44,63.36-198.44C377.84,226.29,425.68,281.72,406.17,326.21Z"/><path class="cls-4" d="M372.59,379.75c16.85-38.41-24.45-86.26-92.25-106.88"/><path class="cls-4" d="M311.49,406.54c9.85-22.44-14.29-50.39-53.89-62.44"/><path class="cls-4" d="M404.59,279.65c-15.45,65-91.11,119.37-168.65,121.2"/><path class="cls-4" d="M366.25,235.23c-15.45,65-73.91,139.3-130.31,165.62"/><path class="cls-4" d="M299.3,202.41c-15.45,65-43.87,154-63.36,198.44C157.53,377,106.31,304.72,121.76,239.73,141.27,195.23,220.76,178.53,299.3,202.41Z"/><path class="cls-4" d="M280.34,272.87c-67.8-20.61-136.42-6.19-153.27,32.22"/><path class="cls-4" d="M257.6,344.1c-39.61-12-79.7-3.62-89.54,18.82"/><path class="cls-4" d="M222.7,191.58c-15.45,65-9.51,158.88,13.24,209.27"/><path class="cls-4" d="M159,205c-15.45,65,19.06,152.87,76.93,195.88"/><path class="cls-4" d="M121.76,239.73c-15.45,65,35.77,137.27,114.18,161.12-19.48,44.42-22.76,27.68-7.31-37.32C150.09,339.65,102.24,284.22,121.76,239.73Z"/><path class="cls-4" d="M127.07,305.09C110.22,343.5,151.53,391.35,219.33,412"/><path class="cls-4" d="M168.06,362.92c-9.84,22.44,14.29,50.4,53.89,62.44"/><path class="cls-4" d="M123.34,286.29c-15.45,65,35.06,116.39,112.6,114.56"/><path class="cls-4" d="M161.68,330.7c-15.45,65,17.86,96.47,74.26,70.15"/></g><path class="cls-4" d="M307.33,140.28c2.08.66,4.85,1.51,6.89,2.28,3.47,1.31,8.09,3.06,11.45,4.64,4.06,1.9,9.34,4.68,13.27,6.85,2.15,1.19,4.93,2.94,7,4.32s5.12,3.41,7.19,5c4,3.19,9.32,7.57,13.13,11,2.4,2.19,5.4,5.33,7.61,7.72,1.93,2.08,4.33,5,6.16,7.15,2.54,3,5.56,7.3,7.78,10.54,1.74,2.53,3.82,6.05,5.42,8.67a126.46,126.46,0,0,1,7.36,14.5,168.33,168.33,0,0,1,6.83,18.81A146.64,146.64,0,0,1,412,264.11c.39,4,.92,9.25,1.09,13.23.15,3.54.11,8.26,0,11.8A184.39,184.39,0,0,1,410.11,313a114.41,114.41,0,0,1-4.27,16.11c-1.24,3.42-2.79,8-4.22,11.37-1.73,4.05-4.29,9.34-6.31,13.25a143.06,143.06,0,0,1-12.69,19.7c-2.66,3.43-6.41,7.86-9.33,11.07-2.26,2.49-5.55,5.54-7.93,7.91-4.51,4.49-11.38,9.56-16.57,13.25a140.27,140.27,0,0,1-14.47,8.81c-5.14,2.7-12.25,5.81-17.63,8-3.47,1.4-8.27,2.82-11.85,3.91-3,.92-7.13,1.94-10.23,2.53-4.75.91-11.1,2-15.91,2.46a147.91,147.91,0,0,1-30.42-.07c-1.53-.15-7.06-.75-13.95-2.16-4.59-.93-9.22-2.1-13.74-3.48,2.48.76,7.65-7.24,15.35-24.8-7.7,17.56-12.87,25.56-15.35,24.8-2.06-.68-4.85-1.51-6.89-2.27-3.46-1.31-8.09-3.06-11.44-4.64-4.06-1.9-9.35-4.68-13.27-6.85-2.16-1.19-4.93-2.94-7-4.32-2.19-1.47-5.13-3.41-7.2-5.05-4-3.19-9.31-7.57-13.12-11-2.41-2.19-5.4-5.34-7.61-7.72-1.93-2.08-4.34-5-6.17-7.16-2.53-3-5.55-7.29-7.78-10.53-1.73-2.53-3.82-6.06-5.42-8.68a125.51,125.51,0,0,1-7.36-14.49,168.33,168.33,0,0,1-6.83-18.81,146.64,146.64,0,0,1-4.61-22.28c-.39-4-.92-9.25-1.09-13.23-.15-3.54-.11-8.27,0-11.81a184.26,184.26,0,0,1,3-23.86,111.75,111.75,0,0,1,4.27-16.11c1.24-3.42,2.78-8,4.21-11.37,1.73-4,4.29-9.34,6.31-13.25a143.13,143.13,0,0,1,12.7-19.7c2.66-3.44,6.41-7.86,9.33-11.08,2.26-2.48,5.55-5.53,7.93-7.9C167.08,169,174,164,179.14,160.27a140.27,140.27,0,0,1,14.47-8.81c5.13-2.7,12.24-5.81,17.63-8,3.47-1.4,8.27-2.83,11.85-3.91,3-.92,7.12-1.94,10.23-2.53,4.74-.91,11.1-2,15.9-2.46a147.37,147.37,0,0,1,30.42.07c1.53.15,7.07.75,14,2.15C301.22,138.35,307.09,140.21,307.33,140.28Z"/></g></g><g class="cls-2"><g class="cls-8"><g class="cls-2"><path class="cls-4" d="M235.76,401.64c-19.62,44.72-22.92,27.86-7.37-37.57,79.06,24,159.08,7.22,178.73-37.57C391.57,391.94,314.69,425.64,235.76,401.64Z"/><path class="cls-4" d="M221.67,426.31c39.88,12.13,80.23,3.65,90.14-18.94"/><path class="cls-4" d="M219,412.83c68.25,20.75,137.33,6.23,154.29-32.43"/><path class="cls-4" d="M235.76,401.64C258.66,452.37,290,440.4,305.5,375"/><path class="cls-4" d="M235.76,401.64c58.26,43.3,118.31,25.28,133.86-40.15"/><path class="cls-4" d="M235.76,401.64c78.93,24,155.81-9.7,171.36-75.14,19.65-44.79-28.52-100.59-107.58-124.63C284,267.3,255.37,356.92,235.76,401.64Z"/><path class="cls-4" d="M311.81,407.37c9.91-22.59-14.38-50.73-54.26-62.86"/><path class="cls-4" d="M373.32,380.4c17-38.67-24.62-86.84-92.87-107.59"/><path class="cls-4" d="M235.76,401.64c78.05-1.84,154.22-56.58,169.77-122"/><path class="cls-4" d="M235.76,401.64c56.77-26.5,115.62-101.29,131.17-166.73"/><path class="cls-4" d="M235.76,401.64C255.37,356.92,284,267.3,299.54,201.87c-79.07-24-159.09-7.22-178.73,37.57C105.25,304.87,156.82,377.64,235.76,401.64Z"/><path class="cls-4" d="M257.55,344.51c-39.87-12.12-80.23-3.64-90.13,18.95"/><path class="cls-4" d="M280.45,272.81c-68.26-20.76-137.34-6.24-154.3,32.43"/><path class="cls-4" d="M235.76,401.64C212.85,350.91,206.87,256.4,222.42,191"/><path class="cls-4" d="M235.76,401.64c-58.26-43.3-93-131.76-77.46-197.19"/><path class="cls-4" d="M235.76,401.64c-78.94-24-130.51-96.77-114.95-162.2C101.16,284.23,149.33,340,228.39,364.07,212.84,429.5,216.14,446.36,235.76,401.64Z"/><path class="cls-4" d="M167.42,363.46c-9.91,22.59,14.38,50.73,54.25,62.85"/><path class="cls-4" d="M126.15,305.24c-17,38.66,24.63,86.83,92.88,107.59"/><path class="cls-4" d="M235.76,401.64c-78.06,1.84-128.92-49.89-113.36-115.33"/><path class="cls-4" d="M235.76,401.64C179,428.14,145.44,396.46,161,331"/><path class="cls-4" d="M228.39,364.07c15.55-65.43,44.16-155,63.78-199.77,78.93,24,130.5,96.77,115,162.2C387.47,371.29,307.45,388.11,228.39,364.07Z"/><path class="cls-4" d="M247.48,293.13c68.25,20.76,137.33,6.24,154.29-32.43"/><path class="cls-4" d="M305.5,375c15.55-65.43,9.57-159.94-13.33-210.67"/><path class="cls-4" d="M369.62,361.49c15.55-65.43-19.19-153.89-77.45-197.19"/><path class="cls-4" d="M407.12,326.5c15.55-65.43-36-138.2-114.95-162.2,19.61-44.72,22.92-27.86,7.37,37.57C378.6,225.91,426.77,281.71,407.12,326.5Z"/><path class="cls-4" d="M401.77,260.7c17-38.66-24.62-86.83-92.87-107.59"/><path class="cls-4" d="M405.53,279.63c15.55-65.44-35.3-117.17-113.36-115.33"/><path class="cls-4" d="M366.93,234.91c15.55-65.43-18-97.11-74.76-70.61"/><path class="cls-4" d="M299.54,201.87c15.55-65.43,12.24-82.29-7.37-37.57-78.94-24-155.81,9.7-171.36,75.14C140.45,194.65,220.47,177.83,299.54,201.87Z"/><path class="cls-4" d="M308.9,153.11c-68.26-20.76-137.34-6.24-154.3,32.43"/><path class="cls-4" d="M222.42,191c15.56-65.43,46.84-77.4,69.75-26.67"/><path class="cls-4" d="M158.3,204.45C173.86,139,233.91,121,292.17,164.3"/><path class="cls-4" d="M120.81,239.44C136.36,174,213.23,140.3,292.17,164.3,272.55,209,243.94,298.64,228.39,364.07,149.33,340,101.16,284.23,120.81,239.44Z"/><path class="cls-4" d="M154.6,185.54c-17,38.67,24.63,86.84,92.88,107.59"/><path class="cls-4" d="M122.4,286.31c15.55-65.43,91.71-120.17,169.77-122"/><path class="cls-4" d="M161,331c15.56-65.43,74.4-140.22,131.18-166.72"/></g><path class="cls-4" d="M220.3,426.61c2.5.76,7.7-7.3,15.46-25-7.76,17.67-13,25.73-15.46,25-3.56-1.15-8.27-2.79-11.77-4.12-2.14-.81-4.93-2-7-3-4.08-1.93-9.4-4.74-13.34-6.93-2.28-1.27-5.18-3.2-7.37-4.61a149.51,149.51,0,0,1-14.5-11c-2.64-2.31-6.09-5.49-8.59-8-2-2-4.61-4.68-6.41-6.83-2.87-3.44-6.63-8.08-9.3-11.67-1.83-2.46-4-5.91-5.68-8.48a139.14,139.14,0,0,1-9.11-17,150.57,150.57,0,0,1-8.09-22.23,136.46,136.46,0,0,1-4.41-22.52c-.41-4.8-.89-11.19-1-16-.08-3.58.16-8.36.37-11.94.44-7.28,2.25-16.89,3.7-24a137.31,137.31,0,0,1,4.2-14.42c1.16-3.47,3.1-7.95,4.44-11.35a138.33,138.33,0,0,1,6.84-13.67,150.43,150.43,0,0,1,13.15-19.48,173.24,173.24,0,0,1,15.14-16.34,128.41,128.41,0,0,1,13.8-11.37c2.61-1.82,6.06-4.28,8.77-5.93,3.63-2.21,8.52-5.06,12.33-6.93a176.7,176.7,0,0,1,17.78-7.53c3.08-1.07,7.24-2.36,10.38-3.22,2.79-.77,6.55-1.71,9.4-2.23,2.41-.44,5.61-1.12,8.05-1.41s5.55-.74,7.94-1,5.58-.43,8-.54a149.94,149.94,0,0,1,21.93.72c4.17.51,9.72,1.4,13.86,2.15,2.09.37,4.85,1,6.89,1.57,3.59,1,8.37,2.3,11.87,3.52,4.12,1.44,9.52,3.64,13.52,5.37,2.16.93,4.95,2.34,7,3.42s4.64,2.55,6.62,3.65c2.28,1.27,5.17,3.2,7.37,4.61a150.56,150.56,0,0,1,14.49,11c2.65,2.32,6.09,5.5,8.6,8,2,2,4.57,4.7,6.4,6.83a149.21,149.21,0,0,1,15,20.15,138.51,138.51,0,0,1,9.11,17,149.08,149.08,0,0,1,12.5,44.75c.48,4.79.89,11.19,1,16,.08,3.58-.26,8.35-.38,11.93-.23,7.3-2.23,16.9-3.7,24.05A127.68,127.68,0,0,1,405.92,332c-1.19,3.46-2.94,8-4.44,11.35A147.77,147.77,0,0,1,394.63,357c-8.57,14.34-10.94,17.12-20.32,27.83a100,100,0,0,1-8,8c-4,3.56-9.51,8.15-13.8,11.37-2.54,1.91-6.07,4.28-8.78,5.93-3.62,2.21-8.54,5-12.32,6.92-5.16,2.64-12.37,5.47-17.79,7.54-3,1.16-7.24,2.32-10.37,3.22-2.79.79-6.55,1.72-9.4,2.23-2.42.43-5.63,1.06-8.05,1.41s-5.85.79-8.36,1a148,148,0,0,1-29.46-.22c-2-.21-7.45-.83-13.89-2.15C229.93,429.26,224.42,427.76,220.3,426.61Z"/></g></g><g class="cls-2"><g class="cls-9"><g class="cls-2"><path class="cls-4" d="M235.76,401.64c-19.62,44.72-22.92,27.86-7.37-37.57,79.06,24,159.08,7.22,178.73-37.57C391.57,391.94,314.69,425.64,235.76,401.64Z"/><path class="cls-4" d="M219,412.83c68.25,20.75,137.33,6.23,154.29-32.43"/><path class="cls-4" d="M235.76,401.64C258.66,452.37,290,440.4,305.5,375"/><path class="cls-4" d="M235.76,401.64c58.26,43.3,118.31,25.28,133.86-40.15"/><path class="cls-4" d="M235.76,401.64c78.93,24,155.81-9.7,171.36-75.14,19.65-44.79-28.52-100.59-107.58-124.63C284,267.3,255.37,356.92,235.76,401.64Z"/><path class="cls-4" d="M373.32,380.4c17-38.67-24.62-86.84-92.87-107.59"/><path class="cls-4" d="M235.76,401.64c78.05-1.84,154.22-56.58,169.77-122"/><path class="cls-4" d="M235.76,401.64c56.77-26.5,115.62-101.29,131.17-166.73"/><path class="cls-4" d="M235.76,401.64C255.37,356.92,284,267.3,299.54,201.87c-79.07-24-159.09-7.22-178.73,37.57C105.25,304.87,156.82,377.64,235.76,401.64Z"/><path class="cls-4" d="M280.45,272.81c-68.26-20.76-137.34-6.24-154.3,32.43"/><path class="cls-4" d="M235.76,401.64C212.85,350.91,206.87,256.4,222.42,191"/><path class="cls-4" d="M235.76,401.64c-58.26-43.3-93-131.76-77.46-197.19"/><path class="cls-4" d="M235.76,401.64c-78.94-24-130.51-96.77-114.95-162.2C101.16,284.23,149.33,340,228.39,364.07,212.84,429.5,216.14,446.36,235.76,401.64Z"/><path class="cls-4" d="M126.15,305.24c-17,38.66,24.63,86.83,92.88,107.59"/><path class="cls-4" d="M235.76,401.64c-78.06,1.84-128.92-49.89-113.36-115.33"/><path class="cls-4" d="M235.76,401.64C179,428.14,145.44,396.46,161,331"/><path class="cls-4" d="M228.39,364.07c15.55-65.43,44.16-155,63.78-199.77,78.93,24,130.5,96.77,115,162.2C387.47,371.29,307.45,388.11,228.39,364.07Z"/><path class="cls-4" d="M247.48,293.13c68.25,20.76,137.33,6.24,154.29-32.43"/><path class="cls-4" d="M270.37,221.42c39.88,12.13,80.23,3.65,90.14-18.94"/><path class="cls-4" d="M305.5,375c15.55-65.43,9.57-159.94-13.33-210.67"/><path class="cls-4" d="M369.62,361.49c15.55-65.43-19.19-153.89-77.45-197.19"/><path class="cls-4" d="M407.12,326.5c15.55-65.43-36-138.2-114.95-162.2,19.61-44.72,22.92-27.86,7.37,37.57C378.6,225.91,426.77,281.71,407.12,326.5Z"/><path class="cls-4" d="M401.77,260.7c17-38.66-24.62-86.83-92.87-107.59"/><path class="cls-4" d="M360.51,202.48c9.91-22.59-14.38-50.73-54.26-62.86"/><path class="cls-4" d="M405.53,279.63c15.55-65.44-35.3-117.17-113.36-115.33"/><path class="cls-4" d="M366.93,234.91c15.55-65.43-18-97.11-74.76-70.61"/><path class="cls-4" d="M299.54,201.87c15.55-65.43,12.24-82.29-7.37-37.57-78.94-24-155.81,9.7-171.36,75.14C140.45,194.65,220.47,177.83,299.54,201.87Z"/><path class="cls-4" d="M308.9,153.11c-68.26-20.76-137.34-6.24-154.3,32.43"/><path class="cls-4" d="M306.25,139.62C266.38,127.5,226,136,216.11,158.57"/><path class="cls-4" d="M222.42,191c15.56-65.43,46.84-77.4,69.75-26.67"/><path class="cls-4" d="M158.3,204.45C173.86,139,233.91,121,292.17,164.3"/><path class="cls-4" d="M120.81,239.44C136.36,174,213.23,140.3,292.17,164.3,272.55,209,243.94,298.64,228.39,364.07,149.33,340,101.16,284.23,120.81,239.44Z"/><path class="cls-4" d="M154.6,185.54c-17,38.67,24.63,86.84,92.88,107.59"/><path class="cls-4" d="M216.11,158.57c-9.9,22.59,14.39,50.73,54.26,62.85"/><path class="cls-4" d="M122.4,286.31c15.55-65.43,91.71-120.17,169.77-122"/><path class="cls-4" d="M161,331c15.56-65.43,74.4-140.22,131.18-166.72"/></g><path class="cls-4" d="M401.48,343.37a175.72,175.72,0,0,1-11.33,21.08c-1.93,2.94-4.58,6.82-6.74,9.59A135.33,135.33,0,0,1,374,385.19c-2.38,2.4-5.42,5.75-8,8-4.85,4.19-11.48,9.61-16.68,13.34-2.57,1.84-6.12,4.11-8.87,5.66-4.28,2.42-10.07,5.5-14.54,7.56-3.61,1.65-8.52,3.65-12.29,4.91-5,1.68-11.87,3.63-17,4.87-2.93.69-6.88,1.46-9.87,1.85-2.38.32-5.56.78-7.95,1s-5.93.45-8.47.61a152.73,152.73,0,0,1-22.31-.7c-7.35-.93-8.88-1.13-13.89-2.15-1.73-.35-7-1.43-13.83-3.5-3.82-1.16-1.32-23,8.09-62.54,15.55-65.43,44.16-155,63.78-199.77C272.55,209,243.94,298.64,228.39,364.07c-9.41,39.57-11.91,61.38-8.09,62.54-2.08-.69-4.88-1.52-6.93-2.29-3.49-1.32-8.15-3.09-11.53-4.67-4.08-1.91-9.4-4.72-13.35-6.9-2.17-1.19-5-3-7-4.35s-5.16-3.43-7.24-5.08c-4.06-3.21-9.38-7.62-13.21-11.1-2.43-2.2-5.44-5.37-7.67-7.77-1.94-2.09-4.36-5-6.2-7.2-2.56-3-5.6-7.35-7.84-10.61-1.74-2.54-3.84-6.09-5.45-8.73a125.65,125.65,0,0,1-7.41-14.59,168.69,168.69,0,0,1-6.88-18.94A147.14,147.14,0,0,1,114.93,302c-.39-4-.93-9.31-1.1-13.31-.15-3.57-.1-8.33,0-11.89a186.89,186.89,0,0,1,3-24,113.5,113.5,0,0,1,4.3-16.21c1.25-3.44,2.8-8.08,4.24-11.45,1.74-4.07,4.32-9.4,6.35-13.34a145.61,145.61,0,0,1,12.78-19.83c2.68-3.45,6.45-7.91,9.4-11.14,2.27-2.51,5.58-5.58,8-8,4.54-4.52,11.45-9.63,16.68-13.34a141.38,141.38,0,0,1,14.56-8.87c2.62-1.37,6.14-3.16,8.85-4.35,3.63-1.59,8.55-3.56,12.28-4.91a155.11,155.11,0,0,1,18.85-5.26c4.77-.93,11.19-1.87,16-2.48,2.53-.32,5.93-.47,8.47-.6,2.36-.13,5.51-.21,7.88-.14,4.29.13,10,.38,14.28.82a145.76,145.76,0,0,1,20.94,3.74c2.09.53,4.87,1.3,6.93,1.93s4.86,1.6,6.94,2.29,4.78,1.76,6.79,2.62c3.49,1.48,8.07,3.62,11.46,5.31,2.13,1,4.9,2.58,6.93,3.81,4.09,2.48,9.41,6,13.32,8.78,2.29,1.61,5.18,4,7.33,5.78a145.48,145.48,0,0,1,14.18,13.57c2.53,2.81,5.79,6.66,8.13,9.63,1.87,2.37,4.26,5.64,5.91,8.17a149,149,0,0,1,12.87,23.33,143.63,143.63,0,0,1,6.87,18.94A157.19,157.19,0,0,1,413,264c.48,4,.93,9.31,1.1,13.31.15,3.56,0,8.32,0,11.89-.13,7.26-1.68,16.88-3,24a139.83,139.83,0,0,1-4.3,16.22A147.47,147.47,0,0,1,401.48,343.37Z"/></g></g></g></g></svg>