<svg xmlns="http://www.w3.org/2000/svg" viewBox="0 0 540 540"><defs><style>.cls-1{fill:none;stroke:#000;stroke-miterlimit:10;}</style></defs><g id="Calque_4" data-name="Calque 4"><path class="cls-1" d="M402,321.52c-13.25,2.91-20.67-.24-24-2.49a109.11,109.11,0,0,0,9.86-40.77c5.89,1.49,7.11,4.72,14.75,9.63,9.72,6.25,8.33-15.28,8.33-15.28s1.39-26.4-9.72-15.28c-5.36,5.35-10.07,7.48-13.51,8.25a109.25,109.25,0,0,0-12.27-43.31c12.73-6.44,14.38-2.29,28.7-1.74,14.5.56-.74-21.84-.74-21.84s-15.33-29.42-20.26-10.31c-4.44,17.23-13.65,20.8-15.41,21.33a110.3,110.3,0,0,0-30.59-29.07c5.47-7.06,8.54-5.49,18-10.17,10.36-5.14-8.84-15-8.84-15s-21.94-14.74-18.11.5c2.56,10.14.47,16.06-1.22,18.9a109,109,0,0,0-40.38-11.07c1.2-15.25,6.24-14.79,14.93-28.31,9-14-22-12-22-12s-38-2-22,14C270,150,270.29,160,269.83,163.82a109.07,109.07,0,0,0-40,10.9c-5.62-10.14-2.31-11.51-2.25-23s-17.37,1.17-17.37,1.17-23,13-7.68,16.4c12.42,2.77,16.18,8.88,17.16,11.11a110.32,110.32,0,0,0-30.18,28.23c-.19-.11-.36-.21-.57-.31-13.26-6.68-10.69-10.4-18.75-22.47S153,199.27,153,199.27s-14.82,29.69,3.54,22.46c14.12-5.56,22.23-2.48,25.22-.77a109.31,109.31,0,0,0-12.81,42.67c-7-1.33-7.83-4.66-16-9.9-9.72-6.25-8.33,15.28-8.33,15.28s-1.39,26.4,9.72,15.29c5.73-5.73,10.71-7.77,14.2-8.4a109.28,109.28,0,0,0,9.55,42.24c-11.3,6.77-13.57,3-27.51,3.69-14.49.72,2.65,21.69,2.65,21.69s17.86,28,21.09,8.5c2.1-12.63,7.27-18.43,10.65-20.95a110.25,110.25,0,0,0,34.2,34.68c-4.75,4.84-8,3.87-16.68,7.82-10.52,4.8,8.36,15.27,8.36,15.27s21.46,15.42,18.11.07c-1.85-8.47-.6-13.93.89-17.14a109.21,109.21,0,0,0,40.08,10.92c-1.39,10.81-5.69,11.2-12.76,22.2-7.85,12.2,19.18,10.46,19.18,10.46s33.14,1.74,19.19-12.21c-8.7-8.7-10.62-16-10.83-20.33a109.16,109.16,0,0,0,44.58-12.38c1.67,5.61-.38,8.4-.56,17.33-.23,11.56,17.38-.9,17.38-.9s23.21-12.64,7.93-16.29c-7-1.67-11.21-4.36-13.72-6.8A110.14,110.14,0,0,0,371,332c8.41,7,6.39,10.85,11.85,22.76C388.85,368,402,344.26,402,344.26S421.3,317.3,402,321.52Z"/><circle class="cls-1" cx="278" cy="320" r="17.5"/><circle class="cls-1" cx="308.25" cy="219.75" r="10.25"/><circle class="cls-1" cx="234.5" cy="243.5" r="17.5"/></g></svg>