<svg xmlns="http://www.w3.org/2000/svg" viewBox="0 0 540 540"><defs><style>.cls-1{fill:none;stroke:#000;stroke-miterlimit:10;}</style></defs><g id="Calque_2" data-name="Calque 2"><g id="web"><line class="cls-1" x1="271.5" y1="462.5" x2="271.5" y2="63.5"/><line class="cls-1" x1="73.5" y1="262.5" x2="470.5" y2="263.5"/><line class="cls-1" x1="414.5" y1="119.5" x2="130.5" y2="403.5"/><line class="cls-1" x1="128.5" y1="120.5" x2="414.5" y2="406.5"/><path class="cls-1" d="M225.7,217.7s31.5,7.21,45.8-17.2"/><path class="cls-1" d="M210.5,262.72c4.61-3.76,23.25-20.75,15.68-44.45"/><path class="cls-1" d="M228.5,305.5s8-32-18.54-42.35"/><path class="cls-1" d="M271.5,324.5s-14-27-44-18.09"/><path class="cls-1" d="M315.5,307.5s-29.8-7.24-44,17"/><path class="cls-1" d="M332.5,263.5c-4.58,3.73-24.52,20.47-17,44"/><path class="cls-1" d="M314.5,219.5s-7.93,33.42,18.42,43.7"/><path class="cls-1" d="M271.5,200.5s13.22,27.85,43,19"/><path class="cls-1" d="M182.65,175.5S244,189.56,271.88,142"/><path class="cls-1" d="M153,263.21c9-7.32,45.31-40.43,30.55-86.59"/><path class="cls-1" d="M188.11,346.55s17.09-63.88-34.61-84.05"/><path class="cls-1" d="M271.88,383.56s-27.27-52.6-85.7-35.23"/><path class="cls-1" d="M357.59,350.45s-58-14.11-85.71,33.11"/><path class="cls-1" d="M391.5,263.5c-8.91,7.26-48.56,41.1-33.91,86.95"/><path class="cls-1" d="M355.65,179s-15.48,64.46,35.85,84.49"/><path class="cls-1" d="M271.88,142s25.75,54.26,83.77,37"/><path class="cls-1" d="M139.5,131.5s89.68,21.27,132-51"/><path class="cls-1" d="M92.5,262.5c13.64-11.12,69.43-60.85,47-131"/><path class="cls-1" d="M143.5,390.5s27.56-97.35-51-128"/><path class="cls-1" d="M271.5,448.5s-39.21-84.39-128-58"/><path class="cls-1" d="M404.5,396.5s-91-19.76-133,52"/><path class="cls-1" d="M452.5,263.5c-13.55,11-70.27,63.34-48,133"/><path class="cls-1" d="M398.5,135.5s-24,97.57,54,128"/><path class="cls-1" d="M271.5,80.5s38.84,81.2,127,55"/></g></g></svg>