<svg id="Calque_1" data-name="Calque 1" xmlns="http://www.w3.org/2000/svg" xmlns:xlink="http://www.w3.org/1999/xlink" viewBox="0 0 540 540"><defs><style>.cls-1,.cls-4{fill:none;}.cls-2{isolation:isolate;}.cls-3{clip-path:url(#clip-path);}.cls-4{stroke:#000;stroke-miterlimit:10;stroke-width:0.25px;}.cls-5{clip-path:url(#clip-path-2);}.cls-6{clip-path:url(#clip-path-3);}.cls-7{clip-path:url(#clip-path-4);}.cls-8{clip-path:url(#clip-path-5);}.cls-9{clip-path:url(#clip-path-6);}.cls-10{clip-path:url(#clip-path-7);}.cls-11{clip-path:url(#clip-path-8);}.cls-12{clip-path:url(#clip-path-9);}.cls-13{clip-path:url(#clip-path-12);}.cls-14{clip-path:url(#clip-path-13);}.cls-15{clip-path:url(#clip-path-14);}.cls-16{clip-path:url(#clip-path-15);}.cls-17{clip-path:url(#clip-path-16);}.cls-18{clip-path:url(#clip-path-17);}.cls-19{clip-path:url(#clip-path-18);}.cls-20{clip-path:url(#clip-path-19);}</style><clipPath id="clip-path"><ellipse class="cls-1" cx="227.37" cy="281.95" rx="113.15" ry="118.87" transform="translate(-82.63 94.62) rotate(-19.97)"/></clipPath><clipPath id="clip-path-2"><path class="cls-1" d="M186.85,170.17l85-30.9c-36.94,13.43-65.48,46.71-72,90-9.65,64.16,32.9,126,95,138a108.52,108.52,0,0,0,58-4.41l-85,30.89a108.43,108.43,0,0,1-58,4.41c-62.13-12.05-104.67-73.84-95-138C121.38,216.88,149.92,183.59,186.85,170.17Z"/></clipPath><clipPath id="clip-path-3"><path class="cls-1" d="M271.87,139.27a108.52,108.52,0,0,1,58-4.41l-85,30.9a108.43,108.43,0,0,0-58,4.41Z"/></clipPath><clipPath id="clip-path-4"><path class="cls-1" d="M267.88,393.72c36.93-13.42,65.47-46.71,72-90,9.64-64.17-32.9-125.95-95-138l85-30.9c62.12,12.06,104.66,73.85,95,138-6.5,43.24-35,76.52-72,89.95Z"/></clipPath><clipPath id="clip-path-5"><path class="cls-1" d="M329.84,134.86c62.12,12.06,104.66,73.85,95,138S357,379.29,294.92,367.24s-104.67-73.85-95-138S267.71,122.81,329.84,134.86ZM312.38,251.05h0"/></clipPath><clipPath id="clip-path-6"><path class="cls-1" d="M227.37,282l85-30.9h0Z"/></clipPath><clipPath id="clip-path-7"><polygon class="cls-1" points="312.38 251.05 227.37 281.95 312.38 251.05 312.38 251.05"/></clipPath><clipPath id="clip-path-8"><polygon class="cls-1" points="227.37 281.95 312.38 251.05 312.38 251.05 227.37 281.95"/></clipPath><clipPath id="clip-path-9"><path class="cls-1" d="M312.38,251.05h0l-85,30.9Z"/></clipPath><clipPath id="clip-path-12"><path class="cls-1" d="M329.4,136c61.6,12,103.79,73.22,94.23,136.85s-67.25,105.52-128.85,93.56S191,293.14,200.55,229.51,267.8,124,329.4,136ZM312.24,250.18a.93.93,0,0,0-1.1.79,1,1,0,0,0,.8,1.16.93.93,0,0,0,1.1-.79,1,1,0,0,0-.8-1.16"/></clipPath><clipPath id="clip-path-13"><path class="cls-1" d="M311.75,250.22a1,1,0,0,0-.61.75,1,1,0,0,0,.8,1.16.9.9,0,0,0,.49,0L228,282.78a.86.86,0,0,1-.48,0,1,1,0,0,1-.8-1.16,1,1,0,0,1,.6-.76Z"/></clipPath><clipPath id="clip-path-14"><path class="cls-1" d="M227.31,280.9l84.44-30.68a.9.9,0,0,1,.49,0L227.8,280.87A.9.9,0,0,0,227.31,280.9Z"/></clipPath><clipPath id="clip-path-15"><path class="cls-1" d="M312.43,252.09,228,282.78a1,1,0,0,0,.61-.75,1,1,0,0,0-.8-1.16l84.44-30.69a1,1,0,0,1,.8,1.16A1,1,0,0,1,312.43,252.09Z"/></clipPath><clipPath id="clip-path-16"><path class="cls-1" d="M245,166.63c61.6,12,103.78,73.23,94.22,136.85S271.94,409,210.34,397.05,106.56,323.83,116.12,260.2,183.37,154.68,245,166.63ZM227.8,280.87a.92.92,0,0,0-1.09.79,1,1,0,0,0,.8,1.16.92.92,0,0,0,1.09-.79,1,1,0,0,0-.8-1.16"/></clipPath><clipPath id="clip-path-17"><path class="cls-1" d="M187.48,171l84.44-30.69c-36.63,13.31-64.92,46.32-71.37,89.19-9.56,63.63,32.63,124.9,94.23,136.85A107.52,107.52,0,0,0,352.26,362l-84.43,30.69a107.56,107.56,0,0,1-57.49,4.37c-61.6-11.95-103.78-73.22-94.22-136.85C122.56,217.32,150.86,184.32,187.48,171Z"/></clipPath><clipPath id="clip-path-18"><path class="cls-1" d="M271.92,140.32A107.52,107.52,0,0,1,329.4,136L245,166.63A107.56,107.56,0,0,0,187.48,171Z"/></clipPath><clipPath id="clip-path-19"><path class="cls-1" d="M267.83,392.68c36.62-13.31,64.92-46.32,71.36-89.2,9.56-63.62-32.62-124.89-94.22-136.85L329.4,136c61.6,12,103.79,73.22,94.23,136.85-6.45,42.88-34.74,75.88-71.37,89.19Z"/></clipPath></defs><g class="cls-2"><g class="cls-2"><g class="cls-3"><ellipse class="cls-4" cx="227.37" cy="281.95" rx="113.15" ry="118.87" transform="translate(-82.63 94.62) rotate(-19.97)"/></g></g><g class="cls-2"><g class="cls-5"><g class="cls-2"><path class="cls-4" d="M244.82,165.76l85-30.9c-62.13-12.05-120.3,30.2-129.94,94.37l-85,30.89C124.53,196,182.7,153.71,244.82,165.76Z"/><line class="cls-4" x1="185.67" y1="170.61" x2="270.68" y2="139.71"/><line class="cls-4" x1="139.05" y1="204.46" x2="224.06" y2="173.56"/><path class="cls-4" d="M114.88,260.12l85-30.89c-9.65,64.16,32.9,126,95,138l-85,30.89C147.78,386.08,105.24,324.29,114.88,260.12Z"/><line class="cls-4" x1="121.43" y1="321.74" x2="206.44" y2="290.85"/><line class="cls-4" x1="155.52" y1="371.25" x2="240.53" y2="340.36"/><path class="cls-4" d="M209.91,398.13l85-30.89C357,379.29,415.22,337,424.86,272.88l-85,30.89C330.21,367.94,272,410.19,209.91,398.13Z"/></g><path class="cls-4" d="M186.85,170.17l85-30.9c-36.94,13.43-65.48,46.71-72,90-9.65,64.16,32.9,126,95,138a108.52,108.52,0,0,0,58-4.41l-85,30.89a108.43,108.43,0,0,1-58,4.41c-62.13-12.05-104.67-73.84-95-138C121.38,216.88,149.92,183.59,186.85,170.17Z"/></g></g><g class="cls-2"><g class="cls-6"><g class="cls-2"><path class="cls-4" d="M244.82,165.76l85-30.9c-62.13-12.05-120.3,30.2-129.94,94.37l-85,30.89C124.53,196,182.7,153.71,244.82,165.76Z"/></g><path class="cls-4" d="M271.87,139.27a108.52,108.52,0,0,1,58-4.41l-85,30.9a108.43,108.43,0,0,0-58,4.41Z"/></g></g><g class="cls-2"><g class="cls-7"><g class="cls-2"><path class="cls-4" d="M209.91,398.13l85-30.89C357,379.29,415.22,337,424.86,272.88l-85,30.89C330.21,367.94,272,410.19,209.91,398.13Z"/><line class="cls-4" x1="269.06" y1="393.29" x2="354.07" y2="362.39"/><line class="cls-4" x1="315.68" y1="359.43" x2="400.69" y2="328.54"/><path class="cls-4" d="M339.85,303.77l85-30.89c9.64-64.17-32.9-126-95-138l-85,30.9C307,177.82,349.49,239.6,339.85,303.77Z"/><line class="cls-4" x1="333.3" y1="242.15" x2="418.31" y2="211.25"/><line class="cls-4" x1="299.21" y1="192.64" x2="384.22" y2="161.74"/></g><path class="cls-4" d="M267.88,393.72c36.93-13.42,65.47-46.71,72-90,9.64-64.17-32.9-125.95-95-138l85-30.9c62.12,12.06,104.66,73.85,95,138-6.5,43.24-35,76.52-72,89.95Z"/></g></g><g class="cls-2"><g class="cls-8"><path class="cls-4" d="M329.84,134.86c62.12,12.06,104.66,73.85,95,138S357,379.29,294.92,367.24s-104.67-73.85-95-138S267.71,122.81,329.84,134.86ZM312.38,251.05h0"/></g></g><g class="cls-2"><g class="cls-9"><g class="cls-2"><polygon class="cls-4" points="312.38 251.05 227.37 281.95 312.38 251.05 312.38 251.05"/><line class="cls-4" x1="312.38" y1="251.05" x2="227.37" y2="281.95"/></g><path class="cls-4" d="M227.37,282l85-30.9h0Z"/></g></g><g class="cls-2"><g class="cls-10"><g class="cls-2"><polygon class="cls-4" points="312.38 251.05 227.37 281.95 312.38 251.05 312.38 251.05"/><line class="cls-4" x1="312.38" y1="251.05" x2="227.37" y2="281.95"/></g><polygon class="cls-4" points="312.38 251.05 227.37 281.95 312.38 251.05 312.38 251.05"/></g></g><g class="cls-2"><g class="cls-11"><g class="cls-2"><polygon class="cls-4" points="312.38 251.05 227.37 281.95 312.38 251.05 312.38 251.05"/><line class="cls-4" x1="312.38" y1="251.05" x2="227.37" y2="281.95"/></g><polygon class="cls-4" points="227.37 281.95 312.38 251.05 312.38 251.05 227.37 281.95"/></g></g><g class="cls-2"><g class="cls-12"><g class="cls-2"><polygon class="cls-4" points="312.38 251.05 227.37 281.95 312.38 251.05 312.38 251.05"/><line class="cls-4" x1="312.38" y1="251.05" x2="227.37" y2="281.95"/></g><path class="cls-4" d="M312.38,251.05h0l-85,30.9Z"/></g></g><g class="cls-2"><g class="cls-10"><g class="cls-2"><polygon class="cls-4" points="312.38 251.05 227.37 281.95 312.38 251.05 312.38 251.05"/><line class="cls-4" x1="312.38" y1="251.05" x2="227.37" y2="281.95"/><line class="cls-4" x1="312.38" y1="251.05" x2="227.37" y2="281.95"/></g><polygon class="cls-4" points="312.38 251.05 227.37 281.95 312.38 251.05 312.38 251.05"/></g></g><g class="cls-2"><g class="cls-12"><g class="cls-2"><polygon class="cls-4" points="312.38 251.05 227.37 281.95 312.38 251.05 312.38 251.05"/><line class="cls-4" x1="312.38" y1="251.05" x2="227.37" y2="281.95"/><line class="cls-4" x1="312.38" y1="251.05" x2="227.37" y2="281.95"/></g><path class="cls-4" d="M312.38,251.05h0l-85,30.9Z"/></g></g><g class="cls-2"><g class="cls-13"><path class="cls-4" d="M329.4,136c61.6,12,103.79,73.22,94.23,136.85s-67.25,105.52-128.85,93.56S191,293.14,200.55,229.51,267.8,124,329.4,136ZM312.24,250.18a.93.93,0,0,0-1.1.79,1,1,0,0,0,.8,1.16.93.93,0,0,0,1.1-.79,1,1,0,0,0-.8-1.16"/></g></g><g class="cls-2"><g class="cls-14"><g class="cls-2"><path class="cls-4" d="M312.24,250.18,227.8,280.87a.92.92,0,0,0-1.09.79L311.14,251A.93.93,0,0,1,312.24,250.18Z"/><line class="cls-4" x1="311.74" y1="250.22" x2="227.3" y2="280.91"/><line class="cls-4" x1="311.35" y1="250.5" x2="226.91" y2="281.19"/><path class="cls-4" d="M311.14,251l-84.43,30.69a1,1,0,0,0,.8,1.16l84.43-30.69A1,1,0,0,1,311.14,251Z"/><line class="cls-4" x1="311.2" y1="251.49" x2="226.76" y2="282.18"/><line class="cls-4" x1="311.49" y1="251.91" x2="227.05" y2="282.59"/><path class="cls-4" d="M311.94,252.13l-84.43,30.69a.92.92,0,0,0,1.09-.79L313,251.34A.93.93,0,0,1,311.94,252.13Z"/></g><path class="cls-4" d="M311.75,250.22a1,1,0,0,0-.61.75,1,1,0,0,0,.8,1.16.9.9,0,0,0,.49,0L228,282.78a.86.86,0,0,1-.48,0,1,1,0,0,1-.8-1.16,1,1,0,0,1,.6-.76Z"/></g></g><g class="cls-2"><g class="cls-15"><g class="cls-2"><path class="cls-4" d="M312.24,250.18,227.8,280.87a.92.92,0,0,0-1.09.79L311.14,251A.93.93,0,0,1,312.24,250.18Z"/></g><path class="cls-4" d="M227.31,280.9l84.44-30.68a.9.9,0,0,1,.49,0L227.8,280.87A.9.9,0,0,0,227.31,280.9Z"/></g></g><g class="cls-2"><g class="cls-16"><g class="cls-2"><path class="cls-4" d="M311.94,252.13l-84.43,30.69a.92.92,0,0,0,1.09-.79L313,251.34A.93.93,0,0,1,311.94,252.13Z"/><line class="cls-4" x1="312.44" y1="252.09" x2="228" y2="282.78"/><line class="cls-4" x1="312.83" y1="251.81" x2="228.4" y2="282.49"/><path class="cls-4" d="M313,251.34,228.6,282a1,1,0,0,0-.8-1.16l84.44-30.69A1,1,0,0,1,313,251.34Z"/><line class="cls-4" x1="312.98" y1="250.82" x2="228.54" y2="281.51"/><line class="cls-4" x1="312.69" y1="250.4" x2="228.26" y2="281.09"/></g><path class="cls-4" d="M312.43,252.09,228,282.78a1,1,0,0,0,.61-.75,1,1,0,0,0-.8-1.16l84.44-30.69a1,1,0,0,1,.8,1.16A1,1,0,0,1,312.43,252.09Z"/></g></g><g class="cls-2"><g class="cls-17"><path class="cls-4" d="M245,166.63c61.6,12,103.78,73.23,94.22,136.85S271.94,409,210.34,397.05,106.56,323.83,116.12,260.2,183.37,154.68,245,166.63ZM227.8,280.87a.92.92,0,0,0-1.09.79,1,1,0,0,0,.8,1.16.92.92,0,0,0,1.09-.79,1,1,0,0,0-.8-1.16"/></g></g><g class="cls-2"><g class="cls-18"><g class="cls-2"><path class="cls-4" d="M245,166.63,329.4,136c-61.6-12-119.29,29.94-128.85,93.56L116.12,260.2C125.68,196.57,183.37,154.68,245,166.63Z"/><line class="cls-4" x1="186.31" y1="171.44" x2="270.74" y2="140.75"/><line class="cls-4" x1="140.08" y1="205.01" x2="224.52" y2="174.32"/><path class="cls-4" d="M116.12,260.2l84.43-30.69c-9.56,63.63,32.63,124.9,94.23,136.85l-84.44,30.69C148.74,385.1,106.56,323.83,116.12,260.2Z"/><line class="cls-4" x1="122.61" y1="321.3" x2="207.04" y2="290.62"/><line class="cls-4" x1="156.41" y1="370.4" x2="240.85" y2="339.71"/><path class="cls-4" d="M210.34,397.05l84.44-30.69c61.6,12,119.29-29.93,128.85-93.56l-84.44,30.68C329.63,367.11,271.94,409,210.34,397.05Z"/></g><path class="cls-4" d="M187.48,171l84.44-30.69c-36.63,13.31-64.92,46.32-71.37,89.19-9.56,63.63,32.63,124.9,94.23,136.85A107.52,107.52,0,0,0,352.26,362l-84.43,30.69a107.56,107.56,0,0,1-57.49,4.37c-61.6-11.95-103.78-73.22-94.22-136.85C122.56,217.32,150.86,184.32,187.48,171Z"/></g></g><g class="cls-2"><g class="cls-19"><g class="cls-2"><path class="cls-4" d="M245,166.63,329.4,136c-61.6-12-119.29,29.94-128.85,93.56L116.12,260.2C125.68,196.57,183.37,154.68,245,166.63Z"/></g><path class="cls-4" d="M271.92,140.32A107.52,107.52,0,0,1,329.4,136L245,166.63A107.56,107.56,0,0,0,187.48,171Z"/></g></g><g class="cls-2"><g class="cls-20"><g class="cls-2"><path class="cls-4" d="M210.34,397.05l84.44-30.69c61.6,12,119.29-29.93,128.85-93.56l-84.44,30.68C329.63,367.11,271.94,409,210.34,397.05Z"/><line class="cls-4" x1="269" y1="392.25" x2="353.44" y2="361.56"/><line class="cls-4" x1="315.22" y1="358.68" x2="399.66" y2="327.99"/><path class="cls-4" d="M339.19,303.48l84.44-30.68C433.19,209.17,391,147.9,329.4,136L245,166.63C306.57,178.59,348.75,239.86,339.19,303.48Z"/><line class="cls-4" x1="332.7" y1="242.38" x2="417.14" y2="211.69"/><line class="cls-4" x1="298.9" y1="193.29" x2="383.33" y2="162.6"/></g><path class="cls-4" d="M267.83,392.68c36.62-13.31,64.92-46.32,71.36-89.2,9.56-63.62-32.62-124.89-94.22-136.85L329.4,136c61.6,12,103.79,73.22,94.23,136.85-6.45,42.88-34.74,75.88-71.37,89.19Z"/></g></g></g></svg>