<svg id="Calque_1" data-name="Calque 1" xmlns="http://www.w3.org/2000/svg" xmlns:xlink="http://www.w3.org/1999/xlink" viewBox="0 0 540 540"><defs><style>.cls-1,.cls-4{fill:none;}.cls-2{isolation:isolate;}.cls-3{clip-path:url(#clip-path);}.cls-4{stroke:#000;stroke-miterlimit:10;stroke-width:0.25px;}.cls-5{clip-path:url(#clip-path-2);}.cls-6{clip-path:url(#clip-path-3);}.cls-7{clip-path:url(#clip-path-4);}.cls-8{clip-path:url(#clip-path-5);}.cls-9{clip-path:url(#clip-path-6);}.cls-10{clip-path:url(#clip-path-7);}.cls-11{clip-path:url(#clip-path-8);}.cls-12{clip-path:url(#clip-path-9);}.cls-13{clip-path:url(#clip-path-10);}.cls-14{clip-path:url(#clip-path-12);}.cls-15{clip-path:url(#clip-path-13);}.cls-16{clip-path:url(#clip-path-14);}.cls-17{clip-path:url(#clip-path-15);}.cls-18{clip-path:url(#clip-path-16);}.cls-19{clip-path:url(#clip-path-17);}.cls-20{clip-path:url(#clip-path-18);}.cls-21{clip-path:url(#clip-path-19);}</style><clipPath id="clip-path"><ellipse class="cls-1" cx="182.83" cy="275.9" rx="106.05" ry="118.87" transform="translate(-37.11 28.57) rotate(-8.11)"/></clipPath><clipPath id="clip-path-2"><path class="cls-1" d="M166,158.19,298,139.38c-43.6,6.22-80,42.72-88,93.67C199.94,297.21,238.69,360,296.54,373.26a95.52,95.52,0,0,0,35,1.55L199.62,393.62a95.56,95.56,0,0,1-35-1.55C106.76,378.79,68,316,78.08,251.86,86.07,200.91,122.43,164.41,166,158.19Z"/></clipPath><clipPath id="clip-path-3"><path class="cls-1" d="M298,139.38a95.56,95.56,0,0,1,35,1.55L201,159.74a95.52,95.52,0,0,0-35-1.55Z"/></clipPath><clipPath id="clip-path-4"><path class="cls-1" d="M199.62,393.62c43.6-6.22,80-42.72,88-93.67C297.64,235.79,258.89,173,201,159.74L333,140.93c57.85,13.28,96.59,76,86.53,140.21-8,50.95-44.35,87.45-88,93.67Z"/></clipPath><clipPath id="clip-path-5"><path class="cls-1" d="M333,140.93c57.85,13.28,96.59,76,86.53,140.21s-65.11,105.4-123,92.12S199.94,297.21,210,233.05,275.12,127.65,333,140.93ZM314.75,257.09h0"/></clipPath><clipPath id="clip-path-6"><path class="cls-1" d="M182.83,275.9l131.92-18.81h0Z"/></clipPath><clipPath id="clip-path-7"><polygon class="cls-1" points="314.75 257.1 182.83 275.9 314.75 257.09 314.75 257.1"/></clipPath><clipPath id="clip-path-8"><polygon class="cls-1" points="182.83 275.9 314.75 257.09 314.75 257.09 182.83 275.9"/></clipPath><clipPath id="clip-path-9"><path class="cls-1" d="M314.75,257.09h0L182.83,275.9Z"/></clipPath><clipPath id="clip-path-10"><polygon class="cls-1" points="314.75 257.09 182.83 275.9 314.75 257.09 314.75 257.09"/></clipPath><clipPath id="clip-path-12"><path class="cls-1" d="M332.37,142c57.36,13.17,95.78,75.41,85.81,139s-64.57,104.52-121.93,91.35-95.79-75.42-85.81-139S275,128.8,332.37,142ZM314.46,256.18a.87.87,0,0,0-1,.78,1,1,0,0,0,.72,1.17.87.87,0,0,0,1-.77,1,1,0,0,0-.73-1.18"/></clipPath><clipPath id="clip-path-13"><path class="cls-1" d="M314.17,256.17a.89.89,0,0,0-.74.79,1,1,0,0,0,.72,1.17.76.76,0,0,0,.3,0l-131,18.68a1,1,0,0,1-.29,0,1,1,0,0,1-.73-1.18.91.91,0,0,1,.74-.79Z"/></clipPath><clipPath id="clip-path-14"><path class="cls-1" d="M183.13,274.85l131-18.68a1,1,0,0,1,.29,0l-131,18.68A1,1,0,0,0,183.13,274.85Z"/></clipPath><clipPath id="clip-path-15"><path class="cls-1" d="M314.45,258.15l-131,18.68a.89.89,0,0,0,.74-.79,1,1,0,0,0-.72-1.18l131-18.68a1,1,0,0,1,.73,1.18A.93.93,0,0,1,314.45,258.15Z"/></clipPath><clipPath id="clip-path-16"><path class="cls-1" d="M201.33,160.65c57.37,13.17,95.79,75.42,85.81,139S222.58,404.2,165.21,391,69.43,315.61,79.4,252,144,147.48,201.33,160.65Zm-17.9,114.21a.88.88,0,0,0-1,.78,1,1,0,0,0,.73,1.18.87.87,0,0,0,1-.78,1,1,0,0,0-.72-1.18"/></clipPath><clipPath id="clip-path-17"><path class="cls-1" d="M166.62,159.12l131-18.69c-43.24,6.17-79.3,42.36-87.22,92.88-10,63.62,28.44,125.87,85.81,139A94.8,94.8,0,0,0,331,373.88l-131,18.68A94.8,94.8,0,0,1,165.21,391c-57.36-13.17-95.78-75.42-85.81-139C87.33,201.47,123.38,165.28,166.62,159.12Z"/></clipPath><clipPath id="clip-path-18"><path class="cls-1" d="M297.66,140.43A95,95,0,0,1,332.37,142l-131,18.68a94.79,94.79,0,0,0-34.71-1.53Z"/></clipPath><clipPath id="clip-path-19"><path class="cls-1" d="M199.92,392.56c43.24-6.16,79.3-42.35,87.22-92.88,10-63.61-28.44-125.86-85.81-139l131-18.68c57.36,13.17,95.78,75.41,85.81,139-7.92,50.52-44,86.72-87.22,92.88Z"/></clipPath></defs><g class="cls-2"><g class="cls-2"><g class="cls-3"><ellipse class="cls-4" cx="182.83" cy="275.9" rx="106.05" ry="118.87" transform="translate(-37.11 28.57) rotate(-8.11)"/></g></g><g class="cls-2"><g class="cls-5"><g class="cls-2"><path class="cls-4" d="M201,159.74,333,140.93c-57.85-13.28-112.91,28-123,92.12L78.08,251.86C88.14,187.7,143.19,146.46,201,159.74Z"/><line class="cls-4" x1="145.68" y1="163.46" x2="277.61" y2="144.65"/><line class="cls-4" x1="101.57" y1="196.51" x2="233.5" y2="177.7"/><path class="cls-4" d="M78.08,251.86,210,233.05C199.94,297.21,238.69,360,296.54,373.26L164.61,392.07C106.76,378.79,68,316,78.08,251.86Z"/><line class="cls-4" x1="83.19" y1="313.77" x2="215.11" y2="294.96"/><line class="cls-4" x1="114.23" y1="364.07" x2="246.16" y2="345.27"/><path class="cls-4" d="M164.61,392.07l131.93-18.81c57.85,13.28,112.9-28,123-92.12L287.58,300C277.52,364.11,222.47,405.35,164.61,392.07Z"/></g><path class="cls-4" d="M166,158.19,298,139.38c-43.6,6.22-80,42.72-88,93.67C199.94,297.21,238.69,360,296.54,373.26a95.52,95.52,0,0,0,35,1.55L199.62,393.62a95.56,95.56,0,0,1-35-1.55C106.76,378.79,68,316,78.08,251.86,86.07,200.91,122.43,164.41,166,158.19Z"/></g></g><g class="cls-2"><g class="cls-6"><g class="cls-2"><path class="cls-4" d="M201,159.74,333,140.93c-57.85-13.28-112.91,28-123,92.12L78.08,251.86C88.14,187.7,143.19,146.46,201,159.74Z"/></g><path class="cls-4" d="M298,139.38a95.56,95.56,0,0,1,35,1.55L201,159.74a95.52,95.52,0,0,0-35-1.55Z"/></g></g><g class="cls-2"><g class="cls-7"><g class="cls-2"><path class="cls-4" d="M164.61,392.07l131.93-18.81c57.85,13.28,112.9-28,123-92.12L287.58,300C277.52,364.11,222.47,405.35,164.61,392.07Z"/><line class="cls-4" x1="219.97" y1="388.35" x2="351.9" y2="369.54"/><line class="cls-4" x1="264.08" y1="355.3" x2="396.01" y2="336.49"/><path class="cls-4" d="M287.58,300,419.5,281.14C429.56,217,390.82,154.21,333,140.93L201,159.74C258.89,173,297.64,235.79,287.58,300Z"/><line class="cls-4" x1="282.47" y1="238.03" x2="414.4" y2="219.23"/><line class="cls-4" x1="251.42" y1="187.73" x2="383.35" y2="168.92"/></g><path class="cls-4" d="M199.62,393.62c43.6-6.22,80-42.72,88-93.67C297.64,235.79,258.89,173,201,159.74L333,140.93c57.85,13.28,96.59,76,86.53,140.21-8,50.95-44.35,87.45-88,93.67Z"/></g></g><g class="cls-2"><g class="cls-8"><path class="cls-4" d="M333,140.93c57.85,13.28,96.59,76,86.53,140.21s-65.11,105.4-123,92.12S199.94,297.21,210,233.05,275.12,127.65,333,140.93ZM314.75,257.09h0"/></g></g><g class="cls-2"><g class="cls-9"><g class="cls-2"><polygon class="cls-4" points="314.75 257.1 182.83 275.9 314.75 257.09 314.75 257.1"/></g><path class="cls-4" d="M182.83,275.9l131.92-18.81h0Z"/></g></g><g class="cls-2"><g class="cls-10"><g class="cls-2"><polygon class="cls-4" points="314.75 257.1 182.83 275.9 314.75 257.09 314.75 257.1"/><line class="cls-4" x1="314.75" y1="257.09" x2="182.83" y2="275.9"/><line class="cls-4" x1="314.75" y1="257.09" x2="182.83" y2="275.9"/></g><polygon class="cls-4" points="314.75 257.1 182.83 275.9 314.75 257.09 314.75 257.1"/></g></g><g class="cls-2"><g class="cls-11"><g class="cls-2"><polygon class="cls-4" points="314.75 257.09 182.83 275.9 314.75 257.09 314.75 257.09"/></g><polygon class="cls-4" points="182.83 275.9 314.75 257.09 314.75 257.09 182.83 275.9"/></g></g><g class="cls-2"><g class="cls-12"><g class="cls-2"><polygon class="cls-4" points="314.75 257.09 182.83 275.9 314.75 257.09 314.75 257.09"/><line class="cls-4" x1="314.75" y1="257.09" x2="182.83" y2="275.9"/><line class="cls-4" x1="314.75" y1="257.09" x2="182.83" y2="275.9"/></g><path class="cls-4" d="M314.75,257.09h0L182.83,275.9Z"/></g></g><g class="cls-2"><g class="cls-13"><g class="cls-2"><polygon class="cls-4" points="314.75 257.09 182.83 275.9 314.75 257.09 314.75 257.09"/><line class="cls-4" x1="314.75" y1="257.09" x2="182.83" y2="275.9"/><line class="cls-4" x1="314.75" y1="257.09" x2="182.83" y2="275.9"/></g><polygon class="cls-4" points="314.75 257.09 182.83 275.9 314.75 257.09 314.75 257.09"/></g></g><g class="cls-2"><g class="cls-12"><g class="cls-2"><polygon class="cls-4" points="314.75 257.09 182.83 275.9 314.75 257.1 314.75 257.09"/><line class="cls-4" x1="314.75" y1="257.09" x2="182.83" y2="275.9"/><line class="cls-4" x1="314.75" y1="257.09" x2="182.83" y2="275.9"/></g><path class="cls-4" d="M314.75,257.09h0L182.83,275.9Z"/></g></g><g class="cls-2"><g class="cls-14"><path class="cls-4" d="M332.37,142c57.36,13.17,95.78,75.41,85.81,139s-64.57,104.52-121.93,91.35-95.79-75.42-85.81-139S275,128.8,332.37,142ZM314.46,256.18a.87.87,0,0,0-1,.78,1,1,0,0,0,.72,1.17.87.87,0,0,0,1-.77,1,1,0,0,0-.73-1.18"/></g></g><g class="cls-2"><g class="cls-15"><g class="cls-2"><path class="cls-4" d="M314.46,256.18l-131,18.68a.88.88,0,0,0-1,.78l131-18.68A.87.87,0,0,1,314.46,256.18Z"/><line class="cls-4" x1="314" y1="256.21" x2="182.96" y2="274.9"/><line class="cls-4" x1="313.62" y1="256.49" x2="182.59" y2="275.17"/><path class="cls-4" d="M313.43,257l-131,18.68a1,1,0,0,0,.73,1.18l131-18.69A1,1,0,0,1,313.43,257Z"/><line class="cls-4" x1="313.47" y1="257.48" x2="182.44" y2="276.16"/><line class="cls-4" x1="313.73" y1="257.9" x2="182.7" y2="276.58"/><path class="cls-4" d="M314.15,258.13l-131,18.69a.87.87,0,0,0,1-.78l131-18.68A.87.87,0,0,1,314.15,258.13Z"/></g><path class="cls-4" d="M314.17,256.17a.89.89,0,0,0-.74.79,1,1,0,0,0,.72,1.17.76.76,0,0,0,.3,0l-131,18.68a1,1,0,0,1-.29,0,1,1,0,0,1-.73-1.18.91.91,0,0,1,.74-.79Z"/></g></g><g class="cls-2"><g class="cls-16"><g class="cls-2"><path class="cls-4" d="M314.46,256.18l-131,18.68a.88.88,0,0,0-1,.78l131-18.68A.87.87,0,0,1,314.46,256.18Z"/></g><path class="cls-4" d="M183.13,274.85l131-18.68a1,1,0,0,1,.29,0l-131,18.68A1,1,0,0,0,183.13,274.85Z"/></g></g><g class="cls-2"><g class="cls-17"><g class="cls-2"><path class="cls-4" d="M314.15,258.13l-131,18.69a.87.87,0,0,0,1-.78l131-18.68A.87.87,0,0,1,314.15,258.13Z"/><line class="cls-4" x1="314.62" y1="258.1" x2="183.59" y2="276.79"/><line class="cls-4" x1="314.99" y1="257.83" x2="183.96" y2="276.51"/><path class="cls-4" d="M315.19,257.36,184.15,276a1,1,0,0,0-.72-1.18l131-18.68A1,1,0,0,1,315.19,257.36Z"/><line class="cls-4" x1="315.14" y1="256.84" x2="184.11" y2="275.52"/><line class="cls-4" x1="314.88" y1="256.42" x2="183.85" y2="275.1"/></g><path class="cls-4" d="M314.45,258.15l-131,18.68a.89.89,0,0,0,.74-.79,1,1,0,0,0-.72-1.18l131-18.68a1,1,0,0,1,.73,1.18A.93.93,0,0,1,314.45,258.15Z"/></g></g><g class="cls-2"><g class="cls-18"><path class="cls-4" d="M201.33,160.65c57.37,13.17,95.79,75.42,85.81,139S222.58,404.2,165.21,391,69.43,315.61,79.4,252,144,147.48,201.33,160.65Zm-17.9,114.21a.88.88,0,0,0-1,.78,1,1,0,0,0,.73,1.18.87.87,0,0,0,1-.78,1,1,0,0,0-.72-1.18"/></g></g><g class="cls-2"><g class="cls-19"><g class="cls-2"><path class="cls-4" d="M201.33,160.65l131-18.68c-57.37-13.17-112,27.73-121.93,91.34L79.4,252C89.38,188.38,144,147.48,201.33,160.65Z"/><line class="cls-4" x1="146.44" y1="164.34" x2="277.48" y2="145.66"/><line class="cls-4" x1="102.7" y1="197.11" x2="233.73" y2="178.43"/><path class="cls-4" d="M79.4,252l131-18.69c-10,63.62,28.44,125.87,85.81,139L165.21,391C107.85,377.86,69.43,315.61,79.4,252Z"/><line class="cls-4" x1="84.47" y1="313.39" x2="215.5" y2="294.71"/><line class="cls-4" x1="115.25" y1="363.27" x2="246.29" y2="344.59"/><path class="cls-4" d="M165.21,391l131-18.68c57.36,13.17,112-27.73,121.93-91.35l-131,18.68C277.17,363.3,222.58,404.2,165.21,391Z"/></g><path class="cls-4" d="M166.62,159.12l131-18.69c-43.24,6.17-79.3,42.36-87.22,92.88-10,63.62,28.44,125.87,85.81,139A94.8,94.8,0,0,0,331,373.88l-131,18.68A94.8,94.8,0,0,1,165.21,391c-57.36-13.17-95.78-75.42-85.81-139C87.33,201.47,123.38,165.28,166.62,159.12Z"/></g></g><g class="cls-2"><g class="cls-20"><g class="cls-2"><path class="cls-4" d="M201.33,160.65l131-18.68c-57.37-13.17-112,27.73-121.93,91.34L79.4,252C89.38,188.38,144,147.48,201.33,160.65Z"/></g><path class="cls-4" d="M297.66,140.43A95,95,0,0,1,332.37,142l-131,18.68a94.79,94.79,0,0,0-34.71-1.53Z"/></g></g><g class="cls-2"><g class="cls-21"><g class="cls-2"><path class="cls-4" d="M165.21,391l131-18.68c57.36,13.17,112-27.73,121.93-91.35l-131,18.68C277.17,363.3,222.58,404.2,165.21,391Z"/><line class="cls-4" x1="220.1" y1="387.34" x2="351.14" y2="368.66"/><line class="cls-4" x1="263.85" y1="354.57" x2="394.88" y2="335.89"/><path class="cls-4" d="M287.14,299.68l131-18.68c10-63.62-28.45-125.86-85.81-139l-131,18.68C258.7,173.82,297.12,236.07,287.14,299.68Z"/><line class="cls-4" x1="282.08" y1="238.29" x2="413.11" y2="219.61"/><line class="cls-4" x1="251.29" y1="188.41" x2="382.33" y2="169.73"/></g><path class="cls-4" d="M199.92,392.56c43.24-6.16,79.3-42.35,87.22-92.88,10-63.61-28.44-125.86-85.81-139l131-18.68c57.36,13.17,95.78,75.41,85.81,139-7.92,50.52-44,86.72-87.22,92.88Z"/></g></g></g></svg>