<svg id="Calque_1" data-name="Calque 1" xmlns="http://www.w3.org/2000/svg" xmlns:xlink="http://www.w3.org/1999/xlink" viewBox="0 0 540 540"><defs><style>.cls-1,.cls-4{fill:none;}.cls-2{isolation:isolate;}.cls-3{clip-path:url(#clip-path);}.cls-4{stroke:#000;stroke-miterlimit:10;stroke-width:0.25px;}.cls-5{clip-path:url(#clip-path-2);}.cls-6{clip-path:url(#clip-path-3);}.cls-7{clip-path:url(#clip-path-4);}.cls-8{clip-path:url(#clip-path-5);}.cls-9{clip-path:url(#clip-path-6);}.cls-10{clip-path:url(#clip-path-7);}.cls-11{clip-path:url(#clip-path-8);}.cls-12{clip-path:url(#clip-path-9);}.cls-13{clip-path:url(#clip-path-11);}.cls-14{clip-path:url(#clip-path-12);}.cls-15{clip-path:url(#clip-path-13);}.cls-16{clip-path:url(#clip-path-14);}.cls-17{clip-path:url(#clip-path-15);}.cls-18{clip-path:url(#clip-path-16);}.cls-19{clip-path:url(#clip-path-17);}.cls-20{clip-path:url(#clip-path-18);}.cls-21{clip-path:url(#clip-path-19);}</style><clipPath id="clip-path"><ellipse class="cls-1" cx="170.88" cy="269.2" rx="91.03" ry="118.87" transform="translate(-7.6 4.98) rotate(-1.63)"/></clipPath><clipPath id="clip-path-2"><path class="cls-1" d="M167.42,150.35,357.06,145c-41.11,1.17-77.35,38.86-85.81,93.63-9.91,64.15,22,127.44,71.33,141.36a70.85,70.85,0,0,0,21.4,2.7l-189.63,5.41a71.23,71.23,0,0,1-21.41-2.7C103.64,371.43,71.7,308.14,81.61,244,90.08,189.22,126.31,151.53,167.42,150.35Z"/></clipPath><clipPath id="clip-path-3"><path class="cls-1" d="M357.06,145a70.85,70.85,0,0,1,21.4,2.7l-189.63,5.41a70.93,70.93,0,0,0-21.41-2.71Z"/></clipPath><clipPath id="clip-path-4"><path class="cls-1" d="M174.35,388.05c41.1-1.17,77.34-38.86,85.8-93.64,9.91-64.14-22-127.43-71.32-141.35l189.63-5.41c49.31,13.92,81.24,77.21,71.33,141.36-8.46,54.77-44.7,92.46-85.81,93.63Z"/></clipPath><clipPath id="clip-path-5"><path class="cls-1" d="M378.46,147.65c49.31,13.92,81.24,77.21,71.33,141.36s-57.91,104.86-107.21,90.93-81.24-77.21-71.33-141.36S329.16,133.72,378.46,147.65ZM360.52,263.8h0"/></clipPath><clipPath id="clip-path-6"><path class="cls-1" d="M170.88,269.2l189.64-5.4h0Z"/></clipPath><clipPath id="clip-path-7"><polygon class="cls-1" points="360.52 263.8 170.88 269.2 360.52 263.8 360.52 263.8"/></clipPath><clipPath id="clip-path-8"><polygon class="cls-1" points="170.88 269.2 360.52 263.8 360.52 263.8 170.88 269.2"/></clipPath><clipPath id="clip-path-9"><path class="cls-1" d="M360.52,263.79h0l-189.64,5.4Z"/></clipPath><clipPath id="clip-path-11"><path class="cls-1" d="M360.52,263.8h0l-189.64,5.4Z"/></clipPath><clipPath id="clip-path-12"><path class="cls-1" d="M377.67,148.64c48.89,13.81,80.55,76.57,70.73,140.17S391,392.79,342.09,379s-80.56-76.56-70.73-140.17S328.78,134.84,377.67,148.64ZM360,262.84c-.42-.12-.82.22-.9.76a1,1,0,0,0,.6,1.19c.41.12.81-.23.9-.76a1.05,1.05,0,0,0-.6-1.19"/></clipPath><clipPath id="clip-path-13"><path class="cls-1" d="M359.85,262.81a.84.84,0,0,0-.72.79,1,1,0,0,0,.6,1.19.55.55,0,0,0,.18,0l-188.36,5.37a.4.4,0,0,1-.18,0,1,1,0,0,1-.59-1.19.83.83,0,0,1,.72-.78Z"/></clipPath><clipPath id="clip-path-14"><path class="cls-1" d="M171.5,268.19l188.35-5.38.18,0-188.35,5.37A.37.37,0,0,0,171.5,268.19Z"/></clipPath><clipPath id="clip-path-15"><path class="cls-1" d="M359.91,264.81l-188.36,5.37a.84.84,0,0,0,.73-.78,1.06,1.06,0,0,0-.6-1.19L360,262.84a1.05,1.05,0,0,1,.6,1.19A.83.83,0,0,1,359.91,264.81Z"/></clipPath><clipPath id="clip-path-16"><path class="cls-1" d="M189.32,154c48.89,13.81,80.55,76.57,70.72,140.17s-57.42,104-106.31,90.18S73.18,307.79,83,244.19,140.43,140.21,189.32,154Zm-17.64,114.2c-.42-.12-.82.22-.9.76a1,1,0,0,0,.59,1.19c.42.12.82-.22.91-.76a1.06,1.06,0,0,0-.6-1.19"/></clipPath><clipPath id="clip-path-17"><path class="cls-1" d="M168.09,151.34,356.44,146c-40.76,1.17-76.69,38.54-85.08,92.85C261.53,302.42,293.2,365.18,342.09,379a70.3,70.3,0,0,0,21.22,2.68L175,387a70.67,70.67,0,0,1-21.23-2.67C104.85,370.55,73.18,307.79,83,244.19,91.4,189.87,127.33,152.5,168.09,151.34Z"/></clipPath><clipPath id="clip-path-18"><path class="cls-1" d="M356.44,146a70.69,70.69,0,0,1,21.23,2.68L189.32,154a70.67,70.67,0,0,0-21.23-2.67Z"/></clipPath><clipPath id="clip-path-19"><path class="cls-1" d="M175,387c40.76-1.16,76.69-38.53,85.08-92.85,9.83-63.6-21.83-126.36-70.72-140.17l188.35-5.37c48.89,13.81,80.55,76.57,70.73,140.17-8.39,54.32-44.33,91.69-85.09,92.85Z"/></clipPath></defs><g class="cls-2"><g class="cls-2"><g class="cls-3"><ellipse class="cls-4" cx="170.88" cy="269.2" rx="91.03" ry="118.87" transform="translate(-7.6 4.98) rotate(-1.63)"/></g></g><g class="cls-2"><g class="cls-5"><g class="cls-2"><path class="cls-4" d="M188.83,153.06l189.63-5.41c-49.3-13.93-97.3,26.79-107.21,90.93L81.61,244C91.52,179.85,139.52,139.13,188.83,153.06Z"/><line class="cls-4" x1="141.32" y1="156.19" x2="330.96" y2="150.78"/><line class="cls-4" x1="102.86" y1="188.81" x2="292.49" y2="183.4"/><path class="cls-4" d="M81.61,244l189.64-5.41c-9.91,64.15,22,127.44,71.33,141.36l-189.64,5.41C103.64,371.43,71.7,308.14,81.61,244Z"/><line class="cls-4" x1="84.75" y1="306.06" x2="274.38" y2="300.65"/><line class="cls-4" x1="110.33" y1="356.77" x2="299.97" y2="351.36"/><path class="cls-4" d="M152.94,385.35l189.64-5.41c49.3,13.93,97.3-26.79,107.21-90.93l-189.64,5.4C250.24,358.56,202.24,399.27,152.94,385.35Z"/></g><path class="cls-4" d="M167.42,150.35,357.06,145c-41.11,1.17-77.35,38.86-85.81,93.63-9.91,64.15,22,127.44,71.33,141.36a70.85,70.85,0,0,0,21.4,2.7l-189.63,5.41a71.23,71.23,0,0,1-21.41-2.7C103.64,371.43,71.7,308.14,81.61,244,90.08,189.22,126.31,151.53,167.42,150.35Z"/></g></g><g class="cls-2"><g class="cls-6"><g class="cls-2"><path class="cls-4" d="M188.83,153.06l189.63-5.41c-49.3-13.93-97.3,26.79-107.21,90.93L81.61,244C91.52,179.85,139.52,139.13,188.83,153.06Z"/></g><path class="cls-4" d="M357.06,145a70.85,70.85,0,0,1,21.4,2.7l-189.63,5.41a70.93,70.93,0,0,0-21.41-2.71Z"/></g></g><g class="cls-2"><g class="cls-7"><g class="cls-2"><path class="cls-4" d="M152.94,385.35l189.64-5.41c49.3,13.93,97.3-26.79,107.21-90.93l-189.64,5.4C250.24,358.56,202.24,399.27,152.94,385.35Z"/><line class="cls-4" x1="200.45" y1="382.22" x2="390.08" y2="376.81"/><line class="cls-4" x1="238.91" y1="349.59" x2="428.54" y2="344.19"/><path class="cls-4" d="M260.15,294.41,449.79,289c9.91-64.15-22-127.44-71.33-141.36l-189.63,5.41C238.13,167,270.06,230.27,260.15,294.41Z"/><line class="cls-4" x1="257.02" y1="232.35" x2="446.66" y2="226.94"/><line class="cls-4" x1="231.43" y1="181.64" x2="421.07" y2="176.23"/></g><path class="cls-4" d="M174.35,388.05c41.1-1.17,77.34-38.86,85.8-93.64,9.91-64.14-22-127.43-71.32-141.35l189.63-5.41c49.31,13.92,81.24,77.21,71.33,141.36-8.46,54.77-44.7,92.46-85.81,93.63Z"/></g></g><g class="cls-2"><g class="cls-8"><path class="cls-4" d="M378.46,147.65c49.31,13.92,81.24,77.21,71.33,141.36s-57.91,104.86-107.21,90.93-81.24-77.21-71.33-141.36S329.16,133.72,378.46,147.65ZM360.52,263.8h0"/></g></g><g class="cls-2"><g class="cls-9"><g class="cls-2"><polygon class="cls-4" points="360.52 263.8 170.88 269.2 360.52 263.8 360.52 263.8"/></g><path class="cls-4" d="M170.88,269.2l189.64-5.4h0Z"/></g></g><g class="cls-2"><g class="cls-10"><g class="cls-2"><polygon class="cls-4" points="360.52 263.8 170.88 269.2 360.52 263.8 360.52 263.8"/><line class="cls-4" x1="360.52" y1="263.8" x2="170.88" y2="269.2"/><line class="cls-4" x1="360.52" y1="263.8" x2="170.88" y2="269.2"/></g><polygon class="cls-4" points="360.52 263.8 170.88 269.2 360.52 263.8 360.52 263.8"/></g></g><g class="cls-2"><g class="cls-11"><g class="cls-2"><polygon class="cls-4" points="360.52 263.8 170.88 269.2 360.52 263.8 360.52 263.8"/></g><polygon class="cls-4" points="170.88 269.2 360.52 263.8 360.52 263.8 170.88 269.2"/></g></g><g class="cls-2"><g class="cls-12"><g class="cls-2"><polygon class="cls-4" points="360.52 263.8 170.88 269.2 360.52 263.8 360.52 263.8"/><line class="cls-4" x1="360.52" y1="263.79" x2="170.88" y2="269.2"/><line class="cls-4" x1="360.52" y1="263.79" x2="170.88" y2="269.2"/></g><path class="cls-4" d="M360.52,263.79h0l-189.64,5.4Z"/></g></g><g class="cls-2"><g class="cls-10"><g class="cls-2"><polygon class="cls-4" points="360.52 263.8 170.88 269.2 360.52 263.8 360.52 263.8"/><line class="cls-4" x1="360.52" y1="263.79" x2="170.88" y2="269.2"/><line class="cls-4" x1="360.52" y1="263.79" x2="170.88" y2="269.2"/></g><polygon class="cls-4" points="360.52 263.8 170.88 269.2 360.52 263.8 360.52 263.8"/></g></g><g class="cls-2"><g class="cls-13"><g class="cls-2"><polygon class="cls-4" points="360.52 263.8 170.88 269.2 360.52 263.8 360.52 263.8"/><line class="cls-4" x1="360.52" y1="263.8" x2="170.88" y2="269.2"/><line class="cls-4" x1="360.52" y1="263.8" x2="170.88" y2="269.2"/></g><path class="cls-4" d="M360.52,263.8h0l-189.64,5.4Z"/></g></g><g class="cls-2"><g class="cls-14"><path class="cls-4" d="M377.67,148.64c48.89,13.81,80.55,76.57,70.73,140.17S391,392.79,342.09,379s-80.56-76.56-70.73-140.17S328.78,134.84,377.67,148.64ZM360,262.84c-.42-.12-.82.22-.9.76a1,1,0,0,0,.6,1.19c.41.12.81-.23.9-.76a1.05,1.05,0,0,0-.6-1.19"/></g></g><g class="cls-2"><g class="cls-15"><g class="cls-2"><path class="cls-4" d="M360,262.84l-188.35,5.37c-.42-.12-.82.22-.9.76l188.35-5.37C359.21,263.06,359.61,262.72,360,262.84Z"/><line class="cls-4" x1="359.63" y1="262.86" x2="171.28" y2="268.24"/><line class="cls-4" x1="359.31" y1="263.14" x2="170.95" y2="268.51"/><path class="cls-4" d="M359.13,263.6,170.78,269a1,1,0,0,0,.59,1.19l188.36-5.37A1,1,0,0,1,359.13,263.6Z"/><line class="cls-4" x1="359.15" y1="264.12" x2="170.8" y2="269.49"/><line class="cls-4" x1="359.37" y1="264.55" x2="171.02" y2="269.92"/><path class="cls-4" d="M359.73,264.79l-188.36,5.37c.42.12.82-.22.91-.76L360.63,264C360.54,264.56,360.14,264.91,359.73,264.79Z"/></g><path class="cls-4" d="M359.85,262.81a.84.84,0,0,0-.72.79,1,1,0,0,0,.6,1.19.55.55,0,0,0,.18,0l-188.36,5.37a.4.4,0,0,1-.18,0,1,1,0,0,1-.59-1.19.83.83,0,0,1,.72-.78Z"/></g></g><g class="cls-2"><g class="cls-16"><g class="cls-2"><path class="cls-4" d="M360,262.84l-188.35,5.37c-.42-.12-.82.22-.9.76l188.35-5.37C359.21,263.06,359.61,262.72,360,262.84Z"/></g><path class="cls-4" d="M171.5,268.19l188.35-5.38.18,0-188.35,5.37A.37.37,0,0,0,171.5,268.19Z"/></g></g><g class="cls-2"><g class="cls-17"><g class="cls-2"><path class="cls-4" d="M359.73,264.79l-188.36,5.37c.42.12.82-.22.91-.76L360.63,264C360.54,264.56,360.14,264.91,359.73,264.79Z"/><line class="cls-4" x1="360.13" y1="264.76" x2="171.77" y2="270.13"/><line class="cls-4" x1="360.45" y1="264.49" x2="172.1" y2="269.86"/><path class="cls-4" d="M360.63,264,172.28,269.4a1.06,1.06,0,0,0-.6-1.19L360,262.84A1.05,1.05,0,0,1,360.63,264Z"/><line class="cls-4" x1="360.6" y1="263.5" x2="172.25" y2="268.88"/><line class="cls-4" x1="360.39" y1="263.08" x2="172.03" y2="268.45"/></g><path class="cls-4" d="M359.91,264.81l-188.36,5.37a.84.84,0,0,0,.73-.78,1.06,1.06,0,0,0-.6-1.19L360,262.84a1.05,1.05,0,0,1,.6,1.19A.83.83,0,0,1,359.91,264.81Z"/></g></g><g class="cls-2"><g class="cls-18"><path class="cls-4" d="M189.32,154c48.89,13.81,80.55,76.57,70.72,140.17s-57.42,104-106.31,90.18S73.18,307.79,83,244.19,140.43,140.21,189.32,154Zm-17.64,114.2c-.42-.12-.82.22-.9.76a1,1,0,0,0,.59,1.19c.42.12.82-.22.91-.76a1.06,1.06,0,0,0-.6-1.19"/></g></g><g class="cls-2"><g class="cls-19"><g class="cls-2"><path class="cls-4" d="M189.32,154l188.35-5.37c-48.89-13.8-96.48,26.57-106.31,90.17L83,244.19C92.83,180.58,140.43,140.21,189.32,154Z"/><line class="cls-4" x1="142.21" y1="157.12" x2="330.56" y2="151.75"/><line class="cls-4" x1="104.07" y1="189.47" x2="292.42" y2="184.1"/><path class="cls-4" d="M83,244.19l188.35-5.38C261.53,302.42,293.2,365.18,342.09,379l-188.36,5.38C104.85,370.55,73.18,307.79,83,244.19Z"/><line class="cls-4" x1="86.11" y1="305.73" x2="274.46" y2="300.36"/><line class="cls-4" x1="111.48" y1="356.01" x2="299.84" y2="350.64"/><path class="cls-4" d="M153.73,384.36,342.09,379c48.88,13.81,96.48-26.56,106.31-90.17L260,294.18C250.22,357.79,202.62,398.16,153.73,384.36Z"/></g><path class="cls-4" d="M168.09,151.34,356.44,146c-40.76,1.17-76.69,38.54-85.08,92.85C261.53,302.42,293.2,365.18,342.09,379a70.3,70.3,0,0,0,21.22,2.68L175,387a70.67,70.67,0,0,1-21.23-2.67C104.85,370.55,73.18,307.79,83,244.19,91.4,189.87,127.33,152.5,168.09,151.34Z"/></g></g><g class="cls-2"><g class="cls-20"><g class="cls-2"><path class="cls-4" d="M189.32,154l188.35-5.37c-48.89-13.8-96.48,26.57-106.31,90.17L83,244.19C92.83,180.58,140.43,140.21,189.32,154Z"/></g><path class="cls-4" d="M356.44,146a70.69,70.69,0,0,1,21.23,2.68L189.32,154a70.67,70.67,0,0,0-21.23-2.67Z"/></g></g><g class="cls-2"><g class="cls-21"><g class="cls-2"><path class="cls-4" d="M153.73,384.36,342.09,379c48.88,13.81,96.48-26.56,106.31-90.17L260,294.18C250.22,357.79,202.62,398.16,153.73,384.36Z"/><line class="cls-4" x1="200.84" y1="381.25" x2="389.19" y2="375.88"/><line class="cls-4" x1="238.98" y1="348.9" x2="427.33" y2="343.53"/><path class="cls-4" d="M260,294.18l188.36-5.37c9.82-63.6-21.84-126.36-70.73-140.17L189.32,154C238.21,167.82,269.87,230.58,260,294.18Z"/><line class="cls-4" x1="256.94" y1="232.64" x2="445.29" y2="227.27"/><line class="cls-4" x1="231.57" y1="182.36" x2="419.92" y2="176.98"/></g><path class="cls-4" d="M175,387c40.76-1.16,76.69-38.53,85.08-92.85,9.83-63.6-21.83-126.36-70.72-140.17l188.35-5.37c48.89,13.81,80.55,76.57,70.73,140.17-8.39,54.32-44.33,91.69-85.09,92.85Z"/></g></g></g></svg>