<svg id="Calque_1" data-name="Calque 1" xmlns="http://www.w3.org/2000/svg" xmlns:xlink="http://www.w3.org/1999/xlink" viewBox="0 0 540 540"><defs><style>.cls-1,.cls-4{fill:none;}.cls-2{isolation:isolate;}.cls-3{clip-path:url(#clip-path);}.cls-4{stroke:#000;stroke-miterlimit:10;stroke-width:0.25px;}.cls-5{clip-path:url(#clip-path-2);}.cls-6{clip-path:url(#clip-path-3);}.cls-7{clip-path:url(#clip-path-4);}.cls-8{clip-path:url(#clip-path-5);}.cls-9{clip-path:url(#clip-path-6);}.cls-10{clip-path:url(#clip-path-8);}.cls-11{clip-path:url(#clip-path-10);}.cls-12{clip-path:url(#clip-path-11);}.cls-13{clip-path:url(#clip-path-12);}.cls-14{clip-path:url(#clip-path-13);}.cls-15{clip-path:url(#clip-path-14);}.cls-16{clip-path:url(#clip-path-15);}.cls-17{clip-path:url(#clip-path-16);}.cls-18{clip-path:url(#clip-path-17);}</style><clipPath id="clip-path"><ellipse class="cls-1" cx="141.87" cy="264.65" rx="118.87" ry="62.11" transform="translate(-124.83 402.63) rotate(-89.16)"/></clipPath><clipPath id="clip-path-2"><path class="cls-1" d="M143.56,145.77l251.49,3.69c-28.66-.42-55,37.4-62.05,93.1-8.12,64.09,12.32,127.58,45.66,141.82a34.15,34.15,0,0,0,13,2.85l-251.49-3.69a34.43,34.43,0,0,1-13-2.85C93.82,366.45,73.39,303,81.51,238.87,88.57,183.16,114.9,145.35,143.56,145.77Z"/></clipPath><clipPath id="clip-path-3"><path class="cls-1" d="M395.05,149.46a34.24,34.24,0,0,1,13,2.85l-251.49-3.69a34.24,34.24,0,0,0-13-2.85Z"/></clipPath><clipPath id="clip-path-4"><path class="cls-1" d="M140.19,383.54c28.66.42,55-37.4,62.05-93.11,8.12-64.08-12.32-127.57-45.65-141.81l251.49,3.69c33.34,14.24,53.78,77.73,45.65,141.82-7.06,55.71-33.39,93.52-62.05,93.1Z"/></clipPath><clipPath id="clip-path-5"><path class="cls-1" d="M408.08,152.31c33.34,14.24,53.78,77.73,45.65,141.82S412,398.62,378.66,384.38,324.88,306.65,333,242.56,374.74,138.07,408.08,152.31Zm-14.71,116h0"/></clipPath><clipPath id="clip-path-6"><polygon class="cls-1" points="393.37 268.35 141.88 264.65 393.37 268.35 393.37 268.35"/></clipPath><clipPath id="clip-path-8"><path class="cls-1" d="M393.37,268.35h0l-251.5-3.7Z"/></clipPath><clipPath id="clip-path-10"><path class="cls-1" d="M407.1,153.28c33.06,14.12,53.32,77.08,45.27,140.62S411,397.5,377.93,383.38s-53.32-77.07-45.27-140.61S374.05,139.17,407.1,153.28ZM392.64,267.36c-.28-.12-.56.22-.63.76s.1,1.07.38,1.19.56-.22.63-.76-.1-1.07-.38-1.19"/></clipPath><clipPath id="clip-path-11"><path class="cls-1" d="M392.53,267.33c-.24,0-.46.32-.52.79s.1,1.07.38,1.19l.11,0-249.79-3.67a.23.23,0,0,1-.11,0c-.28-.12-.45-.65-.38-1.19s.28-.79.52-.78Z"/></clipPath><clipPath id="clip-path-12"><path class="cls-1" d="M142.74,263.67l249.79,3.66.11,0-249.79-3.67A.22.22,0,0,0,142.74,263.67Z"/></clipPath><clipPath id="clip-path-13"><path class="cls-1" d="M392.5,269.33l-249.79-3.67c.24,0,.46-.31.52-.78s-.1-1.07-.38-1.19l249.79,3.67c.28.12.45.65.38,1.19S392.74,269.34,392.5,269.33Z"/></clipPath><clipPath id="clip-path-14"><path class="cls-1" d="M157.31,149.62c33.06,14.11,53.32,77.07,45.27,140.61s-41.39,103.6-74.44,89.48S74.82,302.64,82.88,239.1,124.26,135.5,157.31,149.62ZM142.85,263.69c-.28-.12-.56.22-.63.76s.1,1.07.38,1.19.57-.22.63-.76-.1-1.07-.38-1.19"/></clipPath><clipPath id="clip-path-15"><path class="cls-1" d="M144.4,146.79l249.79,3.67c-28.42-.42-54.52,37.07-61.53,92.31-8.05,63.54,12.21,126.49,45.27,140.61a33.82,33.82,0,0,0,12.92,2.83l-249.79-3.67a33.82,33.82,0,0,1-12.92-2.83C95.08,365.6,74.82,302.64,82.88,239.1,89.88,183.87,116,146.37,144.4,146.79Z"/></clipPath><clipPath id="clip-path-16"><path class="cls-1" d="M394.19,150.46a34,34,0,0,1,12.91,2.82l-249.79-3.66a33.81,33.81,0,0,0-12.91-2.83Z"/></clipPath><clipPath id="clip-path-17"><path class="cls-1" d="M141.06,382.54c28.41.42,54.51-37.08,61.52-92.31,8-63.54-12.21-126.5-45.27-140.61l249.79,3.66c33.06,14.12,53.32,77.08,45.27,140.62-7,55.23-33.11,92.73-61.52,92.31Z"/></clipPath></defs><g class="cls-2"><g class="cls-2"><g class="cls-3"><ellipse class="cls-4" cx="141.87" cy="264.65" rx="118.87" ry="62.11" transform="translate(-124.83 402.63) rotate(-89.16)"/></g></g><g class="cls-2"><g class="cls-5"><g class="cls-2"><path class="cls-4" d="M156.59,148.62l251.49,3.69c-33.34-14.24-66.95,26.17-75.08,90.25L81.51,238.87C89.64,174.79,123.25,134.38,156.59,148.62Z"/><line class="cls-4" x1="124.11" y1="151.45" x2="375.6" y2="155.14"/><line class="cls-4" x1="97.18" y1="183.83" x2="348.67" y2="187.52"/><path class="cls-4" d="M81.51,238.87,333,242.56c-8.12,64.09,12.32,127.58,45.66,141.82l-251.5-3.69C93.82,366.45,73.39,303,81.51,238.87Z"/><line class="cls-4" x1="82.33" y1="300.95" x2="333.82" y2="304.65"/><line class="cls-4" x1="98.7" y1="351.83" x2="350.2" y2="355.52"/><path class="cls-4" d="M127.16,380.69l251.5,3.69c33.33,14.24,66.95-26.17,75.07-90.25l-251.49-3.7C194.11,354.52,160.5,394.92,127.16,380.69Z"/></g><path class="cls-4" d="M143.56,145.77l251.49,3.69c-28.66-.42-55,37.4-62.05,93.1-8.12,64.09,12.32,127.58,45.66,141.82a34.15,34.15,0,0,0,13,2.85l-251.49-3.69a34.43,34.43,0,0,1-13-2.85C93.82,366.45,73.39,303,81.51,238.87,88.57,183.16,114.9,145.35,143.56,145.77Z"/></g></g><g class="cls-2"><g class="cls-6"><g class="cls-2"><path class="cls-4" d="M156.59,148.62l251.49,3.69c-33.34-14.24-66.95,26.17-75.08,90.25L81.51,238.87C89.64,174.79,123.25,134.38,156.59,148.62Z"/></g><path class="cls-4" d="M395.05,149.46a34.24,34.24,0,0,1,13,2.85l-251.49-3.69a34.24,34.24,0,0,0-13-2.85Z"/></g></g><g class="cls-2"><g class="cls-7"><g class="cls-2"><path class="cls-4" d="M127.16,380.69l251.5,3.69c33.33,14.24,66.95-26.17,75.07-90.25l-251.49-3.7C194.11,354.52,160.5,394.92,127.16,380.69Z"/><line class="cls-4" x1="159.64" y1="377.86" x2="411.13" y2="381.55"/><line class="cls-4" x1="186.57" y1="345.48" x2="438.06" y2="349.17"/><path class="cls-4" d="M202.24,290.43l251.49,3.7c8.13-64.09-12.31-127.58-45.65-141.82l-251.49-3.69C189.92,162.86,210.36,226.35,202.24,290.43Z"/><line class="cls-4" x1="201.42" y1="228.35" x2="452.91" y2="232.04"/><line class="cls-4" x1="185.04" y1="177.47" x2="436.54" y2="181.17"/></g><path class="cls-4" d="M140.19,383.54c28.66.42,55-37.4,62.05-93.11,8.12-64.08-12.32-127.57-45.65-141.81l251.49,3.69c33.34,14.24,53.78,77.73,45.65,141.82-7.06,55.71-33.39,93.52-62.05,93.1Z"/></g></g><g class="cls-2"><g class="cls-8"><path class="cls-4" d="M408.08,152.31c33.34,14.24,53.78,77.73,45.65,141.82S412,398.62,378.66,384.38,324.88,306.65,333,242.56,374.74,138.07,408.08,152.31Zm-14.71,116h0"/></g></g><g class="cls-2"><g class="cls-9"><g class="cls-2"><polygon class="cls-4" points="393.37 268.35 141.88 264.65 393.37 268.35 393.37 268.35"/><line class="cls-4" x1="393.37" y1="268.35" x2="141.87" y2="264.65"/><line class="cls-4" x1="393.37" y1="268.35" x2="141.87" y2="264.65"/></g><polygon class="cls-4" points="393.37 268.35 141.88 264.65 393.37 268.35 393.37 268.35"/></g></g><g class="cls-2"><g class="cls-9"><g class="cls-2"><polygon class="cls-4" points="393.37 268.35 141.88 264.65 393.37 268.35 393.37 268.35"/><line class="cls-4" x1="393.37" y1="268.35" x2="141.87" y2="264.65"/><line class="cls-4" x1="393.37" y1="268.35" x2="141.87" y2="264.65"/></g><polygon class="cls-4" points="393.37 268.35 141.88 264.65 393.37 268.35 393.37 268.35"/></g></g><g class="cls-2"><g class="cls-10"><g class="cls-2"><polygon class="cls-4" points="393.37 268.35 141.88 264.65 393.37 268.35 393.37 268.35"/><line class="cls-4" x1="393.37" y1="268.35" x2="141.87" y2="264.65"/><line class="cls-4" x1="393.37" y1="268.35" x2="141.87" y2="264.65"/></g><path class="cls-4" d="M393.37,268.35h0l-251.5-3.7Z"/></g></g><g class="cls-2"><g class="cls-10"><g class="cls-2"><polygon class="cls-4" points="393.37 268.35 141.88 264.65 393.37 268.35 393.37 268.35"/><line class="cls-4" x1="393.37" y1="268.35" x2="141.87" y2="264.65"/><line class="cls-4" x1="393.37" y1="268.35" x2="141.87" y2="264.65"/></g><path class="cls-4" d="M393.37,268.35h0l-251.5-3.7Z"/></g></g><g class="cls-2"><g class="cls-11"><path class="cls-4" d="M407.1,153.28c33.06,14.12,53.32,77.08,45.27,140.62S411,397.5,377.93,383.38s-53.32-77.07-45.27-140.61S374.05,139.17,407.1,153.28ZM392.64,267.36c-.28-.12-.56.22-.63.76s.1,1.07.38,1.19.56-.22.63-.76-.1-1.07-.38-1.19"/></g></g><g class="cls-2"><g class="cls-12"><g class="cls-2"><path class="cls-4" d="M392.64,267.36l-249.79-3.67c-.28-.12-.56.22-.63.76L392,268.12C392.08,267.58,392.36,267.24,392.64,267.36Z"/><line class="cls-4" x1="392.37" y1="267.38" x2="142.58" y2="263.71"/><line class="cls-4" x1="392.14" y1="267.65" x2="142.35" y2="263.99"/><path class="cls-4" d="M392,268.12l-249.79-3.67c-.07.54.1,1.07.38,1.19l249.79,3.67C392.11,269.19,391.94,268.66,392,268.12Z"/><line class="cls-4" x1="392.02" y1="268.64" x2="142.23" y2="264.97"/><line class="cls-4" x1="392.15" y1="269.07" x2="142.36" y2="265.4"/><path class="cls-4" d="M392.39,269.31,142.6,265.64c.28.12.57-.22.63-.76L393,268.55C393,269.09,392.67,269.43,392.39,269.31Z"/></g><path class="cls-4" d="M392.53,267.33c-.24,0-.46.32-.52.79s.1,1.07.38,1.19l.11,0-249.79-3.67a.23.23,0,0,1-.11,0c-.28-.12-.45-.65-.38-1.19s.28-.79.52-.78Z"/></g></g><g class="cls-2"><g class="cls-13"><g class="cls-2"><path class="cls-4" d="M392.64,267.36l-249.79-3.67c-.28-.12-.56.22-.63.76L392,268.12C392.08,267.58,392.36,267.24,392.64,267.36Z"/></g><path class="cls-4" d="M142.74,263.67l249.79,3.66.11,0-249.79-3.67A.22.22,0,0,0,142.74,263.67Z"/></g></g><g class="cls-2"><g class="cls-14"><g class="cls-2"><path class="cls-4" d="M392.39,269.31,142.6,265.64c.28.12.57-.22.63-.76L393,268.55C393,269.09,392.67,269.43,392.39,269.31Z"/><line class="cls-4" x1="392.67" y1="269.28" x2="142.88" y2="265.62"/><line class="cls-4" x1="392.89" y1="269.01" x2="143.1" y2="265.34"/><path class="cls-4" d="M393,268.55l-249.79-3.67c.07-.54-.1-1.07-.38-1.19l249.79,3.67C392.92,267.48,393.09,268,393,268.55Z"/><line class="cls-4" x1="393.02" y1="268.03" x2="143.23" y2="264.36"/><line class="cls-4" x1="392.88" y1="267.6" x2="143.09" y2="263.93"/></g><path class="cls-4" d="M392.5,269.33l-249.79-3.67c.24,0,.46-.31.52-.78s-.1-1.07-.38-1.19l249.79,3.67c.28.12.45.65.38,1.19S392.74,269.34,392.5,269.33Z"/></g></g><g class="cls-2"><g class="cls-15"><path class="cls-4" d="M157.31,149.62c33.06,14.11,53.32,77.07,45.27,140.61s-41.39,103.6-74.44,89.48S74.82,302.64,82.88,239.1,124.26,135.5,157.31,149.62ZM142.85,263.69c-.28-.12-.56.22-.63.76s.1,1.07.38,1.19.57-.22.63-.76-.1-1.07-.38-1.19"/></g></g><g class="cls-2"><g class="cls-16"><g class="cls-2"><path class="cls-4" d="M157.31,149.62l249.79,3.66c-33.05-14.11-66.38,25.95-74.44,89.49L82.88,239.1C90.93,175.56,124.26,135.5,157.31,149.62Z"/><line class="cls-4" x1="125.11" y1="152.42" x2="374.9" y2="156.09"/><line class="cls-4" x1="98.41" y1="184.52" x2="348.2" y2="188.19"/><path class="cls-4" d="M82.88,239.1l249.78,3.67c-8.05,63.54,12.21,126.49,45.27,140.61l-249.79-3.67C95.08,365.6,74.82,302.64,82.88,239.1Z"/><line class="cls-4" x1="83.68" y1="300.66" x2="333.47" y2="304.33"/><line class="cls-4" x1="99.92" y1="351.1" x2="349.71" y2="354.77"/><path class="cls-4" d="M128.14,379.71l249.79,3.67c33.05,14.12,66.38-25.94,74.44-89.48l-249.79-3.67C194.52,353.77,161.19,393.83,128.14,379.71Z"/></g><path class="cls-4" d="M144.4,146.79l249.79,3.67c-28.42-.42-54.52,37.07-61.53,92.31-8.05,63.54,12.21,126.49,45.27,140.61a33.82,33.82,0,0,0,12.92,2.83l-249.79-3.67a33.82,33.82,0,0,1-12.92-2.83C95.08,365.6,74.82,302.64,82.88,239.1,89.88,183.87,116,146.37,144.4,146.79Z"/></g></g><g class="cls-2"><g class="cls-17"><g class="cls-2"><path class="cls-4" d="M157.31,149.62l249.79,3.66c-33.05-14.11-66.38,25.95-74.44,89.49L82.88,239.1C90.93,175.56,124.26,135.5,157.31,149.62Z"/></g><path class="cls-4" d="M394.19,150.46a34,34,0,0,1,12.91,2.82l-249.79-3.66a33.81,33.81,0,0,0-12.91-2.83Z"/></g></g><g class="cls-2"><g class="cls-18"><g class="cls-2"><path class="cls-4" d="M128.14,379.71l249.79,3.67c33.05,14.12,66.38-25.94,74.44-89.48l-249.79-3.67C194.52,353.77,161.19,393.83,128.14,379.71Z"/><line class="cls-4" x1="160.34" y1="376.91" x2="410.13" y2="380.58"/><line class="cls-4" x1="187.04" y1="344.8" x2="436.83" y2="348.47"/><path class="cls-4" d="M202.58,290.23l249.79,3.67c8.05-63.54-12.21-126.5-45.27-140.62l-249.79-3.66C190.37,163.73,210.63,226.69,202.58,290.23Z"/><line class="cls-4" x1="201.77" y1="228.67" x2="451.56" y2="232.34"/><line class="cls-4" x1="185.53" y1="178.23" x2="435.32" y2="181.89"/></g><path class="cls-4" d="M141.06,382.54c28.41.42,54.51-37.08,61.52-92.31,8-63.54-12.21-126.5-45.27-140.61l249.79,3.66c33.06,14.12,53.32,77.08,45.27,140.62-7,55.23-33.11,92.73-61.52,92.31Z"/></g></g></g></svg>