<svg id="Calque_1" data-name="Calque 1" xmlns="http://www.w3.org/2000/svg" xmlns:xlink="http://www.w3.org/1999/xlink" viewBox="0 0 540 540"><defs><style>.cls-1,.cls-4{fill:none;}.cls-2{isolation:isolate;}.cls-3{clip-path:url(#clip-path);}.cls-4{stroke:#000;stroke-miterlimit:10;stroke-width:0.25px;}.cls-5{clip-path:url(#clip-path-2);}.cls-6{clip-path:url(#clip-path-3);}.cls-7{clip-path:url(#clip-path-4);}.cls-8{clip-path:url(#clip-path-5);}.cls-9{clip-path:url(#clip-path-6);}.cls-10{clip-path:url(#clip-path-7);}.cls-11{clip-path:url(#clip-path-8);}.cls-12{clip-path:url(#clip-path-10);}.cls-13{clip-path:url(#clip-path-12);}.cls-14{clip-path:url(#clip-path-13);}.cls-15{clip-path:url(#clip-path-14);}.cls-16{clip-path:url(#clip-path-15);}.cls-17{clip-path:url(#clip-path-16);}.cls-18{clip-path:url(#clip-path-17);}.cls-19{clip-path:url(#clip-path-18);}.cls-20{clip-path:url(#clip-path-19);}</style><clipPath id="clip-path"><ellipse class="cls-1" cx="130.34" cy="266.64" rx="39.33" ry="118.87" transform="translate(-0.27 0.13) rotate(-0.06)"/></clipPath><clipPath id="clip-path-2"><path class="cls-1" d="M130.18,147.75l278.38-.29C390.34,147.48,374,186,370.21,242c-4.4,64.25,9.29,127.25,30.56,140.7a15,15,0,0,0,8.11,2.55l-278.38.29a15.09,15.09,0,0,1-8.11-2.55c-21.27-13.45-35-76.45-30.56-140.71C95.66,186.25,112,147.77,130.18,147.75Z"/></clipPath><clipPath id="clip-path-3"><path class="cls-1" d="M408.56,147.46a15,15,0,0,1,8.11,2.55l-278.38.28a15,15,0,0,0-8.11-2.54Z"/></clipPath><clipPath id="clip-path-4"><path class="cls-1" d="M130.5,385.54c18.22,0,34.53-38.51,38.36-94.54,4.39-64.25-9.29-127.25-30.57-140.71L416.67,150c21.28,13.45,35,76.45,30.57,140.71-3.83,56-20.14,94.51-38.36,94.53Z"/></clipPath><clipPath id="clip-path-5"><path class="cls-1" d="M416.67,150c21.28,13.45,35,76.45,30.57,140.71s-25.2,105.44-46.47,92-35-76.45-30.56-140.7S395.4,136.55,416.67,150Zm-7.95,116.35h0"/></clipPath><clipPath id="clip-path-6"><path class="cls-1" d="M408.72,266.36l-278.38.28,278.38-.28Z"/></clipPath><clipPath id="clip-path-7"><path class="cls-1" d="M130.34,266.64l278.38-.28h0Z"/></clipPath><clipPath id="clip-path-8"><path class="cls-1" d="M408.72,266.36h0l-278.38.28Z"/></clipPath><clipPath id="clip-path-10"><polygon class="cls-1" points="408.72 266.36 130.34 266.64 408.72 266.36 408.72 266.36"/></clipPath><clipPath id="clip-path-12"><path class="cls-1" d="M415.67,151c21.09,13.34,34.66,75.81,30.3,139.52s-25,104.56-46.08,91.22-34.66-75.81-30.3-139.53S394.57,137.65,415.67,151Zm-7.82,114.39c-.18-.11-.36.23-.39.77s.07,1.07.25,1.18.36-.23.39-.77a1.62,1.62,0,0,0-.25-1.18"/></clipPath><clipPath id="clip-path-13"><path class="cls-1" d="M407.78,265.36c-.16,0-.29.32-.32.79s.07,1.07.25,1.18l.07,0-276.49.28-.07,0c-.18-.11-.3-.64-.26-1.18s.17-.8.32-.8Z"/></clipPath><clipPath id="clip-path-14"><path class="cls-1" d="M131.28,265.64l276.5-.28.07,0-276.5.28Z"/></clipPath><clipPath id="clip-path-15"><path class="cls-1" d="M407.78,267.36l-276.49.28c.15,0,.29-.32.32-.79a1.65,1.65,0,0,0-.26-1.19l276.5-.28a1.62,1.62,0,0,1,.25,1.18C408.07,267,407.93,267.36,407.78,267.36Z"/></clipPath><clipPath id="clip-path-16"><path class="cls-1" d="M139.17,151.27c21.09,13.34,34.66,75.81,30.31,139.53s-25,104.55-46.08,91.21S88.74,306.2,93.09,242.49,118.08,137.93,139.17,151.27Zm-7.82,114.39c-.18-.11-.35.24-.39.78s.08,1.07.26,1.18.35-.23.39-.77a1.65,1.65,0,0,0-.26-1.19"/></clipPath><clipPath id="clip-path-17"><path class="cls-1" d="M131.12,148.74l276.5-.28c-18.06,0-34.23,38.18-38,93.74-4.36,63.72,9.21,126.19,30.3,139.53a14.85,14.85,0,0,0,8.05,2.52l-276.5.29a14.92,14.92,0,0,1-8-2.53c-21.1-13.34-34.66-75.81-30.31-139.52C96.89,186.93,113.06,148.76,131.12,148.74Z"/></clipPath><clipPath id="clip-path-18"><path class="cls-1" d="M407.62,148.46a15,15,0,0,1,8.05,2.53l-276.5.28a14.93,14.93,0,0,0-8-2.53Z"/></clipPath><clipPath id="clip-path-19"><path class="cls-1" d="M131.44,384.54c18.07,0,34.24-38.18,38-93.74,4.35-63.72-9.22-126.19-30.31-139.53l276.5-.28c21.09,13.34,34.66,75.81,30.3,139.52-3.8,55.56-20,93.73-38,93.74Z"/></clipPath></defs><g class="cls-2"><g class="cls-2"><g class="cls-3"><ellipse class="cls-4" cx="130.34" cy="266.64" rx="39.33" ry="118.87" transform="translate(-0.27 0.13) rotate(-0.06)"/></g></g><g class="cls-2"><g class="cls-5"><g class="cls-2"><path class="cls-4" d="M138.29,150.29,416.67,150c-21.27-13.46-42.07,27.73-46.46,92l-278.38.28C96.22,178,117,136.84,138.29,150.29Z"/><line class="cls-4" x1="117.77" y1="153.88" x2="396.15" y2="153.6"/><line class="cls-4" x1="101.1" y1="186.88" x2="379.48" y2="186.6"/><path class="cls-4" d="M91.83,242.28,370.21,242c-4.4,64.25,9.29,127.25,30.56,140.7L122.39,383C101.12,369.54,87.43,306.54,91.83,242.28Z"/><line class="cls-4" x1="93.07" y1="304.33" x2="371.45" y2="304.04"/><line class="cls-4" x1="104.03" y1="354.81" x2="382.41" y2="354.52"/><path class="cls-4" d="M122.39,383l278.38-.29c21.27,13.46,42.07-27.73,46.47-92L168.86,291C164.46,355.26,143.66,396.44,122.39,383Z"/></g><path class="cls-4" d="M130.18,147.75l278.38-.29C390.34,147.48,374,186,370.21,242c-4.4,64.25,9.29,127.25,30.56,140.7a15,15,0,0,0,8.11,2.55l-278.38.29a15.09,15.09,0,0,1-8.11-2.55c-21.27-13.45-35-76.45-30.56-140.71C95.66,186.25,112,147.77,130.18,147.75Z"/></g></g><g class="cls-2"><g class="cls-6"><g class="cls-2"><path class="cls-4" d="M138.29,150.29,416.67,150c-21.27-13.46-42.07,27.73-46.46,92l-278.38.28C96.22,178,117,136.84,138.29,150.29Z"/></g><path class="cls-4" d="M408.56,147.46a15,15,0,0,1,8.11,2.55l-278.38.28a15,15,0,0,0-8.11-2.54Z"/></g></g><g class="cls-2"><g class="cls-7"><g class="cls-2"><path class="cls-4" d="M122.39,383l278.38-.29c21.27,13.46,42.07-27.73,46.47-92L168.86,291C164.46,355.26,143.66,396.44,122.39,383Z"/><line class="cls-4" x1="142.91" y1="379.4" x2="421.29" y2="379.12"/><line class="cls-4" x1="159.58" y1="346.4" x2="437.96" y2="346.11"/><path class="cls-4" d="M168.86,291l278.38-.28C451.63,226.46,438,163.46,416.67,150l-278.38.28C159.57,163.75,173.25,226.75,168.86,291Z"/><line class="cls-4" x1="167.61" y1="228.95" x2="445.99" y2="228.67"/><line class="cls-4" x1="156.65" y1="178.47" x2="435.03" y2="178.19"/></g><path class="cls-4" d="M130.5,385.54c18.22,0,34.53-38.51,38.36-94.54,4.39-64.25-9.29-127.25-30.57-140.71L416.67,150c21.28,13.45,35,76.45,30.57,140.71-3.83,56-20.14,94.51-38.36,94.53Z"/></g></g><g class="cls-2"><g class="cls-8"><path class="cls-4" d="M416.67,150c21.28,13.45,35,76.45,30.57,140.71s-25.2,105.44-46.47,92-35-76.45-30.56-140.7S395.4,136.55,416.67,150Zm-7.95,116.35h0"/></g></g><g class="cls-2"><g class="cls-9"><g class="cls-2"><polygon class="cls-4" points="408.72 266.36 130.34 266.64 408.72 266.36 408.72 266.36"/><line class="cls-4" x1="408.72" y1="266.36" x2="130.34" y2="266.64"/><line class="cls-4" x1="408.72" y1="266.36" x2="130.34" y2="266.64"/></g><path class="cls-4" d="M408.72,266.36l-278.38.28,278.38-.28Z"/></g></g><g class="cls-2"><g class="cls-10"><g class="cls-2"><polygon class="cls-4" points="408.72 266.36 130.34 266.64 408.72 266.36 408.72 266.36"/></g><path class="cls-4" d="M130.34,266.64l278.38-.28h0Z"/></g></g><g class="cls-2"><g class="cls-11"><g class="cls-2"><polygon class="cls-4" points="408.72 266.36 130.34 266.64 408.72 266.36 408.72 266.36"/><line class="cls-4" x1="408.72" y1="266.36" x2="130.34" y2="266.64"/><line class="cls-4" x1="408.72" y1="266.36" x2="130.34" y2="266.64"/></g><path class="cls-4" d="M408.72,266.36h0l-278.38.28Z"/></g></g><g class="cls-2"><g class="cls-10"><g class="cls-2"><polygon class="cls-4" points="408.72 266.36 130.34 266.64 408.72 266.36 408.72 266.36"/></g><path class="cls-4" d="M130.34,266.64l278.38-.28h0Z"/></g></g><g class="cls-2"><g class="cls-12"><g class="cls-2"><polygon class="cls-4" points="408.72 266.36 130.34 266.64 408.72 266.36 408.72 266.36"/><line class="cls-4" x1="408.72" y1="266.36" x2="130.34" y2="266.64"/><line class="cls-4" x1="408.72" y1="266.36" x2="130.34" y2="266.64"/></g><polygon class="cls-4" points="408.72 266.36 130.34 266.64 408.72 266.36 408.72 266.36"/></g></g><g class="cls-2"><g class="cls-11"><g class="cls-2"><polygon class="cls-4" points="408.72 266.36 130.34 266.64 408.72 266.36 408.72 266.36"/><line class="cls-4" x1="408.72" y1="266.36" x2="130.34" y2="266.64"/><line class="cls-4" x1="408.72" y1="266.36" x2="130.34" y2="266.64"/></g><path class="cls-4" d="M408.72,266.36h0l-278.38.28Z"/></g></g><g class="cls-2"><g class="cls-13"><path class="cls-4" d="M415.67,151c21.09,13.34,34.66,75.81,30.3,139.52s-25,104.56-46.08,91.22-34.66-75.81-30.3-139.53S394.57,137.65,415.67,151Zm-7.82,114.39c-.18-.11-.36.23-.39.77s.07,1.07.25,1.18.36-.23.39-.77a1.62,1.62,0,0,0-.25-1.18"/></g></g><g class="cls-2"><g class="cls-14"><g class="cls-2"><path class="cls-4" d="M407.85,265.38l-276.5.28c-.18-.11-.35.24-.39.78l276.5-.29C407.49,265.61,407.67,265.27,407.85,265.38Z"/><line class="cls-4" x1="407.67" y1="265.41" x2="131.18" y2="265.69"/><line class="cls-4" x1="407.53" y1="265.69" x2="131.04" y2="265.97"/><path class="cls-4" d="M407.46,266.15l-276.5.29c0,.54.08,1.07.26,1.18l276.49-.29C407.53,267.22,407.42,266.69,407.46,266.15Z"/><line class="cls-4" x1="407.47" y1="266.67" x2="130.97" y2="266.96"/><line class="cls-4" x1="407.56" y1="267.1" x2="131.06" y2="267.38"/><path class="cls-4" d="M407.71,267.33l-276.49.29c.18.11.35-.23.39-.77l276.49-.29C408.07,267.1,407.89,267.45,407.71,267.33Z"/></g><path class="cls-4" d="M407.78,265.36c-.16,0-.29.32-.32.79s.07,1.07.25,1.18l.07,0-276.49.28-.07,0c-.18-.11-.3-.64-.26-1.18s.17-.8.32-.8Z"/></g></g><g class="cls-2"><g class="cls-15"><g class="cls-2"><path class="cls-4" d="M407.85,265.38l-276.5.28c-.18-.11-.35.24-.39.78l276.5-.29C407.49,265.61,407.67,265.27,407.85,265.38Z"/></g><path class="cls-4" d="M131.28,265.64l276.5-.28.07,0-276.5.28Z"/></g></g><g class="cls-2"><g class="cls-16"><g class="cls-2"><path class="cls-4" d="M407.71,267.33l-276.49.29c.18.11.35-.23.39-.77l276.49-.29C408.07,267.1,407.89,267.45,407.71,267.33Z"/><line class="cls-4" x1="407.88" y1="267.3" x2="131.39" y2="267.59"/><line class="cls-4" x1="408.02" y1="267.03" x2="131.53" y2="267.31"/><path class="cls-4" d="M408.1,266.56l-276.49.29a1.65,1.65,0,0,0-.26-1.19l276.5-.28A1.62,1.62,0,0,1,408.1,266.56Z"/><line class="cls-4" x1="408.09" y1="266.04" x2="131.6" y2="266.32"/><line class="cls-4" x1="408" y1="265.62" x2="131.5" y2="265.9"/></g><path class="cls-4" d="M407.78,267.36l-276.49.28c.15,0,.29-.32.32-.79a1.65,1.65,0,0,0-.26-1.19l276.5-.28a1.62,1.62,0,0,1,.25,1.18C408.07,267,407.93,267.36,407.78,267.36Z"/></g></g><g class="cls-2"><g class="cls-17"><path class="cls-4" d="M139.17,151.27c21.09,13.34,34.66,75.81,30.31,139.53s-25,104.55-46.08,91.21S88.74,306.2,93.09,242.49,118.08,137.93,139.17,151.27Zm-7.82,114.39c-.18-.11-.35.24-.39.78s.08,1.07.26,1.18.35-.23.39-.77a1.65,1.65,0,0,0-.26-1.19"/></g></g><g class="cls-2"><g class="cls-18"><g class="cls-2"><path class="cls-4" d="M139.17,151.27l276.5-.28c-21.1-13.34-41.73,27.49-46.08,91.21l-276.5.29C97.45,178.77,118.08,137.93,139.17,151.27Z"/><line class="cls-4" x1="118.82" y1="154.83" x2="395.31" y2="154.55"/><line class="cls-4" x1="102.29" y1="187.55" x2="378.78" y2="187.27"/><path class="cls-4" d="M93.09,242.49l276.5-.29c-4.36,63.72,9.21,126.19,30.3,139.53L123.4,382C102.3,368.67,88.74,306.2,93.09,242.49Z"/><line class="cls-4" x1="94.33" y1="304.01" x2="370.82" y2="303.73"/><line class="cls-4" x1="105.2" y1="354.07" x2="381.69" y2="353.78"/><path class="cls-4" d="M123.4,382l276.49-.28c21.1,13.34,41.73-27.5,46.08-91.22l-276.49.29C165.12,354.51,144.49,395.35,123.4,382Z"/></g><path class="cls-4" d="M131.12,148.74l276.5-.28c-18.06,0-34.23,38.18-38,93.74-4.36,63.72,9.21,126.19,30.3,139.53a14.85,14.85,0,0,0,8.05,2.52l-276.5.29a14.92,14.92,0,0,1-8-2.53c-21.1-13.34-34.66-75.81-30.31-139.52C96.89,186.93,113.06,148.76,131.12,148.74Z"/></g></g><g class="cls-2"><g class="cls-19"><g class="cls-2"><path class="cls-4" d="M139.17,151.27l276.5-.28c-21.1-13.34-41.73,27.49-46.08,91.21l-276.5.29C97.45,178.77,118.08,137.93,139.17,151.27Z"/></g><path class="cls-4" d="M407.62,148.46a15,15,0,0,1,8.05,2.53l-276.5.28a14.93,14.93,0,0,0-8-2.53Z"/></g></g><g class="cls-2"><g class="cls-20"><g class="cls-2"><path class="cls-4" d="M123.4,382l276.49-.28c21.1,13.34,41.73-27.5,46.08-91.22l-276.49.29C165.12,354.51,144.49,395.35,123.4,382Z"/><line class="cls-4" x1="143.75" y1="378.45" x2="420.25" y2="378.17"/><line class="cls-4" x1="160.28" y1="345.73" x2="436.78" y2="345.45"/><path class="cls-4" d="M169.48,290.8,446,290.51c4.36-63.71-9.21-126.18-30.3-139.52l-276.5.28C160.26,164.61,173.83,227.08,169.48,290.8Z"/><line class="cls-4" x1="168.24" y1="229.27" x2="444.74" y2="228.99"/><line class="cls-4" x1="157.37" y1="179.21" x2="433.86" y2="178.93"/></g><path class="cls-4" d="M131.44,384.54c18.07,0,34.24-38.18,38-93.74,4.35-63.72-9.22-126.19-30.31-139.53l276.5-.28c21.09,13.34,34.66,75.81,30.3,139.52-3.8,55.56-20,93.73-38,93.74Z"/></g></g></g></svg>