<svg id="Calque_1" data-name="Calque 1" xmlns="http://www.w3.org/2000/svg" xmlns:xlink="http://www.w3.org/1999/xlink" viewBox="0 0 540 540"><defs><style>.cls-1,.cls-4{fill:none;}.cls-2{isolation:isolate;}.cls-3{clip-path:url(#clip-path);}.cls-4{stroke:#000;stroke-miterlimit:10;stroke-width:0.25px;}.cls-5{clip-path:url(#clip-path-2);}.cls-6{clip-path:url(#clip-path-3);}.cls-7{clip-path:url(#clip-path-4);}.cls-8{clip-path:url(#clip-path-5);}.cls-9{clip-path:url(#clip-path-6);}.cls-10{clip-path:url(#clip-path-7);}.cls-11{clip-path:url(#clip-path-8);}.cls-12{clip-path:url(#clip-path-10);}.cls-13{clip-path:url(#clip-path-11);}.cls-14{clip-path:url(#clip-path-12);}.cls-15{clip-path:url(#clip-path-13);}.cls-16{clip-path:url(#clip-path-14);}.cls-17{clip-path:url(#clip-path-15);}.cls-18{clip-path:url(#clip-path-16);}.cls-19{clip-path:url(#clip-path-17);}</style><clipPath id="clip-path"><ellipse class="cls-1" cx="116.25" cy="266.11" rx="118.86" ry="15.7" transform="translate(-150.17 381.66) rotate(-89.85)"/></clipPath><clipPath id="clip-path-2"><path class="cls-1" d="M116.55,147.23,409,148c-7.31,0-14,38.9-15.62,95.29-1.88,64.34,3.45,127.06,11.91,140.09,1,1.61,2.09,2.39,3.12,2.39L116,385c-1,0-2.07-.78-3.12-2.39-8.46-13-13.79-75.75-11.91-140.09C102.58,186.13,109.23,147.21,116.55,147.23Z"/></clipPath><clipPath id="clip-path-3"><path class="cls-1" d="M409,148c1,0,2.08.78,3.12,2.39l-292.4-.77c-1-1.61-2.09-2.39-3.12-2.39Z"/></clipPath><clipPath id="clip-path-4"><path class="cls-1" d="M116,385c7.32,0,14-38.9,15.62-95.29,1.89-64.34-3.44-127.06-11.9-140.09l292.4.77c8.47,13,13.8,75.75,11.91,140.09-1.66,56.39-8.31,95.31-15.62,95.29Z"/></clipPath><clipPath id="clip-path-5"><path class="cls-1" d="M412.07,150.39c8.47,13,13.8,75.75,11.91,140.09s-10.28,105.93-18.74,92.9-13.79-75.75-11.91-140.09S403.61,137.36,412.07,150.39Zm-3.41,116.5h0"/></clipPath><clipPath id="clip-path-6"><path class="cls-1" d="M408.66,266.89l-292.41-.78,292.41.78Z"/></clipPath><clipPath id="clip-path-7"><path class="cls-1" d="M116.25,266.11l292.41.78h0Z"/></clipPath><clipPath id="clip-path-8"><path class="cls-1" d="M408.66,266.89h0l-292.41-.78Z"/></clipPath><clipPath id="clip-path-10"><path class="cls-1" d="M411.06,151.36c8.39,12.93,13.67,75.12,11.8,138.92s-10.19,105-18.58,92.12-13.68-75.11-11.81-138.91S402.66,138.44,411.06,151.36ZM407.7,265.9c-.08-.11-.15.24-.16.78a3.44,3.44,0,0,0,.1,1.18c.07.11.14-.24.16-.78a3.77,3.77,0,0,0-.1-1.18"/></clipPath><clipPath id="clip-path-11"><path class="cls-1" d="M407.67,265.88c-.06,0-.12.33-.13.8a3.44,3.44,0,0,0,.1,1.18l0,0-290.42-.77s0,0,0,0a3.37,3.37,0,0,1-.1-1.17c0-.48.07-.8.13-.8Z"/></clipPath><clipPath id="clip-path-12"><path class="cls-1" d="M117.24,265.12l290.43.76,0,0-290.43-.76S117.25,265.12,117.24,265.12Z"/></clipPath><clipPath id="clip-path-13"><path class="cls-1" d="M407.66,267.88l-290.42-.77c.06,0,.11-.32.13-.8a3.69,3.69,0,0,0-.1-1.17l290.43.76a3.77,3.77,0,0,1,.1,1.18C407.78,267.55,407.73,267.88,407.66,267.88Z"/></clipPath><clipPath id="clip-path-14"><path class="cls-1" d="M120.63,150.6c8.39,12.92,13.67,75.11,11.8,138.91s-10.19,105.05-18.58,92.12S100.17,306.52,102,242.72,112.24,137.68,120.63,150.6Zm-3.36,114.54c-.07-.11-.14.24-.16.78a3.37,3.37,0,0,0,.1,1.17c.07.11.14-.24.16-.78a3.69,3.69,0,0,0-.1-1.17"/></clipPath><clipPath id="clip-path-15"><path class="cls-1" d="M117.53,148.23,408,149c-7.25,0-13.85,38.57-15.49,94.49-1.87,63.8,3.42,126,11.81,138.91,1,1.6,2.07,2.37,3.09,2.37L116.94,384c-1,0-2-.77-3.09-2.37-8.39-12.92-13.68-75.11-11.81-138.91C103.68,186.8,110.28,148.21,117.53,148.23Z"/></clipPath><clipPath id="clip-path-16"><path class="cls-1" d="M408,149c1,0,2.06.77,3.1,2.36l-290.43-.76c-1-1.6-2.07-2.37-3.1-2.37Z"/></clipPath><clipPath id="clip-path-17"><path class="cls-1" d="M116.94,384c7.26,0,13.85-38.57,15.49-94.49,1.87-63.8-3.41-126-11.8-138.91l290.43.76c8.39,12.93,13.67,75.12,11.8,138.92-1.64,55.92-8.23,94.51-15.49,94.49Z"/></clipPath></defs><g class="cls-2"><g class="cls-2"><g class="cls-3"><ellipse class="cls-4" cx="116.25" cy="266.11" rx="118.86" ry="15.7" transform="translate(-150.17 381.66) rotate(-89.85)"/></g></g><g class="cls-2"><g class="cls-5"><g class="cls-2"><path class="cls-4" d="M119.67,149.62l292.4.77c-8.46-13-16.85,28.56-18.74,92.9l-292.41-.77C102.81,178.18,111.2,136.59,119.67,149.62Z"/><line class="cls-4" x1="111.47" y1="153.61" x2="403.87" y2="154.38"/><line class="cls-4" x1="104.74" y1="186.94" x2="397.15" y2="187.71"/><path class="cls-4" d="M100.92,242.52l292.41.77c-1.88,64.34,3.45,127.06,11.91,140.09l-292.41-.77C104.37,369.58,99,306.86,100.92,242.52Z"/><line class="cls-4" x1="101.29" y1="304.54" x2="393.7" y2="305.31"/><line class="cls-4" x1="105.56" y1="354.8" x2="397.97" y2="355.57"/><path class="cls-4" d="M112.83,382.61l292.41.77c8.46,13,16.85-28.56,18.74-92.9l-292.41-.77C129.68,354.05,121.29,395.64,112.83,382.61Z"/></g><path class="cls-4" d="M116.55,147.23,409,148c-7.31,0-14,38.9-15.62,95.29-1.88,64.34,3.45,127.06,11.91,140.09,1,1.61,2.09,2.39,3.12,2.39L116,385c-1,0-2.07-.78-3.12-2.39-8.46-13-13.79-75.75-11.91-140.09C102.58,186.13,109.23,147.21,116.55,147.23Z"/></g></g><g class="cls-2"><g class="cls-6"><g class="cls-2"><path class="cls-4" d="M119.67,149.62l292.4.77c-8.46-13-16.85,28.56-18.74,92.9l-292.41-.77C102.81,178.18,111.2,136.59,119.67,149.62Z"/></g><path class="cls-4" d="M409,148c1,0,2.08.78,3.12,2.39l-292.4-.77c-1-1.61-2.09-2.39-3.12-2.39Z"/></g></g><g class="cls-2"><g class="cls-7"><g class="cls-2"><path class="cls-4" d="M112.83,382.61l292.41.77c8.46,13,16.85-28.56,18.74-92.9l-292.41-.77C129.68,354.05,121.29,395.64,112.83,382.61Z"/><line class="cls-4" x1="121.03" y1="378.61" x2="413.44" y2="379.39"/><line class="cls-4" x1="127.75" y1="345.28" x2="420.16" y2="346.06"/><path class="cls-4" d="M131.57,289.71l292.41.77c1.89-64.34-3.44-127.06-11.91-140.09l-292.4-.77C128.13,162.65,133.46,225.37,131.57,289.71Z"/><line class="cls-4" x1="131.2" y1="227.69" x2="423.61" y2="228.46"/><line class="cls-4" x1="126.93" y1="177.43" x2="419.34" y2="178.2"/></g><path class="cls-4" d="M116,385c7.32,0,14-38.9,15.62-95.29,1.89-64.34-3.44-127.06-11.9-140.09l292.4.77c8.47,13,13.8,75.75,11.91,140.09-1.66,56.39-8.31,95.31-15.62,95.29Z"/></g></g><g class="cls-2"><g class="cls-8"><path class="cls-4" d="M412.07,150.39c8.47,13,13.8,75.75,11.91,140.09s-10.28,105.93-18.74,92.9-13.79-75.75-11.91-140.09S403.61,137.36,412.07,150.39Zm-3.41,116.5h0"/></g></g><g class="cls-2"><g class="cls-9"><g class="cls-2"><polygon class="cls-4" points="408.66 266.88 116.25 266.11 408.66 266.88 408.66 266.88"/><line class="cls-4" x1="408.66" y1="266.89" x2="116.25" y2="266.11"/><line class="cls-4" x1="408.66" y1="266.89" x2="116.25" y2="266.11"/><polygon class="cls-4" points="408.66 266.88 116.25 266.11 408.66 266.88 408.66 266.88"/><line class="cls-4" x1="408.66" y1="266.89" x2="116.25" y2="266.11"/><line class="cls-4" x1="408.66" y1="266.89" x2="116.25" y2="266.11"/></g><path class="cls-4" d="M408.66,266.89l-292.41-.78,292.41.78Z"/></g></g><g class="cls-2"><g class="cls-10"><g class="cls-2"><polygon class="cls-4" points="408.66 266.88 116.25 266.11 408.66 266.88 408.66 266.88"/></g><path class="cls-4" d="M116.25,266.11l292.41.78h0Z"/></g></g><g class="cls-2"><g class="cls-11"><g class="cls-2"><polygon class="cls-4" points="408.66 266.88 116.25 266.11 408.66 266.88 408.66 266.88"/><line class="cls-4" x1="408.66" y1="266.89" x2="116.25" y2="266.11"/><line class="cls-4" x1="408.66" y1="266.89" x2="116.25" y2="266.11"/><polygon class="cls-4" points="408.66 266.88 116.25 266.11 408.66 266.88 408.66 266.88"/><line class="cls-4" x1="408.66" y1="266.89" x2="116.25" y2="266.11"/><line class="cls-4" x1="408.66" y1="266.89" x2="116.25" y2="266.11"/></g><path class="cls-4" d="M408.66,266.89h0l-292.41-.78Z"/></g></g><g class="cls-2"><g class="cls-10"><g class="cls-2"><polygon class="cls-4" points="408.66 266.88 116.25 266.11 408.66 266.88 408.66 266.88"/></g><path class="cls-4" d="M116.25,266.11l292.41.78h0Z"/></g></g><g class="cls-2"><g class="cls-12"><path class="cls-4" d="M411.06,151.36c8.39,12.93,13.67,75.12,11.8,138.92s-10.19,105-18.58,92.12-13.68-75.11-11.81-138.91S402.66,138.44,411.06,151.36ZM407.7,265.9c-.08-.11-.15.24-.16.78a3.44,3.44,0,0,0,.1,1.18c.07.11.14-.24.16-.78a3.77,3.77,0,0,0-.1-1.18"/></g></g><g class="cls-2"><g class="cls-13"><g class="cls-2"><path class="cls-4" d="M407.7,265.9l-290.43-.76c-.07-.11-.14.24-.16.78l290.43.76C407.55,266.14,407.62,265.79,407.7,265.9Z"/><line class="cls-4" x1="407.63" y1="265.94" x2="117.2" y2="265.17"/><line class="cls-4" x1="407.57" y1="266.22" x2="117.14" y2="265.45"/><path class="cls-4" d="M407.54,266.68l-290.43-.76a3.37,3.37,0,0,0,.1,1.17l290.43.77A3.44,3.44,0,0,1,407.54,266.68Z"/><line class="cls-4" x1="407.54" y1="267.21" x2="117.11" y2="266.44"/><line class="cls-4" x1="407.58" y1="267.63" x2="117.15" y2="266.86"/><path class="cls-4" d="M407.64,267.86l-290.43-.77c.07.11.14-.24.16-.78l290.43.77C407.78,267.62,407.71,268,407.64,267.86Z"/></g><path class="cls-4" d="M407.67,265.88c-.06,0-.12.33-.13.8a3.44,3.44,0,0,0,.1,1.18l0,0-290.42-.77s0,0,0,0a3.37,3.37,0,0,1-.1-1.17c0-.48.07-.8.13-.8Z"/></g></g><g class="cls-2"><g class="cls-14"><g class="cls-2"><path class="cls-4" d="M407.7,265.9l-290.43-.76c-.07-.11-.14.24-.16.78l290.43.76C407.55,266.14,407.62,265.79,407.7,265.9Z"/></g><path class="cls-4" d="M117.24,265.12l290.43.76,0,0-290.43-.76S117.25,265.12,117.24,265.12Z"/></g></g><g class="cls-2"><g class="cls-15"><g class="cls-2"><path class="cls-4" d="M407.64,267.86l-290.43-.77c.07.11.14-.24.16-.78l290.43.77C407.78,267.62,407.71,268,407.64,267.86Z"/><line class="cls-4" x1="407.71" y1="267.83" x2="117.28" y2="267.06"/><line class="cls-4" x1="407.76" y1="267.55" x2="117.33" y2="266.78"/><path class="cls-4" d="M407.8,267.08l-290.43-.77a3.69,3.69,0,0,0-.1-1.17l290.43.76A3.77,3.77,0,0,1,407.8,267.08Z"/><line class="cls-4" x1="407.79" y1="266.56" x2="117.36" y2="265.79"/><line class="cls-4" x1="407.76" y1="266.14" x2="117.33" y2="265.37"/></g><path class="cls-4" d="M407.66,267.88l-290.42-.77c.06,0,.11-.32.13-.8a3.69,3.69,0,0,0-.1-1.17l290.43.76a3.77,3.77,0,0,1,.1,1.18C407.78,267.55,407.73,267.88,407.66,267.88Z"/></g></g><g class="cls-2"><g class="cls-16"><path class="cls-4" d="M120.63,150.6c8.39,12.92,13.67,75.11,11.8,138.91s-10.19,105.05-18.58,92.12S100.17,306.52,102,242.72,112.24,137.68,120.63,150.6Zm-3.36,114.54c-.07-.11-.14.24-.16.78a3.37,3.37,0,0,0,.1,1.17c.07.11.14-.24.16-.78a3.69,3.69,0,0,0-.1-1.17"/></g></g><g class="cls-2"><g class="cls-17"><g class="cls-2"><path class="cls-4" d="M120.63,150.6l290.43.76c-8.4-12.92-16.72,28.33-18.59,92.13L102,242.72C103.92,178.92,112.24,137.68,120.63,150.6Z"/><line class="cls-4" x1="112.5" y1="154.56" x2="402.92" y2="155.33"/><line class="cls-4" x1="105.83" y1="187.61" x2="396.26" y2="188.38"/><path class="cls-4" d="M102,242.72l290.43.77c-1.87,63.8,3.42,126,11.81,138.91l-290.43-.77C105.46,368.71,100.17,306.52,102,242.72Z"/><line class="cls-4" x1="102.41" y1="304.22" x2="392.84" y2="304.99"/><line class="cls-4" x1="106.64" y1="354.05" x2="397.07" y2="354.82"/><path class="cls-4" d="M113.85,381.63l290.43.77c8.39,12.92,16.71-28.32,18.58-92.12l-290.43-.77C130.56,353.31,122.24,394.56,113.85,381.63Z"/></g><path class="cls-4" d="M117.53,148.23,408,149c-7.25,0-13.85,38.57-15.49,94.49-1.87,63.8,3.42,126,11.81,138.91,1,1.6,2.07,2.37,3.09,2.37L116.94,384c-1,0-2-.77-3.09-2.37-8.39-12.92-13.68-75.11-11.81-138.91C103.68,186.8,110.28,148.21,117.53,148.23Z"/></g></g><g class="cls-2"><g class="cls-18"><g class="cls-2"><path class="cls-4" d="M120.63,150.6l290.43.76c-8.4-12.92-16.72,28.33-18.59,92.13L102,242.72C103.92,178.92,112.24,137.68,120.63,150.6Z"/></g><path class="cls-4" d="M408,149c1,0,2.06.77,3.1,2.36l-290.43-.76c-1-1.6-2.07-2.37-3.1-2.37Z"/></g></g><g class="cls-2"><g class="cls-19"><g class="cls-2"><path class="cls-4" d="M113.85,381.63l290.43.77c8.39,12.92,16.71-28.32,18.58-92.12l-290.43-.77C130.56,353.31,122.24,394.56,113.85,381.63Z"/><line class="cls-4" x1="121.98" y1="377.67" x2="412.41" y2="378.44"/><line class="cls-4" x1="128.65" y1="344.62" x2="419.08" y2="345.39"/><path class="cls-4" d="M132.43,289.51l290.43.77c1.87-63.8-3.41-126-11.8-138.92l-290.43-.76C129,163.52,134.3,225.71,132.43,289.51Z"/><line class="cls-4" x1="132.07" y1="228.01" x2="422.5" y2="228.78"/><line class="cls-4" x1="127.83" y1="178.18" x2="418.26" y2="178.94"/></g><path class="cls-4" d="M116.94,384c7.26,0,13.85-38.57,15.49-94.49,1.87-63.8-3.41-126-11.8-138.91l290.43.76c8.39,12.93,13.67,75.12,11.8,138.92-1.64,55.92-8.23,94.51-15.49,94.49Z"/></g></g></g></svg>