<svg id="Calque_1" data-name="Calque 1" xmlns="http://www.w3.org/2000/svg" xmlns:xlink="http://www.w3.org/1999/xlink" viewBox="0 0 540 540"><defs><style>.cls-1,.cls-4{fill:none;}.cls-2{isolation:isolate;}.cls-3{clip-path:url(#clip-path);}.cls-4{stroke:#000;stroke-miterlimit:10;stroke-width:0.25px;}.cls-5{clip-path:url(#clip-path-2);}.cls-6{clip-path:url(#clip-path-3);}.cls-7{clip-path:url(#clip-path-4);}.cls-8{clip-path:url(#clip-path-5);}.cls-9{clip-path:url(#clip-path-6);}.cls-10{clip-path:url(#clip-path-7);}.cls-11{clip-path:url(#clip-path-8);}.cls-12{clip-path:url(#clip-path-9);}.cls-13{clip-path:url(#clip-path-10);}.cls-14{clip-path:url(#clip-path-11);}.cls-15{clip-path:url(#clip-path-12);}.cls-16{clip-path:url(#clip-path-13);}.cls-17{clip-path:url(#clip-path-14);}.cls-18{clip-path:url(#clip-path-15);}</style><clipPath id="clip-path"><path class="cls-1" d="M409.86,385.35v0Z"/></clipPath><clipPath id="clip-path-2"><path class="cls-1" d="M409.86,385.37h-295V147.63h295V385.37Z"/></clipPath><clipPath id="clip-path-3"><path class="cls-1" d="M114.87,385.37v0h295v0Z"/></clipPath><clipPath id="clip-path-4"><path class="cls-1" d="M409.86,147.63V385.35h-295V147.63Z"/></clipPath><clipPath id="clip-path-5"><path class="cls-1" d="M114.87,385.35v0Zm0-118.85h0"/></clipPath><clipPath id="clip-path-6"><polygon class="cls-1" points="114.87 266.5 409.86 266.5 114.87 266.5 114.87 266.5 114.87 266.5"/></clipPath><clipPath id="clip-path-7"><path class="cls-1" d="M114.87,266.5Z"/></clipPath><clipPath id="clip-path-8"><path class="cls-1" d="M115.87,384.35v0Zm0-116.85v0"/></clipPath><clipPath id="clip-path-9"><path class="cls-1" d="M115.87,267.5v-2h293v2Z"/></clipPath><clipPath id="clip-path-10"><polygon class="cls-1" points="408.86 267.5 115.87 267.5 115.87 267.5 408.86 267.5 408.86 267.5"/></clipPath><clipPath id="clip-path-11"><path class="cls-1" d="M115.87,265.5h293v2h-293v-2Z"/></clipPath><clipPath id="clip-path-12"><path class="cls-1" d="M408.86,384.35v0Zm0-116.85v0"/></clipPath><clipPath id="clip-path-13"><path class="cls-1" d="M408.86,384.37h-293V148.64h293V384.37Z"/></clipPath><clipPath id="clip-path-14"><path class="cls-1" d="M115.87,384.37v0h293v0Z"/></clipPath><clipPath id="clip-path-15"><path class="cls-1" d="M408.86,148.63V384.35h-293V148.63Z"/></clipPath></defs><g class="cls-2"><g class="cls-2"><g class="cls-3"><path class="cls-4" d="M409.86,385.35v0Z"/></g></g><g class="cls-2"><g class="cls-5"><g class="cls-2"><path class="cls-4" d="M409.86,385.35h-295V268.57h295Z"/><line class="cls-4" x1="409.86" y1="370.17" x2="114.87" y2="370.17"/><line class="cls-4" x1="409.86" y1="328.28" x2="114.87" y2="328.28"/><path class="cls-4" d="M409.86,268.57h-295V147.65h295Z"/><line class="cls-4" x1="409.86" y1="208.3" x2="114.87" y2="208.3"/><line class="cls-4" x1="409.86" y1="164.92" x2="114.87" y2="164.92"/><path class="cls-4" d="M409.86,147.65h-295V264.42h295Z"/></g><path class="cls-4" d="M409.86,385.37h-295V147.63h295V385.37Z"/></g></g><g class="cls-2"><g class="cls-6"><g class="cls-2"><path class="cls-4" d="M409.86,385.35h-295V268.57h295Z"/></g><path class="cls-4" d="M114.87,385.37v0h295v0Z"/></g></g><g class="cls-2"><g class="cls-7"><g class="cls-2"><path class="cls-4" d="M409.86,147.65h-295V264.42h295Z"/><line class="cls-4" x1="409.86" y1="162.83" x2="114.87" y2="162.83"/><line class="cls-4" x1="409.86" y1="204.72" x2="114.87" y2="204.72"/><path class="cls-4" d="M409.86,264.42h-295V385.35h295Z"/><line class="cls-4" x1="409.86" y1="324.7" x2="114.87" y2="324.7"/><line class="cls-4" x1="409.86" y1="368.08" x2="114.87" y2="368.08"/></g><path class="cls-4" d="M409.86,147.63V385.35h-295V147.63Z"/></g></g><g class="cls-2"><g class="cls-8"><path class="cls-4" d="M114.87,385.35v0Zm0-118.85h0"/></g></g><g class="cls-2"><g class="cls-9"><g class="cls-2"><polygon class="cls-4" points="114.87 266.5 409.86 266.5 114.87 266.5 114.87 266.5"/><line class="cls-4" x1="114.87" y1="266.5" x2="409.86" y2="266.5"/><line class="cls-4" x1="114.87" y1="266.5" x2="409.86" y2="266.5"/><polygon class="cls-4" points="114.87 266.5 409.86 266.5 114.87 266.5 114.87 266.5"/><line class="cls-4" x1="114.87" y1="266.5" x2="409.86" y2="266.5"/><line class="cls-4" x1="114.87" y1="266.5" x2="409.86" y2="266.5"/></g><polygon class="cls-4" points="114.87 266.5 409.86 266.5 114.87 266.5 114.87 266.5 114.87 266.5"/></g></g><g class="cls-2"><g class="cls-10"><g class="cls-2"><polygon class="cls-4" points="114.87 266.5 409.86 266.5 114.87 266.5 114.87 266.5"/><line class="cls-4" x1="114.87" y1="266.5" x2="409.86" y2="266.5"/><line class="cls-4" x1="114.87" y1="266.5" x2="409.86" y2="266.5"/><polygon class="cls-4" points="114.87 266.5 409.86 266.5 114.87 266.5 114.87 266.5"/><line class="cls-4" x1="114.87" y1="266.5" x2="409.86" y2="266.5"/><line class="cls-4" x1="114.87" y1="266.5" x2="409.86" y2="266.5"/></g><path class="cls-4" d="M114.87,266.5Z"/></g></g><g class="cls-2"><g class="cls-11"><path class="cls-4" d="M115.87,384.35v0Zm0-116.85v0"/></g></g><g class="cls-2"><g class="cls-12"><g class="cls-2"><path class="cls-4" d="M115.87,267.5h293v-1h-293Z"/><line class="cls-4" x1="115.87" y1="267.37" x2="408.86" y2="267.37"/><line class="cls-4" x1="115.87" y1="267.02" x2="408.86" y2="267.02"/><path class="cls-4" d="M115.87,266.52h293v-1h-293Z"/><line class="cls-4" x1="115.87" y1="266.01" x2="408.86" y2="266.01"/><line class="cls-4" x1="115.87" y1="265.65" x2="408.86" y2="265.65"/><path class="cls-4" d="M115.87,265.5h293v1h-293Z"/></g><path class="cls-4" d="M115.87,267.5v-2h293v2Z"/></g></g><g class="cls-2"><g class="cls-13"><g class="cls-2"><path class="cls-4" d="M115.87,267.5h293v-1h-293Z"/></g><polygon class="cls-4" points="408.86 267.5 115.87 267.5 115.87 267.5 408.86 267.5 408.86 267.5"/></g></g><g class="cls-2"><g class="cls-14"><g class="cls-2"><path class="cls-4" d="M115.87,265.5h293v1h-293Z"/><line class="cls-4" x1="115.87" y1="265.63" x2="408.86" y2="265.63"/><line class="cls-4" x1="115.87" y1="265.98" x2="408.86" y2="265.98"/><path class="cls-4" d="M115.87,266.48h293v1h-293Z"/><line class="cls-4" x1="115.87" y1="266.99" x2="408.86" y2="266.99"/><line class="cls-4" x1="115.87" y1="267.35" x2="408.86" y2="267.35"/></g><path class="cls-4" d="M115.87,265.5h293v2h-293v-2Z"/></g></g><g class="cls-2"><g class="cls-15"><path class="cls-4" d="M408.86,384.35v0Zm0-116.85v0"/></g></g><g class="cls-2"><g class="cls-16"><g class="cls-2"><path class="cls-4" d="M408.86,384.35h-293V268.56h293Z"/><line class="cls-4" x1="408.86" y1="369.3" x2="115.87" y2="369.3"/><line class="cls-4" x1="408.86" y1="327.76" x2="115.87" y2="327.76"/><path class="cls-4" d="M408.86,268.56h-293V148.64h293Z"/><line class="cls-4" x1="408.86" y1="208.79" x2="115.87" y2="208.79"/><line class="cls-4" x1="408.86" y1="165.77" x2="115.87" y2="165.77"/><path class="cls-4" d="M408.86,148.64h-293v115.8h293Z"/></g><path class="cls-4" d="M408.86,384.37h-293V148.64h293V384.37Z"/></g></g><g class="cls-2"><g class="cls-17"><g class="cls-2"><path class="cls-4" d="M408.86,384.35h-293V268.56h293Z"/></g><path class="cls-4" d="M115.87,384.37v0h293v0Z"/></g></g><g class="cls-2"><g class="cls-18"><g class="cls-2"><path class="cls-4" d="M408.86,148.64h-293v115.8h293Z"/><line class="cls-4" x1="408.86" y1="163.7" x2="115.87" y2="163.7"/><line class="cls-4" x1="408.86" y1="205.24" x2="115.87" y2="205.24"/><path class="cls-4" d="M408.86,264.44h-293V384.35h293Z"/><line class="cls-4" x1="408.86" y1="324.21" x2="115.87" y2="324.21"/><line class="cls-4" x1="408.86" y1="367.23" x2="115.87" y2="367.23"/></g><path class="cls-4" d="M408.86,148.63V384.35h-293V148.63Z"/></g></g></g></svg>